<svg width="200" height="200" viewBox="0 0 200 200" fill="none" xmlns="http://www.w3.org/2000/svg">
<circle cx="100" cy="100" r="100" fill="#E52A30"/>
<path d="M149.618 81.25H57.6042C56.166 81.25 55 80.2006 55 78.9062V71.875C55 66.6973 59.6636 62.5 65.4167 62.5H75.8333V52.3438C75.8333 51.0494 76.9994 50 78.4375 50H87.1181C88.5562 50 89.7222 51.0494 89.7222 52.3438V62.5H117.5V52.3438C117.5 51.0494 118.666 50 120.104 50H128.785C130.223 50 131.389 51.0494 131.389 52.3438V62.5H141.806C147.559 62.5 152.222 66.6973 152.222 71.875V78.9062C152.222 80.2006 151.056 81.25 149.618 81.25ZM57.6042 87.5H149.618C151.056 87.5 152.222 88.5494 152.222 89.8438V140.625C152.222 145.803 147.559 150 141.806 150H65.4167C59.6636 150 55 145.803 55 140.625V89.8438C55 88.5494 56.166 87.5 57.6042 87.5ZM129.934 106.24L123.821 100.693C122.808 99.7742 121.159 99.7682 120.138 100.68L97.1267 121.224L87.1484 112.171C86.1356 111.252 84.4865 111.246 83.4655 112.157L77.303 117.659C76.2819 118.571 76.2752 120.055 77.2882 120.974L95.2138 137.237C96.2266 138.156 97.8754 138.162 98.8965 137.25L129.919 109.554C130.94 108.643 130.947 107.159 129.934 106.24Z" fill="white"/>
</svg>
