<svg width="136" height="118" viewBox="0 0 136 118" fill="none" xmlns="http://www.w3.org/2000/svg">
<path fill-rule="evenodd" clip-rule="evenodd" d="M50.167 107.509C-18.0752 107.509 -14.9939 10 49.0626 10C112.898 10 112.523 107.509 50.167 107.509ZM48.9963 16.5492C45.914 16.5435 42.8378 16.8245 39.8075 17.3886L40.9782 24.0924L26.952 34.0322L14.6377 33.2702C13.4254 34.9675 12.3436 36.7544 11.4018 38.6156L13.9861 62.7914L21.5846 72.5545L13.7873 83.5987C20.7341 93.7704 32.7061 100.96 49.9351 100.96C74.7404 100.96 88.2033 83.1127 90.1581 63.8406L84.3378 58.5504L75.8006 55.3034L74.4091 57.4128L77.7223 60.8918L80.2846 61.2783L81.389 64.9892L73.3267 69.0645L67.8046 59.445L65.894 63.7743L70.0576 72.93L75.1711 74.4209L66.9321 78.8386L56.1971 94.2343L47.0746 94.9521L45.0756 86.1168L46.5887 73.0956L36.1298 70.3125L32.684 62.0514L34.3296 54.0996L44.2694 50.0243L53.668 55.4028L58.6269 53.7793L66.0154 55.7783L67.6942 46.3576L58.1851 43.21L58.0747 49.3506L52.0335 49.0745L51.5144 42.5805L44.0485 44.226L44.6118 38.5162L41.431 34.8274L46.2684 30.4097L54.1319 34.8274L56.5947 29.6035L62.8237 26.9529L66.9763 28.7862L71.1952 27.9358L73.0175 23.5181C66.6892 19.1667 58.7042 16.5492 48.9963 16.5492Z" fill="#E52A30"/>
<path d="M130.704 104.841L130.68 99.8628L125.68 99.8873C130.68 99.8628 130.68 99.8626 130.68 99.8622L130.68 99.8605L130.68 99.8535L130.679 99.8257L130.679 99.7158L130.677 99.2869L130.669 97.6553L130.64 91.8013C130.617 86.9392 130.585 80.4147 130.554 73.7647C130.491 60.4526 130.429 46.6693 130.429 44.6762C130.429 40.3325 129.698 36.0576 126.844 32.9654C123.929 29.8078 119.879 29.0198 116.062 28.9968L117.06 10.266L117.341 5H112.067H86.6006H81.4603L81.6025 10.1383L82.1189 28.8001C78.0497 29.004 74.3802 30.336 71.7499 33.3131C68.9828 36.4451 68.1318 40.5495 68.1318 44.5327C68.1318 46.3115 68.1453 60.2754 68.1587 73.7887L68.1772 92.1512L68.1833 98.123L68.185 99.7886L68.1855 100.227L68.1856 100.339L68.1856 100.367L68.1856 100.374L68.1856 100.376C68.1856 100.376 68.1856 100.377 73.0638 100.372L68.1856 100.377L68.1908 105.418L73.0638 105.373V107.285V112.285H78.0638H83.9732H89.4062L88.956 106.871L88.8193 105.228L110.188 105.03V107.33V112.181L115.036 112.328L120.946 112.507L126.521 112.676L126.082 107.116L125.906 104.885L130.704 104.841ZM100.127 28.8843C99.0151 28.8751 97.897 28.8659 96.7912 28.857L97.1579 22.6034L101.163 22.4078L101.348 28.8944C100.943 28.8911 100.536 28.8877 100.127 28.8843ZM112.148 48.8512C113.282 48.8512 113.824 49.2329 114.145 49.5922C114.552 50.0462 114.874 50.7975 114.903 51.7067C114.932 52.6246 114.652 53.3193 114.352 53.6879C114.149 53.9368 113.796 54.2479 112.857 54.2479C111.169 54.2479 110.439 53.7186 110.122 53.387C109.744 52.9916 109.472 52.3652 109.476 51.5714C109.479 50.7633 109.771 50.0504 110.178 49.5968C110.512 49.2249 111.066 48.8512 112.148 48.8512ZM95.938 66.3139L104.278 69.5719L103.519 71.0281L95.5572 67.4077L95.938 66.3139Z" fill="#E52A30" stroke="white" stroke-width="10"/>
</svg>
