<svg width="595" height="28" viewBox="0 0 595 28" fill="none" xmlns="http://www.w3.org/2000/svg">
<path d="M594.333 14C594.333 6.6362 588.364 0.666667 581 0.666667C573.636 0.666667 567.667 6.6362 567.667 14C567.667 21.3638 573.636 27.3333 581 27.3333C588.364 27.3333 594.333 21.3638 594.333 14ZM581 11.5L14 11.5V16.5L581 16.5V11.5Z" fill="#E52A30"/>
<path d="M0.666667 14C0.666667 21.3638 6.6362 27.3333 14 27.3333C21.3638 27.3333 27.3333 21.3638 27.3333 14C27.3333 6.6362 21.3638 0.666667 14 0.666667C6.6362 0.666667 0.666667 6.6362 0.666667 14ZM14 16.5L581 16.5V11.5L14 11.5V16.5Z" fill="#E52A30"/>
</svg>
