<svg width="200" height="200" viewBox="0 0 200 200" fill="none" xmlns="http://www.w3.org/2000/svg">
<circle cx="100" cy="100" r="100" fill="#E52A30"/>
<path fill-rule="evenodd" clip-rule="evenodd" d="M126.176 104.708C132.518 108.583 136.963 113.833 136.963 120.833V133.333H155.481V120.833C155.481 111.75 138.954 106.375 126.176 104.708Z" fill="white"/>
<path d="M90.667 100C100.894 100 109.185 92.5382 109.185 83.3334C109.185 74.1287 100.894 66.6667 90.667 66.6667C80.4395 66.6667 72.1484 74.1287 72.1484 83.3334C72.1484 92.5382 80.4395 100 90.667 100Z" fill="white"/>
<path fill-rule="evenodd" clip-rule="evenodd" d="M118.445 100C128.676 100 136.963 92.5417 136.963 83.3334C136.963 74.1251 128.676 66.6667 118.445 66.6667C116.269 66.6667 114.232 67.0834 112.287 67.6667C116.13 71.9584 118.445 77.4167 118.445 83.3334C118.445 89.2501 116.13 94.7084 112.287 99.0001C114.232 99.5834 116.269 100 118.445 100Z" fill="white"/>
<path fill-rule="evenodd" clip-rule="evenodd" d="M90.6669 104.167C78.3058 104.167 53.6299 109.75 53.6299 120.833V133.333H127.704V120.833C127.704 109.75 103.028 104.167 90.6669 104.167Z" fill="white"/>
</svg>
