<svg width="582" height="460" viewBox="0 0 582 460" fill="none" xmlns="http://www.w3.org/2000/svg">
<path fill-rule="evenodd" clip-rule="evenodd" d="M25.4584 240.612L24.7751 240.308L25.0029 240.004L24.851 239.776L25.0788 239.473L25.1547 238.713L25.0029 237.954L24.7751 237.726L24.4714 236.966L24.3955 236.131L24.9269 235.068L24.3955 234.005L23.3327 233.169L23.1049 232.714V231.726L23.029 230.891L22.0421 229.752L21.6625 229.372L21.7384 229.144L22.2698 228.841L22.3458 228.461L21.6625 227.853L20.9793 226.942L20.2201 225.955L19.8405 225.423L18.3981 224.816L18.2462 224.512L18.1703 223.98L18.3981 223.6L18.3222 223.297L18.474 222.158L18.6258 221.474L18.3981 220.259L18.5499 220.031L18.474 219.5L18.0944 219.044L17.563 218.74L17.2593 218.436L16.9557 217.525L16.3483 216.842V216.31L16.5761 216.006L17.1075 215.399L17.3352 214.943V214.639L17.7907 213.956L17.8667 213.424L18.3222 212.437V211.602L18.5499 211.298V210.918L18.8536 210.083L19.1572 209.627L19.3091 208.944L19.2332 208.488L18.7777 207.88V207.121L18.9295 206.058L18.7017 205.526L18.6258 204.919L18.7017 204.691L18.6258 203.704L18.474 203.4L17.7148 202.564L17.6389 202.033L17.0316 201.197L16.7279 201.122L16.3483 200.21V199.527L15.9687 198.539L15.741 198.312L15.9687 197.78L15.741 196.945L15.8928 196.641V196.033L16.1206 195.274L16.8038 194.97V193.375L16.9557 192.388L16.8797 190.869L17.1834 189.806L17.7907 189.578L18.2462 188.439L18.7777 188.287V187.832L18.9295 187.072V186.692L19.5368 186.085L20.2201 185.174L20.5238 184.414L20.296 183.731L19.7646 182.819V182.288L20.5238 181.68L21.207 181.3L22.5735 181.376L22.8772 181.3L23.3327 179.858L23.029 178.718L23.1809 178.111L24.6233 178.415L25.6861 178.87L27.4322 179.326L28.0395 179.174L28.9505 178.718L29.2542 178.415L28.7987 177.579L29.0265 175.833L28.9505 175.605L27.9636 174.769L27.584 173.023L27.0526 170.669V170.137L26.5212 168.466L26.3694 168.162L25.9139 168.011L26.2175 167.099L26.2935 166.34L26.2175 164.745L26.2935 164.289L26.5212 164.061L26.749 162.998V162.391L26.2175 161.783L26.4453 161.707L26.3694 160.568L26.5212 160.264L26.2175 159.201L26.3694 158.821L26.0657 158.214V157.53L25.8379 157.227L25.762 156.619L25.9139 156.315L25.6861 156.088L25.8379 155.936L25.6861 155.556L25.762 155.176L25.3824 154.645L25.9898 154.493L26.2935 153.961H26.5971L27.0526 154.189L27.4322 153.809H27.66L27.8118 153.43L28.1155 153.581L28.3432 153.202L28.2673 152.594L28.3432 152.063L28.495 152.29H29.1783V152.518L30.0134 152.746L30.8485 152.139H31.3799L31.6076 152.29L32.1391 152.139L32.6705 152.442L33.2019 152.366L33.6574 151.987L33.9611 152.214L34.2647 152.746L35.0998 153.961L35.859 154.796L38.1365 156.999L39.1993 157.834H39.7308L40.6418 157.227L42.1601 156.847L43.0711 156.088L43.9062 154.948L44.4376 154.493L45.8041 152.746L49.0686 152.594L50.8147 153.126L52.4089 154.569L53.1681 156.695V157.151L53.3199 157.227L53.4718 157.758L54.0032 157.834L54.7623 157.379L55.9011 157.227L56.5844 156.771L57.0399 156.391L57.5713 156.315L57.799 156.012L58.1786 156.088L58.71 155.708L63.5687 155.86L65.3907 151.987L65.6185 150.696L65.4666 150.164L65.5426 149.632L65.7703 149.025V148.569L66.6054 147.05H66.9091L67.8201 146.747L68.5792 146.671L68.8829 146.139L68.9588 145.532L69.3384 144.696L69.4143 144.165L69.7939 143.253L70.1735 143.177L70.629 142.646L71.6159 141.734L72.2992 141.431L72.9824 140.443L73.6657 140.14L74.5008 139.456L73.5138 138.773L73.0583 137.406L73.6657 137.178V137.026L73.2102 136.798L72.9824 136.418L72.7547 136.342L72.451 135.583L71.9196 134.596L71.6159 134.292L71.3123 133.76V133.381L70.4772 132.393L70.4012 132.014L69.6421 131.026L70.0976 130.647L70.3253 130.039L71.0845 129.432L72.0714 128.976L72.2233 128.596L72.2992 127.761L72.3751 127.153V126.166L71.8437 125.635L71.6159 124.875L71.3123 124.192L70.9327 123.812L70.3253 122.673V122.293L69.8698 121.837L69.5662 121.078L68.807 120.622L68.3515 120.167L68.1237 119.179L68.1997 118.344L68.1237 117.585L68.1997 116.901V116.37L68.4274 115.61L68.5033 114.851L68.3515 114.547L68.5792 113.636V112.8L68.807 112.193L68.8829 111.281L69.0347 110.37L68.7311 110.218V109.383L68.4274 109.079L68.5033 108.396L68.4274 107.864L68.1997 107.712L68.2756 106.953L68.5792 106.649L68.8829 106.269L69.2625 105.965L69.5662 104.978L70.7049 103.459L71.0845 103.307L71.6159 102.7L71.6918 101.865L71.9955 101.333L71.4641 101.409L70.629 100.498L70.4012 98.9028L71.6159 98.2193L72.5269 97.5358L72.8306 97.3839L73.362 97.0042L74.5008 95.6372L75.0322 95.4094L74.9563 94.8018L75.4877 94.3462L76.0191 93.5868L76.6264 93.283L76.2469 92.8273L76.1709 92.4476L76.3228 91.2326L77.7652 89.9415L78.1448 89.7896L79.3595 90.0175L79.6631 89.8656L80.3464 90.3972L80.9537 90.1693L81.637 90.0934L82.0166 90.1693L83.459 89.8656L83.6867 89.6378L84.7496 89.4099L85.5847 89.334L87.4067 88.9543L87.9381 88.4227L88.6213 86.7519L89.2287 85.5369L89.5323 85.309L90.6711 85.0053L91.3543 85.309L93.3282 84.8534L93.8596 85.4609L95.378 85.385L95.7575 85.6887H96.0612L97.0481 85.9166L97.8073 85.9925L98.1869 85.7647L98.5665 85.9925L98.8701 85.6887L99.3256 85.9166L100.313 85.6128L100.616 85.0053L101.299 84.3977L101.527 83.7142L101.831 83.3345L103.273 82.2713L103.349 82.0435L104.336 80.7525L104.944 80.3728L105.399 80.1449L105.551 79.7652L105.855 79.2336V78.3982V77.8667L106.462 77.1832L106.538 76.4997L106.69 76.12L107.449 76.6516H108.056L108.512 76.4237L108.891 75.8922L109.271 75.5124L109.802 75.2846L110.182 74.753L110.485 74.6011L111.245 73.9936L111.548 73.5379L112.232 73.3101L113.067 73.5379L113.674 73.3101H114.357L114.813 73.7658L115.951 73.8417L116.331 73.6139L116.559 73.8417L117.47 73.7658L117.925 73.6898L118.457 73.0063L119.444 72.9304L119.975 72.7026L120.279 72.9304H120.658L121.493 72.0191L122.328 71.7153L122.556 71.5634H122.936L123.391 71.4875L123.619 71.1837H124.454L124.986 70.9559L125.593 70.5002L126.048 70.1965L126.656 69.513L127.263 69.5889L128.857 69.437L129.465 69.0573H130.072L130.603 68.9054L130.983 67.7663L131.666 67.5385L132.198 66.855L132.957 66.3234L133.868 65.5639L134.172 65.1083L134.247 64.8045L134.551 65.0324H135.158L135.69 64.6526L135.918 63.8932L136.297 63.3616L136.98 61.9947L137.36 61.8428L138.347 60.172L138.954 59.9442L139.41 59.4885L139.638 58.9569L139.941 58.7291L141.384 58.3494L141.536 58.2735L142.598 57.9697L143.206 57.6659L143.813 57.0584L144.117 56.8306L144.42 56.4508L144.952 56.3749L145.331 55.7674L145.711 55.3876L145.787 54.6282L146.242 54.2485L146.394 53.7929L146.85 53.641L147.457 53.2613L147.837 52.8056L148.368 52.8815L149.127 52.7297L149.659 52.8056L150.646 52.5778L151.253 52.5018L151.708 53.4131L152.619 53.9447L153.91 54.0207L154.745 54.1726L155.808 54.5523H156.263L157.706 54.856L158.769 55.0839L158.921 55.2358L159.604 55.3117L159.983 55.1598L160.818 55.4636L161.046 55.6914L161.502 56.5268L162.185 57.2862V57.6659L162.413 58.0456L162.944 58.5013L162.489 58.9569L162.64 59.7164L163.096 60.4758L163.324 60.5517L163.4 60.8555L163.703 61.3112L164.159 62.5262L164.387 62.7541L164.614 63.3616L164.538 63.5894L164.994 64.3489L165.07 64.6526L166.057 65.1083L166.36 65.488L165.829 65.6399H166.284V65.9437L166.968 66.5512L167.271 66.7031L167.499 67.2347L167.423 67.3866L167.651 67.9941L168.258 68.4498L168.334 68.9814L168.562 69.2092L169.169 69.437L169.397 70.3483L170.08 70.5762V71.1837H170.46L170.688 71.4875L170.764 72.095L171.295 72.4747L171.219 73.0063L171.371 73.5379L171.826 73.6898L171.75 74.1455L172.206 74.2214L172.358 74.6011L172.661 74.9808L172.813 75.7403L173.041 76.044L172.813 76.4237L173.041 76.9553L173.193 77.4869L172.889 78.0945L172.965 78.702L172.813 79.0058L172.661 80.1449L172.737 80.2968L172.586 80.9803L172.206 81.5878L172.586 82.4232L173.117 83.2586V83.6383L173.648 84.0939L173.952 84.2458L173.876 84.4737L174.256 84.9293L174.332 85.5369L174.18 85.9925L174.408 86.7519L174.863 86.1444L175.395 86.0685L175.622 85.6887L175.926 85.7647L176.457 85.385L176.913 85.309L176.837 86.2203L177.444 86.2963L178.128 86.676L179.418 86.7519L179.646 86.9798L180.785 87.1316L181.923 86.8279L182.227 86.676L184.125 86.5241L184.732 86.3722L185.567 85.9925L186.327 85.2331L186.858 84.8534L187.086 84.4737L187.465 84.5496L187.617 84.2458L187.921 84.3218L189.211 83.5623L189.819 83.2586L190.274 82.8029L190.046 82.4992L190.274 82.3473L190.122 82.1954L190.73 81.6638L190.578 81.2081L191.185 80.9803L191.793 82.1954L192.324 82.8789L192.552 83.0307V83.4105L193.083 83.1067L193.691 82.9548L195.133 82.727L195.664 82.4992L196.12 82.5751L196.575 82.3473L196.348 82.1194L196.044 81.436L195.285 80.6765L195.057 80.1449L195.513 79.5374L195.209 78.778L194.905 78.4742H194.602L194.374 78.1704V77.411L194.07 76.9553L194.146 76.4997L193.994 76.2719L193.159 75.3605L192.78 74.6011L193.235 74.4492L192.931 73.7658L192.248 73.1582L192.552 72.7026L192.324 72.3228L193.311 71.6394L193.539 71.7153L194.146 71.2596L193.994 70.8799L194.07 70.0446L194.526 69.3611L195.285 68.4498L195.513 67.5385L196.348 66.779L196.575 66.2474L196.424 65.9437L195.968 65.4121L195.74 63.7413L196.348 63.2857L195.816 62.7541L196.424 62.4503H196.803L196.955 61.9947H197.41L198.246 60.9315L198.094 60.5517L198.397 60.0961L198.473 59.4885H198.777L199.081 59.0329V58.4254L199.46 58.1216L199.764 57.3622L199.612 56.6787L199.081 55.9952L198.777 54.932L198.853 54.3245L199.005 53.8688L199.384 53.4131V53.1094L199.84 53.0334L199.688 52.3499L199.992 52.5018L200.295 53.3372L200.751 53.2613L201.13 52.5018L201.89 52.1221L202.649 52.0462L202.801 51.5905L203.256 51.2108L203.636 50.1476L203.863 50.2236L203.787 49.4641L204.243 49.0844L204.395 48.5528L204.926 48.0972L205.534 47.7934L206.369 48.0212L206.596 48.1731L206.9 48.0212L207.052 47.6415L207.887 47.1858L207.811 46.6542L207.432 46.2745L207.963 45.8948L208.191 45.3632L208.57 45.2113L208.342 44.4519L208.646 43.6925L209.026 43.3887L209.102 43.0849L209.557 43.3128L209.937 42.8571L210.696 42.4774L210.62 42.2496L211 42.0217L210.544 41.718L210.165 41.2623L210.392 40.8067L210.696 40.8826V40.6548L211.151 40.427L211.531 40.8826L212.138 40.8067V40.5029L213.353 40.1232L213.505 40.2751L213.733 39.8194L214.416 39.6675L214.795 39.8954L215.023 40.427L215.631 40.1991L216.238 40.351L216.617 40.6548L216.693 41.0345L217.225 41.2623L217.756 41.1864V40.8826L217.908 40.6548L218.212 41.0345L218.364 40.8826L218.667 41.3383L218.515 41.4142L218.667 41.718H219.123L219.047 42.1736L219.654 42.5533L220.261 43.6165L221.476 43.2368H222.083L222.235 42.9331L223.146 42.6293L223.526 43.009L223.905 42.9331L223.602 42.6293L223.981 42.0977L223.602 41.8699L223.07 40.8826L222.387 40.351L221.932 39.5156V38.6803L221.704 37.9208L221.476 36.6298L222.463 36.2501L223.222 35.7945L223.298 35.3388L223.374 34.0478L223.07 33.5921L223.374 32.7568L223.07 32.3011L223.374 32.0733L224.057 31.7695L223.83 31.2379L224.057 30.8582L224.892 30.6304L225.12 30.7063L225.424 31.2379L226.335 31.162L226.487 31.3138H227.474L229.068 30.8582V30.4785L230.055 30.3266L231.042 30.5544L232.105 31.3138L233.699 32.2252L234.838 32.377L235.141 32.1492L235.521 32.2252L235.976 31.9973L235.9 32.2252L236.204 32.5289H236.508L236.811 32.9846L237.343 33.4402L237.722 33.0605L238.178 32.8327L238.482 33.1365L239.165 33.2124L239.317 33.6681L239.089 33.8959V34.6553L239.696 34.9591L239.772 35.2629L240.455 35.4907L240.911 35.7185L241.139 36.2501L240.835 36.1742L240.531 36.6298L240.835 37.9968L241.063 38.4524L241.139 39.06L240.911 39.5156L241.215 40.427L241.139 40.9585H241.366L241.215 41.7939L241.366 42.0977L242.733 42.1736L243.72 42.2496L244.023 41.9458L243.796 41.642L244.327 41.0345L244.175 40.8067L244.783 40.351L245.01 39.6675L245.39 39.2119L246.073 38.9081L246.453 39.1359L246.377 38.4524L246.681 38.3006L247.288 38.4524L247.668 38.3765L247.895 38.7562H248.351L248.654 39.2878H249.338L249.793 38.8322L249.641 38.6043L250.704 39.2878L251.767 39.2119L251.995 39.2878L253.437 38.3006L253.665 37.693L254.652 37.0855L254.88 36.5539L255.259 36.7058V36.4779L255.639 36.1742L256.018 35.5666L256.17 36.0223L256.702 36.1742L256.929 36.4779L257.081 36.8577L257.461 37.2374L257.992 37.4652L259.055 38.2246L258.903 37.5411L259.814 37.693L260.118 38.1487L260.725 37.9968L261.636 37.3892L262.623 37.9968L263.458 38.7562H263.762L264.749 39.06L265.584 39.2878L266.039 39.06L266.875 39.2119L267.102 39.4397L267.482 39.5916L268.848 39.7435L270.139 39.8194L270.594 40.1232L271.278 40.351L271.809 39.8194L273.024 40.5029L273.176 41.3383L273.555 41.5661L274.314 41.718L274.618 41.5661L274.542 41.7939L274.922 41.8699L275.301 41.5661L275.985 42.2496L276.82 42.0977L276.744 41.8699L277.579 41.9458V41.7939H278.034L278.338 42.4015H278.869L279.401 42.7812L280.16 44.5279L280.691 44.6797H281.147L280.995 44.2241L281.83 44.3V43.4647L282.589 43.3887L282.665 43.009L283.045 42.7812L283.424 42.7052L284.108 42.1736L284.26 41.642L284.032 41.5661V41.2623H284.563L285.095 40.427L284.867 39.8194L285.171 38.3765H285.398L285.778 37.769L286.006 37.2374L287.068 37.0095L287.296 36.402L286.765 36.5539L286.841 36.1742H287.448L287.752 35.7185L287.448 35.4147V35.111L287.904 35.2629L288.89 36.0982L290.712 36.3261L291.244 36.0982H292.155L292.535 35.9463L292.838 36.1742L293.066 36.6298L294.129 37.2374L294.736 36.8577L295.192 37.0095L295.951 36.4779V35.8704H296.254L296.634 34.9591L296.862 34.8072L297.697 34.8831L297.925 34.6553L297.621 33.8959L298.38 34.4275L298.912 33.744L298.228 32.9086L298.836 32.8327L299.747 31.0101L299.974 30.7063L300.734 30.0988L300.885 29.4153L300.658 29.5672L300.809 28.9596H301.417L301.796 27.8964L301.948 27.6686L302.176 26.6054L302.404 26.3776V25.3144L302.707 24.7828L303.77 25.4663L304.226 25.9219L304.681 26.1497L305.668 26.3016L305.972 26.4535L306.427 26.2257L306.959 26.1497L307.414 25.9219L308.022 25.3144L308.553 25.0106L309.236 24.479L309.54 23.8715L309.008 23.4158L309.616 22.6564L310.299 22.2007L310.527 21.7451L311.21 21.3654L311.59 20.9097L311.817 20.7578L311.514 19.9225L311.438 19.3909L311.514 18.8593L311.362 18.3277L311.438 17.7961L312.425 17.1126L313.336 16.8088L313.715 16.505L314.019 16.581L315.385 16.505L315.537 16.9607L316.524 17.2645L316.904 17.6442L316.828 18.0239L317.511 18.5555L317.967 18.6314L318.65 19.163V19.6187L318.878 19.8465V20.4541L319.257 21.3654L320.32 21.6691L320.244 21.2135L320.472 20.9856L320.927 21.3654L321.079 20.9097L321.307 20.6059L321.838 20.53L322.142 20.2262L322.825 20.4541L322.901 21.0616L323.129 21.2894L323.281 22.0488L323.585 22.2007L323.812 22.9602L324.344 23.5677L324.496 24.0993L324.647 24.2512L325.027 24.0993L325.71 23.8715L326.09 23.9474L326.925 23.4918L327.532 23.4158L327.836 23.112L328.747 22.9602L329.202 23.0361L329.886 22.8083L330.569 22.5045L331.328 22.4286L332.239 21.6691L332.619 21.1375L332.922 19.239L332.846 18.8593L333.226 17.872V17.5682L332.846 17.1885L333.226 16.3532L333.606 15.1381L333.454 14.6824L333.606 13.5433L333.909 13.2395L333.682 12.7838L333.985 12.3282L333.606 12.1004L334.061 12.1763L334.517 11.7966H334.82L335.883 11.4169L336.566 10.8093L337.022 10.9612V11.3409L337.401 11.7207H337.781L338.161 12.0244L338.388 11.9485L339.148 12.2523L339.223 12.7079L339.831 13.0117L340.21 13.6952L340.59 13.5433L340.894 13.6952L341.045 14.1508L341.653 14.6824L341.956 14.7584L342.108 15.0621H342.488L342.792 15.6697L343.323 15.7456L343.399 16.1253L344.158 16.3532L344.31 16.581L345.069 16.7329L345.525 16.581L345.676 16.9607L346.132 17.1126L346.512 17.4923L346.815 17.3404L347.271 17.5682L347.726 18.0239L348.03 18.1758L347.954 18.4036L348.713 18.9352L349.396 19.5427L350.156 19.7706L350.307 19.9984V20.53L350.459 20.9856L351.37 21.5172L352.129 21.821H352.509L352.737 22.1248L352.813 22.8083L353.496 23.3399V23.6436L353.875 24.0993L354.407 24.3271L354.786 24.2512L355.166 24.555L355.546 24.479L355.773 24.8587L356.684 24.3271L357.216 23.7955L357.823 22.5804L357.975 22.3526L358.658 22.0488L359.341 22.1248L359.949 21.9729L360.252 22.2007L360.632 22.6564L361.391 23.112L361.847 22.9602L362.454 23.4918L362.682 24.1752L363.137 24.2512L363.289 24.7068L364.2 24.1752L364.504 24.3271L365.111 23.7955L365.187 23.3399L365.719 23.4158L365.946 23.5677L366.933 23.6436L367.541 23.5677L367.996 23.112L368.907 22.8842L369.211 22.9602L369.742 22.5804L370.501 22.2007L370.881 22.6564H371.26L372.171 21.4413L372.855 21.5932L373.386 21.3654L374.221 20.6059L374.525 20.4541L374.829 19.9984L375.208 19.6946L375.891 20.2262L376.119 20.9097L376.423 20.9856L376.651 21.3654L377.03 21.6691L377.789 21.821L378.321 22.0488L378.7 21.897L379.08 21.1375L379.915 20.53L380.143 19.5427L380.598 19.0111L381.13 18.0998L381.206 17.7961L382.268 18.1758L382.724 18.5555L383.331 18.8593L383.635 18.7833L384.242 19.239L384.318 19.5427L384.774 19.6187L384.85 20.1503L385.912 20.3781L386.672 19.6187L387.051 19.4668L386.975 19.0111L387.203 18.4795L387.659 18.0998L387.507 17.7961L388.114 17.5682L388.19 17.4163L388.873 17.1885L389.329 16.7329L389.405 15.0621L389.253 14.3786L389.481 14.2268L390.316 14.0749L390.923 13.4673L391.53 13.2395L392.365 12.3282L392.745 12.1004H393.732L394.491 12.7838L394.795 13.2395L395.402 12.9357L396.237 13.0117L396.92 12.7838L397.604 12.4801L398.363 13.0117L398.211 13.4673L398.439 13.6952L399.274 13.6192L399.578 13.3914H400.109L400.564 13.0876L401.02 12.632L401.248 12.1763L401.931 11.8725L402.386 11.4169L402.538 10.8093L402.842 10.7334L403.222 10.2018H402.69L402.311 9.74614L401.703 9.6702L401.475 9.21455L401.627 8.98672L402.766 8.68295L403.222 8.98672L403.525 9.36643L404.588 9.06266L404.74 8.83483L404.588 8.60701L404.968 8.37918L405.195 7.99946L405.044 6.70844L405.119 6.17684L405.347 5.5693L406.258 4.88582L406.866 4.12639L407.549 3.89856L408.08 3.97451L408.308 4.50611L408.763 5.11365L408.839 5.34147L409.295 5.72119L409.75 5.64524L410.358 5.11365L410.737 4.73393L410.889 4.27828L411.648 3.29102L412.256 3.0632L413.015 2.5316L414.002 2.30377L414.457 2L414.989 2.30377L415.216 2.91131L415.444 3.82262L415.368 4.80988L414.685 5.64524L414.609 6.48061L413.85 8.45512L414.002 9.21455L415.065 10.2777H415.292L415.596 10.8853L416.507 11.4169L417.342 12.1763L417.57 12.4041L418.177 13.0117L418.557 13.2395V13.923L419.392 14.6065L419.696 13.847L420.075 13.6192H420.682L420.834 13.923L421.366 14.3027L421.29 14.7584L421.821 15.214L421.745 15.5178L422.201 15.8216L422.277 16.2772H422.504L422.884 17.0366L423.34 17.1885L423.871 17.7201V18.1758L424.251 17.5682L424.706 17.6442L424.478 17.9479L424.858 18.0998L425.086 17.9479L426.073 18.2517L426.376 18.8593H426.756L426.908 18.5555L427.363 18.7833L427.819 19.4668L427.895 19.9984L428.35 20.53L428.426 20.8338L428.881 20.6059L429.337 20.9097L429.792 21.0616L430.096 21.3654L430.552 21.4413L431.007 21.821L431.766 21.5932L432.222 22.1248L433.361 21.5172L434.044 22.3526V22.8842L434.423 23.0361L434.803 23.5677L434.955 23.8715L435.486 24.3271L435.714 25.2384V25.846L436.245 26.2257H436.473L437.308 26.6054L437.688 26.5295L437.84 26.8332L438.599 27.2129V27.5927L438.371 27.8964L438.143 28.8837L438.219 29.3393L438.599 29.6431L438.675 30.1747L439.054 30.4025L439.282 31.086L439.738 31.6176L440.269 31.7695L440.497 32.6808L441.104 33.1365L441.256 33.82L441.484 34.2756L441.787 34.4275L442.091 34.8831L442.85 35.3388L443.458 35.2629L443.609 35.4147V35.7945L443.761 36.3261L443.685 36.8577L443.837 37.769L444.065 37.5411H444.596L444.824 37.3133L445.887 37.0095L446.115 37.3892L446.039 37.693L446.494 38.0727V38.3006L447.178 38.6803L447.026 39.2878L447.102 40.0472L447.405 40.2751L447.633 40.7307L448.088 40.5788L448.62 41.0345L448.772 41.4902L449.455 41.8699L449.607 42.1736L449.455 42.6293L449.075 43.3887L449.303 43.9203L449.683 44.2241L449.759 44.7557L450.442 45.4392L450.822 46.1986L450.897 47.2618L451.049 47.7174L451.657 48.325L451.505 48.7047L451.581 49.0844L452.036 49.616V49.9198L452.719 50.6792L453.175 51.2867L453.479 52.1221L453.858 53.3372L453.782 54.3245L454.238 54.0966L455.149 54.3245H456.515L457.578 54.1726L458.565 54.856L459.248 55.0079L460.159 55.6155L460.843 55.8433L461.374 56.6027L461.526 57.3622L461.146 57.8937L460.843 58.4254L460.994 58.881V59.1848L461.146 59.9442L461.45 60.3239L461.754 61.2352L461.905 61.8428L461.754 63.1338L461.905 63.8173L462.133 64.4248L462.513 64.9564L462.892 65.2602L463.044 65.7918L464.259 67.1588L463.955 67.4625L462.892 67.9941L463.044 68.3738L463.348 68.7535L463.879 69.1333L464.562 69.7408L465.17 70.0446L466.005 70.5762L466.233 71.5634L466.84 72.7026L467.068 72.9304L467.675 73.0823L469.042 73.7658L470.104 74.1455L471.243 74.2973L471.699 74.6771L472.078 75.3605L472.61 76.044L473.293 76.1959L473.748 77.2591L474.659 77.5629L474.887 78.778L475.343 79.4614L475.798 79.7652L475.95 79.6893L477.848 81.2081L478.683 81.7397L479.442 82.1194L480.733 81.7397L481.416 82.4232L481.492 82.8029L481.872 83.3345V83.7902L482.707 84.7774L482.934 85.4609L483.314 85.5369L483.694 85.4609L484.529 85.6128L485.667 86.2963L485.971 86.2203L486.654 85.8406H487.11L488.4 86.3722L489.691 86.676L490.147 87.4354L490.678 88.043L491.058 88.2708H491.437L491.893 89.0302L492.5 89.1062L492.804 89.334L493.411 90.5491L494.018 90.7769L494.17 91.1566V91.6882L494.626 91.992L495.764 92.3717L497.055 93.1311L497.51 93.6627L498.118 93.8146L498.422 93.7387L498.877 94.1184L499.408 94.9537L499.94 95.4094L501.079 95.865H501.534L501.914 95.5613L502.293 95.7132L502.901 95.4853L503.356 95.7891L503.584 96.0929L504.267 95.7891L504.95 95.865L505.254 95.6372L505.482 95.2575L506.089 95.3335L506.545 95.1816L508.139 94.4981L509.126 94.4221L509.278 95.1816L509.505 95.7891L510.037 96.0929L510.492 96.6245L510.644 97.0801L511.707 97.4598V97.9155L511.859 98.3712L512.162 98.8268L512.39 99.8141L513.073 100.801L513.681 101.029L514.06 101.333L514.668 101.561H515.047L515.882 100.953L516.338 101.029L516.566 100.877L517.021 101.409L518.008 101.94L518.995 102.016L519.526 101.94L520.362 102.32L521.348 102.7L521.652 103.08L522.487 103.307L523.019 103.839H523.702L524.157 103.459L524.992 103.687L526.055 103.459L526.359 103.08L527.042 102.548L527.346 101.257L527.65 101.181L527.953 101.637L528.864 102.016L528.788 102.32L528.94 103.156L530.383 104.674L530.61 105.13V105.586L530.762 105.889L531.37 106.497L532.356 106.953L533.343 108.092L533.951 108.396L535.013 108.623H535.545L535.773 108.32L536.456 107.864L537.063 107.788L537.822 108.092H538.658L539.113 107.636L539.568 107.408L540.1 107.56L540.479 107.484L541.011 108.168L542.15 108.092L542.605 108.244L542.833 108.32V108.699L543.061 109.003V110.066L543.288 110.902L543.44 111.889L542.681 112.269L542.453 113.104L542.074 114.167V114.547L542.529 114.775L543.213 114.851L543.896 115.534L544.579 115.762L544.731 116.066V116.673L544.351 117.357L544.655 117.737L544.731 118.344L544.503 119.407L544.655 119.939L544.503 120.395L544.351 121.306L544.579 121.61L545.186 121.913L545.414 122.141L545.035 123.432L544.883 123.888L545.035 124.951L544.883 126.014V127.077L544.579 127.381L544.351 128.672V128.976L544.655 130.039V130.419L544.807 130.723L544.579 131.33L544.655 131.786L545.262 132.09L545.186 132.925L544.731 133.381L544.427 133.912L544.351 134.368L545.186 135.127L545.338 135.583L545.642 136.57L545.566 137.178L545.718 137.633L546.097 138.089L546.629 138.849L546.857 139L548.071 139.152L548.299 139.38L548.451 139.836L548.906 140.595L548.982 141.203L548.755 141.81L548.83 142.114L549.286 142.494V142.949L549.741 143.633L550.045 143.937V144.392L549.741 144.924L549.514 145.835L549.666 146.898L550.501 147.43L550.576 147.734L550.121 148.265L549.969 148.873L550.121 149.405L550.349 149.708V150.24L550.652 150.62L550.501 151.303L550.804 152.366L551.791 152.594L552.171 152.139L552.778 151.759L553.006 151.987L553.841 152.29V152.67L554.448 153.202L554.6 153.885L554.752 154.189L555.132 154.493L555.283 154.796L555.663 155.1L555.739 155.86L556.422 156.467L556.27 156.999L556.346 157.53L557.029 158.518L557.105 159.657L557.409 160.264L557.637 160.34L557.789 160.796L558.472 161.024L558.244 161.707V162.619L558.548 162.998L558.7 163.606L559.231 164.365L559.307 165.125L559.687 165.96L559.914 166.947L559.459 168.162L559.307 168.998L559.383 170.289L559.611 170.744L560.142 171.048L560.37 171.428V172.111L560.673 172.947L560.825 173.782L561.888 174.542L562.04 174.769L562.116 175.757L562.344 176.136L562.42 176.516L562.647 177.048L563.558 178.187L564.014 178.491L564.545 178.567L564.849 179.022L564.697 180.009L564.925 181.452L564.849 181.756L564.469 181.984L564.242 182.364L564.469 182.971L564.849 183.427L565.304 183.579L565.988 184.338L566.671 183.579L567.43 184.11L567.961 184.186L568.645 184.414H569.024L569.935 183.807L570.239 183.958L570.467 184.642L571.606 185.249L571.909 184.794L572.668 184.338L573.352 184.718L574.187 184.49L574.49 184.566L575.098 186.844L575.477 187.148L575.705 187.68L576.161 188.059L576.236 189.199L576.085 190.034L576.692 190.869H577.223L577.451 191.173L578.058 193.679L578.59 194.135L578.742 194.439L578.969 195.502L579.197 195.957L579.501 196.185L579.577 196.489L579.349 196.945L579.577 197.856L580.108 198.539L579.956 199.071L579.577 199.375L579.501 200.21L579.729 200.97L579.805 201.577L580.184 202.033L580.26 202.413L579.577 203.096L579.121 203.4L578.59 204.539L577.679 204.463L577.072 205.45L576.92 206.134L576.464 206.893L575.629 207.653L575.401 208.564L574.946 209.171L574.642 209.475L574.414 209.855L574.642 210.083L574.263 210.69L573.503 210.918L573.276 211.374L572.972 211.526L572.517 212.209L572.061 212.513L571.833 212.893L571.454 213.044L571.15 213.576L570.77 214.715L570.315 215.778L570.391 216.31L569.859 216.69L569.935 217.069L569.48 217.829L569.252 217.981H568.872L568.417 218.512L568.721 219.196L569.1 219.576L569.176 220.487L569.024 221.018L568.493 221.246L568.265 220.867L567.81 220.791L566.975 221.246L566.595 221.094L566.064 221.17L565.456 220.791L564.621 220.867L563.862 221.246L563.558 220.943L563.406 221.018L563.255 221.474V222.082L562.723 222.158L562.268 222.537L561.736 222.613L561.584 223.449L561.66 224.436L561.129 225.195L560.977 225.803L561.584 226.334L562.116 227.17V227.625L561.964 228.537L562.42 229.6L562.192 230.663V231.499L561.812 232.106L561.736 232.941L561.584 233.245L561.964 234.157L561.812 234.536L561.433 235.372L561.509 236.815L561.812 237.574L561.736 238.257L562.192 239.397L562.495 239.548H563.558L563.786 239.624L564.014 240.004V240.688L564.469 240.991L564.773 241.675L565.153 242.131L564.925 242.434L565.077 243.346V244.333L565.229 245.016L566.064 246.231L566.595 246.383V247.219L566.215 247.902L566.064 248.434L565.684 249.117L565.912 249.953L565.836 250.864L565.988 251.775L565.912 252.307L565.456 252.383L565.001 252.231L563.862 252.535L563.71 252.838L563.786 253.522L563.482 254.053L563.331 254.889L563.634 255.345L563.71 256.028L564.09 256.939L564.242 257.699L564.925 258.382L565.153 258.838L565.532 259.218L565.76 259.825L566.139 260.281L565.988 261.116V262.103L565.76 263.091L565.836 263.698L565.684 264.154L565.077 264.685L564.09 265.293L563.786 265.749L563.558 266.432L563.255 266.888L563.331 267.267L563.786 267.495L563.71 268.255L563.938 268.938L564.242 270.229L564.09 270.761L564.166 271.444L563.938 271.9L564.014 272.204L564.925 272.735L565.456 272.963L565.077 273.419V274.026L564.621 274.786L564.545 275.697L564.925 276.153V276.532L565.38 277.216L566.823 278.507L567.658 279.646L568.037 281.089L567.658 281.773V282.456L567.05 282.836L566.671 283.519L566.595 284.127L566.367 284.355L566.215 284.81L565.912 285.19L565.76 285.797L565.456 285.873L564.773 285.57L564.014 286.253L563.255 287.468L563.179 287.924L562.951 288.076L562.42 289.139L562.192 289.291L561.888 289.822L562.192 290.278L562.571 291.493L563.027 291.873L563.862 292.329L564.014 292.784L563.862 293.468L564.09 293.999L564.242 294.227V294.607L564.545 295.366L565.001 296.126L565.153 297.113L564.925 297.417L564.697 298.1L564.393 299.315L564.166 301.442L564.393 302.277L564.318 302.885L564.621 304.555L564.773 305.543V306.834L564.697 307.821L564.925 308.96L562.875 309.188L562.04 309.264L560.977 309.643L560.142 311.01L559.611 311.618L559.155 311.846L558.7 312.605L558.092 312.909L557.713 312.757L556.574 312.605L556.346 313.441L555.587 313.365L554.221 312.757L553.234 312.529L552.247 312.605L551.26 312.757L551.184 312.909L550.728 313.213L549.666 313.441L548.299 313.289L547.616 312.681H546.629L546.021 312.909L545.49 312.681L545.035 312.909H544.351L543.668 312.681H543.061L541.694 312.909L540.783 313.441H540.252L539.493 313.137L538.582 313.592L537.671 313.82L537.139 313.668L535.621 313.744L534.254 314.428H533.875L533.343 314.352L532.812 314.504L532.356 314.124L531.825 313.896L531.673 313.517L531.142 313.061L531.294 312.681L531.066 312.529L530.534 311.77L530.231 311.846L529.927 312.225L530.079 312.909L529.927 313.365L529.699 313.517L529.168 313.213L528.788 313.365H528.105L527.801 312.833L527.27 313.744L527.498 313.972L527.422 314.2L527.118 314.276L526.814 314.58L526.435 315.263L526.359 315.795L525.828 315.871L525.6 316.175L525.068 316.25L524.765 316.782L524.461 316.934L524.005 316.782L522.487 316.934L521.804 317.162L520.817 317.693H520.589L519.83 318.301L519.754 318.757L519.526 319.364L519.451 319.972L519.223 320.124L519.147 320.579L518.843 320.807L518.615 321.415L518.767 321.87L518.236 322.554L518.084 323.313L517.78 323.389L518.008 323.617L518.236 324.148L518.312 324.908L518.388 324.984L518.54 325.515L518.767 325.743H519.147L519.678 326.123L519.906 326.655L520.286 326.882L520.058 327.794L519.451 328.098L519.602 328.857L519.451 329.085L519.754 329.313L519.602 329.54L519.754 329.692L519.223 330.072H518.767L518.995 330.452V330.831L518.615 330.68L518.767 331.287L518.464 331.819L518.236 331.743L517.932 332.122L518.16 332.578H518.464L518.388 333.338L518.54 334.021L518.995 334.553L519.071 335.312L518.843 337.211L518.54 340.476L518.388 341.16L517.932 341.084L517.401 340.476L516.718 340.096L516.034 339.945L515.275 339.869L514.212 340.021L514.44 340.476L514.136 340.552V340.096L513.681 340.172L512.77 340.324L510.948 341.084L510.644 341.16L510.265 341.843L509.961 342.83V343.286L508.518 344.653L507.911 345.185L507.152 346.627L507.076 347.463L507.38 348.526L507.228 349.134L507.304 349.969L507.532 350.652L507.607 351.64L507.835 352.019L507.683 352.475L508.063 353.462L507.911 353.842L507.987 354.374L508.518 355.285L508.974 355.817L509.278 356.576V357.108L509.429 357.487L509.733 357.563L510.189 358.095L510.416 358.171L510.796 359.386V359.842L510.948 360.297L511.479 360.525L512.011 361.892L512.922 362.424L513.833 362.196H514.44L515.123 362.727L515.958 362.5L515.882 362.272L516.49 361.892L516.262 362.727V363.259V364.17L515.806 365.841L514.971 366.752L514.06 368.271L513.529 369.41L512.998 370.17L512.39 370.853L511.859 371.157L510.872 371.309L509.05 371.461L508.594 372.144L508.139 372.676L507.835 372.6L506.772 371.613L506.393 370.777L505.71 370.018L505.254 369.182L504.723 368.347L504.115 367.967L503.812 367.512L503.128 367.284L502.749 366.828L502.217 365.461L501.534 365.082L501.306 364.322L501.003 363.942L500.395 363.639L500.016 363.031L500.168 362.424L499.56 361.208L499.332 360.981L498.573 360.525L498.27 360.069L498.042 358.93L497.814 358.854L496.827 359.31L496.296 359.386H495.764L495.613 359.69L495.537 360.221L495.233 360.373L494.398 360.297L494.094 360.449L493.715 360.981L493.259 361.74L493.107 362.727L492.955 363.107L492.272 363.715L492.348 364.246L492.576 364.93L492.348 365.309L492.272 365.993L492.424 366.449L492.044 366.98L491.893 367.056L491.741 367.512L491.437 367.891L491.665 368.043L491.285 368.499L491.665 368.575L491.437 368.955H490.982L489.311 370.853L489.463 371.157L488.932 371.309L488.476 371.84L487.034 374.422L486.578 374.802L486.427 375.106L485.592 375.638L480.657 379.283L480.277 379.359L479.67 379.283L479.29 379.511L478.987 379.055L477.62 378.979L477.241 378.827L476.937 378.447L476.481 378.144L476.254 377.764L474.735 375.865L474.508 375.258H473.597L471.319 375.41L469.193 375.486L466.081 376.017L464.335 376.321L462.133 376.701L461.298 377.156L460.615 377.308L460.235 377.232L459.248 377.536L458.413 377.84L457.806 377.916L456.895 378.599L456.363 378.523L455.984 378.22L455.604 378.371L453.706 378.523L453.099 379.207L452.492 379.359L451.884 378.827L451.201 378.371L450.897 378.144L450.062 378.22L449.379 377.916L449.227 378.22L448.013 378.903L447.557 378.523L447.026 378.599L445.963 378.827L445.431 378.751L445.204 378.068H444.9L444.065 378.296L443.382 378.675L442.471 378.751L441.863 378.675L441.56 378.523L441.18 377.612L440.725 377.156L440.269 376.777L439.51 376.473L438.599 375.789L438.523 375.486L438.675 374.498L438.903 374.043L439.282 373.663L438.295 373.283H437.308L436.321 373.739L436.094 374.347L435.638 374.878L434.727 374.65H433.892L433.664 374.195L433.285 373.891L432.753 373.663L432.222 373.207L431.159 373.283L430.855 373.815L430.628 373.967L429.944 374.878L428.654 374.195L427.591 373.967L426.908 373.891L426.68 374.043L426.756 374.498L425.845 374.574L425.769 375.258L425.465 375.562L425.01 375.258L424.706 375.334L423.871 376.017H423.34L423.112 376.473L423.34 376.777V377.384L423.567 378.068L423.491 378.296L422.504 378.22L421.973 377.916V377.308L421.745 377.005L421.518 376.169L421.973 374.878L421.669 374.347L421.442 372.6L421.062 372.22L420.607 371.537L420.455 370.777L420.531 370.322L421.062 369.41L420.834 369.334L419.62 369.79L418.785 370.625H418.101L417.722 370.853L417.038 370.929L416.811 370.777L416.355 370.17L415.672 369.638L415.216 369.41L414.305 369.182L412.559 368.347L411.572 368.271L410.965 368.499L410.054 367.891L409.826 366.98L409.902 366.449L409.75 365.993L409.447 365.765L408.536 365.461H407.625L407.397 365.385L407.169 364.93L406.866 364.854L406.334 365.006L405.575 364.854L405.044 365.082L404.664 365.006L403.905 365.385L403.601 364.854L403.07 364.93L402.007 365.765H401.475L401.02 365.309L400.64 365.158L399.957 365.082L399.198 365.309L398.591 365.158L397.224 364.246L396.769 363.639L395.25 364.702L394.643 365.461L394.567 366.145L394.415 366.221L393.808 366.145H393.2L391.606 365.993L390.24 366.373L389.784 366.524L389.177 366.98L388.494 367.132L387.507 367.284L386.672 367.815L386.52 368.423L386.216 369.182L385.457 369.866L385.077 370.625L385.001 371.309L384.47 372.068L383.407 372.752L382.952 373.359L382.724 374.347L382.344 374.878L382.117 375.638L381.889 376.093L381.585 376.245L380.902 376.549L379.915 377.08H379.156L378.548 376.777L377.941 376.929L377.789 377.384L377.334 377.536L376.727 377.005L375.512 376.549L374.525 375.106L373.538 374.271L372.779 373.967L372.096 373.891L371.336 373.587L370.805 373.056H370.198L369.514 373.511L368.755 373.131L368.224 373.207L367.768 372.524L367.465 371.84L367.085 371.537L366.478 371.385L366.174 371.081L366.326 370.701L366.705 370.018L366.63 369.41L366.478 369.031L366.098 368.803L365.87 368.423L365.035 367.815L364.732 367.967L363.897 367.815L363.669 367.664L363.213 366.904L362.834 366.449H362.454L362.378 368.423L362.302 368.879L361.695 369.638L361.012 370.17L360.556 370.322H359.114L358.962 371.157L358.279 371.385L358.127 371.689L357.975 372.524L357.519 372.752L356.305 373.131L355.622 373.815L355.242 374.65L354.786 374.726L354.103 374.65L353.648 374.802H353.116L351.902 374.954L351.218 375.258H350.611L350.08 375.41L349.245 376.245H348.03L347.347 376.321L346.587 376.777L345.676 376.093H344.841L343.779 376.321L343.551 376.245L343.247 375.562H342.943L342.412 375.941L342.032 376.777L341.501 377.688L340.742 378.068L339.983 379.283H339.527L339.072 379.511L338.464 379.435L338.085 379.814L337.933 380.802L337.629 381.257L336.946 381.181L336.566 381.333L335.428 381.941L334.365 382.624L333.454 383.156L333.302 383.308L332.922 384.295L332.619 384.447L331.556 385.586L330.873 386.042L330.265 386.345L328.671 386.649L328.443 387.029V387.485L328.823 388.472V388.852L328.367 389.079L328.595 389.535L328.519 390.143L327.76 391.282L327.684 392.649L327.153 393.408L327.077 393.712L327.988 394.699L328.291 395.61L328.367 396.598V397.281L328.443 397.889L329.354 399.256L328.671 399.484L328.291 400.243L328.064 400.623L327.684 400.775L326.697 401.838L326.469 401.914L326.242 401.686L325.938 402.293L325.331 402.597L324.116 402.217L323.205 402.293L322.749 401.914L322.218 401.99L322.142 403.129L322.522 404.116L322.598 404.724L322.674 405.863L322.522 406.015L321.763 405.863L321.079 406.242L320.244 406.47L320.396 406.926V407.458L319.485 407.837L318.726 407.685L318.422 407.761L317.739 408.369L317.283 408.521L317.132 409.204L317.056 409.356L315.917 409.888L315.006 411.483L314.55 412.166L314.93 413.077L314.854 413.533L314.626 414.141L314.55 414.596L313.867 415.507L313.26 415.887H312.349L310.906 416.267L310.299 417.102L309.768 417.33L309.464 417.71L308.325 417.862L307.87 418.241L307.262 418.393L306.731 419.077L306.503 419.456L306.124 419.836L305.44 420.14L305.137 420.672L303.998 421.735L303.922 422.57L304.074 423.026V424.089V424.924L303.922 425.456L303.998 426.671L304.453 427.127L304.985 428.342L304.833 429.177L304.453 429.785V430.088L304.757 430.696L304.302 431L303.922 431.531L303.011 431.683L302.404 432.291L301.493 433.278L301.417 434.189L301.189 434.569L300.734 434.721L300.05 435.404L298.608 435.177L298.001 435.253L297.545 435.48H296.71L296.178 435.404L295.723 435.556L295.419 435.936L294.281 436.392L293.37 436.316L293.294 435.784L292.003 434.949L290.712 434.873L290.029 434.569H289.726L289.042 434.873L288.359 434.949L287.676 434.113L287.068 433.658L286.689 433.278L285.778 432.67L284.791 432.443L284.108 431.987H283.728L283.349 431.379L282.969 431.076L282.438 431L282.134 431.076L281.375 431.759L280.464 431.455L279.097 431.911L278.642 431.607L277.807 431.987L277.655 432.367L277.427 433.81L277.199 434.037L276.592 434.265L276.136 434.949L275.301 435.784L274.77 436.468L274.314 437.455V437.835L273.859 438.594V439.05L274.163 439.581L274.77 439.809L274.466 440.796L274.618 441.176L275.074 441.784L275.149 442.619L275.074 443.834L274.922 444.138L274.466 444.214L274.163 443.986L272.72 444.062L272.113 443.986L270.822 443.606L269.911 443.454L269.076 443.758L268.393 444.442H267.71L267.406 444.745L266.723 444.897L266.495 445.277L266.343 446.112L266.039 446.948L265.584 447.251L265.053 447.403L264.749 447.251H263.686L263.079 447.783L262.32 448.694L262.092 448.846L262.016 449.378L261.181 449.758H260.801L260.497 449.454L259.814 449.758L259.662 450.289L259.283 450.745L259.131 451.656L258.827 452.34L258.068 453.479L257.613 453.858L257.157 453.934L257.081 453.707L256.17 453.099L255.563 453.023L255.183 453.251H254.652L253.361 453.479L252.982 453.858L252.374 453.934L252.071 453.783L251.463 453.858L251.236 453.327L251.387 452.795L251.008 451.276L250.78 450.745L250.401 450.441L249.945 450.365L248.958 449.682L248.351 449.53L247.743 448.922L247.516 448.239V447.631L247.288 447.1L246.908 446.796L246.453 446.264H246.301L245.694 445.657L245.542 445.277L245.162 444.821L243.948 442.923L244.099 442.163L243.796 441.632L243.264 441.556L242.733 441.404L242.277 440.872L241.291 441.176L240.759 441.404L234.458 440.265L233.699 440.493L230.89 441.252L228.612 441.86L226.639 440.72L223.374 438.898L220.641 438.746L218.895 438.67H217.984L216.314 440.265L214.644 441.708L209.329 446.644L206.52 449.226L205.913 449.682L205.837 449.985L205.23 450.213L204.926 450.517L204.319 450.365L203.939 450.593H203.332L202.573 451.049L202.193 451.352L201.662 451.656L200.751 451.808L200.219 452.112L199.764 452.036L199.232 452.34L198.17 452.567H197.942L197.486 453.023L197.335 452.947L196.955 453.403L196.499 453.479L195.968 453.858L195.892 454.162L195.513 454.466L194.981 454.238L194.677 453.783H194.07L193.842 453.631L193.007 453.707L192.172 454.01L190.806 454.086L189.971 454.01L189.211 454.162L188.452 454.39L187.238 454.542L186.554 454.39L186.023 454.162L185.719 454.238L184.96 454.314L184.125 454.77L183.821 455.15L182.986 455.681H182.607L181.772 455.15L181.012 454.998L180.785 454.542L180.633 453.631L179.95 453.175L179.418 452.112L178.811 451.504L177.52 451.049L176.457 450.517L175.319 450.213L174.18 450.137L173.648 449.53L173.117 449.226L171.902 448.77L170.839 448.694L169.928 449.074L169.625 449.378L168.942 450.137L168.031 450.745L167.044 450.821L166.512 450.973L164.994 451.125L164.159 451.352L163.703 452.188L163.096 452.643L162.716 453.023V453.555L162.109 454.086L161.198 454.466L160.743 454.618L160.135 455.529L159.907 456.061L159.604 456.441L158.921 456.668H158.465L157.63 456.592L157.099 456.972L156.491 457.276L155.808 457.124L155.049 457.352L154.29 457.276L153.834 457.124L152.695 457.352L152.543 457.504L151.708 457.58H151.101L151.025 457.2L150.721 456.365L151.025 455.453V455.15L150.721 454.618V454.01L150.342 453.403L149.507 452.567L148.368 450.669L147.685 449.909L147.305 449.454L147.077 448.846L146.85 448.694L146.091 447.1L145.483 446.416L145.18 445.884L145.104 445.429L145.18 444.821L145.331 443.986L145.711 443.53L146.091 442.923L146.318 442.239L146.47 441.328L146.318 440.644L145.711 439.657L145.104 438.898L144.42 438.29L143.13 437.455L142.371 436.923L141.991 436.392L141.763 435.556L141.611 434.569V433.961L141.915 433.734L141.763 433.354L141.991 433.278L141.915 431.531L141.763 430.392L141.46 429.253L141.004 428.646L140.017 427.582L139.865 426.519L139.41 425.38V424.772L139.334 424.165L138.802 423.481L137.891 422.798L137.056 422.418L136.753 422.114L135.766 420.52L135.386 419.608L135.234 418.545L135.007 418.09L134.475 417.482V417.254L133.488 416.571L132.046 416.039L131.287 415.963L130.528 415.659L129.617 415.583H128.933L127.491 415.811L126.58 415.659L126.124 415.507L125.745 415.128L125.365 414.976L123.012 414.292L122.177 414.141L121.266 413.837L120.279 413.305L120.203 413.077L119.216 412.47L118.609 412.394L118.077 412.47L117.014 412.166L116.483 412.242L116.179 411.71H115.116L114.737 412.014L114.054 411.938V411.786L112.915 412.09L112.08 412.622L112.004 412.849L111.169 413.305L110.789 413.685L110.182 414.52L109.954 415.28L109.574 416.115L107.98 417.558L107.069 418.621L106.841 419.077L106.462 419.456L106.006 420.14L105.779 420.975L105.171 422.19L105.095 422.646L104.868 423.405L104.564 423.633L103.653 424.545L102.742 425.076L102.362 425.532L102.059 426.823L101.755 427.354L102.059 428.114L102.59 429.101L102.818 429.785L103.957 431L104.792 431.683L105.855 432.443L106.386 432.67L107.677 433.278L108.891 433.658L110.03 433.582L110.182 433.43L110.789 433.354L111.624 433.05H112.004L112.383 433.278L112.611 433.658L113.218 434.189L113.446 434.569L114.205 435.48L115.04 436.088L115.116 436.392L115.724 436.847L116.331 437.075L117.09 437.683L117.242 437.911L117.622 438.138L118.912 438.214L119.595 438.594L120.051 439.126L120.658 439.277H122.025L122.48 439.657L123.24 440.113L122.177 440.493L121.569 440.872L121.038 441.404L120.962 442.011L121.266 442.543L121.569 443.151V443.682L121.266 444.669V445.429L121.038 446.036L119.899 446.872L119.52 447.024L119.595 445.733L119.823 444.897L119.747 444.518L118.912 443.53V443.302L118.533 443.075L118.077 442.467L117.622 440.872L117.318 440.493H116.103L115.572 440.265L114.965 439.202V438.822L114.357 438.594L113.674 438.062L113.294 437.759L112.991 437.151H112.232L111.624 437.531L111.396 436.999L111.321 436.544L110.41 436.695L109.65 436.619L108.891 437.075V437.455L108.663 437.531L106.993 436.923L106.462 436.847H105.551L105.171 437.835L104.64 437.986L104.792 438.67L104.488 438.746H103.425L102.59 438.67V438.442L101.983 438.366L101.831 438.594L101.603 438.29L100.768 437.607L99.8571 436.619L98.7942 436.392L96.213 435.253L94.9984 434.645L93.7078 434.189L92.7209 433.734L91.5821 433.126L90.5193 432.67L88.7732 434.645L88.2418 435.708L87.7862 436.619L85.8883 440.113V440.644L86.0402 441.252L85.7365 442.087L85.5087 442.543L85.2051 442.771L83.2312 443.986L83.0035 444.062H81.7129L80.0427 444.442L79.0558 443.986L78.828 443.606L77.3097 443.075H76.3987L75.5636 442.847L75.0322 443.227L74.4249 442.923L74.1971 442.467L71.6918 442.923L71.4641 442.999L70.629 443.075L69.1866 442.391L67.9719 441.935L65.4666 440.872L64.6316 440.417L64.4797 440.569L64.6316 440.341L65.6185 440.113L66.2258 439.885L66.5295 439.581L67.2887 439.277L68.0478 437.911L68.6552 437.531L69.4143 437.227L70.0976 436.619L70.4012 436.771L71.3123 436.999L72.3751 436.771L73.2861 436.468L74.3489 436.012L74.5767 435.708L74.7285 435.025L75.2599 434.189L75.4118 433.202L75.184 433.05L75.0322 432.367L74.7285 431.759L74.5008 431.076L74.3489 430.164L74.0453 429.253L74.1212 428.114L74.5008 427.051L74.8804 426.671L74.8044 426.139L76.095 425.38L76.5505 424.241L76.7783 424.089L76.8542 423.405L76.5505 422.722L76.6264 422.342L77.006 421.659L77.6134 421.279L77.6893 420.975L78.0689 420.672V420.52L78.7521 419.38L78.9799 418.469L79.4354 418.241L79.6631 417.938V417.33L79.739 416.874L79.5872 416.723L79.739 416.343L79.5113 415.887L79.0558 415.659L78.904 415.356L79.3595 414.596L79.5113 414.748L80.1186 414.368L80.4982 413.989L80.8019 413.305L80.8778 412.166L81.0296 411.407L81.1815 411.255V410.495L81.8647 409.584L82.0166 409.128L81.8647 408.293L81.4092 407.002L81.1055 406.318L81.0296 404.951L80.8019 404.192L80.726 403.433L80.8778 402.825V402.217L80.65 401.686V401.078L80.0427 400.015L80.1186 398.724V397.737L79.9668 397.357V395.99L80.0427 395.61L79.9668 394.775L79.6631 394.244L79.5113 392.877L79.5872 392.573L79.9668 392.421L80.1186 391.965L79.8909 391.13L79.5113 390.446L78.828 389.535L78.9799 388.776L78.904 388.244L79.2076 387.561L79.6631 387.181V386.801L80.5741 385.434L80.8019 384.523L81.2574 383.612V383.156L81.4851 382.624L80.726 381.637L80.1945 381.105L79.4354 380.878L79.2835 381.029L78.7521 380.954L77.917 381.333L77.3856 381.181L77.2338 381.257L77.0819 380.878L77.1579 380.574L76.9301 380.118L77.0819 379.738L77.006 379.359L76.095 378.751L74.8044 378.22L74.4249 378.144L73.7416 378.22L73.1343 377.992L73.0583 376.473L72.6028 375.714L72.1473 375.106L71.6159 374.65L70.5531 373.891L70.3253 373.587L70.4772 373.207L70.1735 372.904L69.9457 372.22L69.4143 371.233L69.718 370.625L69.4143 369.714L69.3384 369.107L68.7311 367.967L68.5033 367.512L67.5164 366.145L66.6813 365.537L65.3148 365.006L63.341 364.322L61.8985 364.094L59.1655 363.715L58.1786 363.639L57.799 363.715L57.2676 363.411L55.8252 363.259L54.9901 363.031L53.5477 362.955H52.6367L52.4089 362.5H51.9534L51.2702 362.955L50.7387 363.031L50.5869 363.183L49.7518 363.335L48.0057 363.866L47.4743 364.246L46.9429 365.006L46.791 365.461L46.4874 366.752V367.588L46.3355 367.967L46.5633 368.347L46.4874 369.486L46.3355 369.866L46.5633 370.398L46.4874 370.929L46.2596 371.309L45.8041 372.372L45.956 372.524L45.6523 373.131L45.2727 373.435L45.045 374.043L44.3617 374.498L44.2099 374.802L43.9821 375.562L43.9062 376.245L44.2858 376.701L43.9062 378.22L43.5266 379.055L43.4507 379.663L43.3748 379.814L43.147 380.726L42.8434 381.181L42.5397 382.093L42.7674 383.991L42.9952 384.523L42.9193 385.13L42.4638 386.801L42.5397 387.485L42.3119 388.472L39.1234 387.788H38.592L38.1365 387.561L37.2255 387.485L35.4794 387.181L34.037 386.877L33.8092 386.042L33.4297 384.523L33.126 383.915L32.7464 383.232L31.7595 382.169L31.0762 380.878L31.0003 380.422L31.1521 380.042L31.6836 379.663L32.2909 378.979L32.5186 378.068L32.215 377.384L33.7333 376.853L34.2647 376.625L34.4166 376.245L34.1888 375.41L34.037 374.65L33.5056 374.195L33.8092 373.511L32.9741 373.056L32.8982 372.904L32.9741 372.372L32.6705 371.613L32.215 371.081L31.9113 370.398L31.4558 370.473L31.0003 369.258L30.9244 368.423L31.1521 368.195L31.0762 367.664L30.2411 366.524L29.7097 366.221L29.482 365.613L28.7228 364.398L28.495 364.17L28.1155 363.563L27.8877 362.879L27.3563 362.272L26.749 360.905L26.0657 360.373L25.762 359.993L25.9898 359.386V357.639L25.762 357.259V356.728L25.0788 356.576L24.9269 357.032L25.0029 357.563L24.4714 357.411L23.8641 357.032L23.5604 356.728L23.1809 356.652L23.029 356.272L22.4217 355.665L21.9662 355.741V356.12L21.7384 356.272L21.207 356.196L20.9793 355.513L20.4478 355.209L20.3719 354.981H20.0683L19.7646 354.222L19.6128 353.159L19.7646 352.779L19.6887 352.323L19.7646 351.564L19.6128 351.26L19.2332 351.108L18.9295 349.969L17.7907 349.058L17.7148 347.919L17.4112 347.235V346.855L17.0316 346.4H16.652L16.4242 345.792L16.1206 345.564L15.9687 344.957L16.3483 344.501L16.1965 343.59L16.3483 343.362L16.1965 343.134L16.1206 342.451L16.5761 342.375L16.8797 341.767L17.2593 341.387L17.4112 341.008L16.8797 340.324L16.8038 339.945L16.1206 338.805L15.8169 338.198L15.741 337.742L16.0447 336.831L15.6651 336.451L15.5891 336.147L15.2855 335.92V335.388L15.4373 334.325L15.2855 334.097V333.338L14.9818 332.654V331.819L15.1336 330.983L15.8169 329.92L15.741 329.464L15.8169 328.705L15.5132 328.629L14.6781 327.946L14.5263 327.11L14.2226 326.503L14.2986 325.515L14.5263 325.212L14.6781 324.3L14.2226 323.921L13.9949 323.617L14.2226 323.009V322.402L13.9949 321.491L12.7043 319.516L12.4006 318.681L12.097 318.301L12.4766 317.845V316.934L12.021 316.554L11.4137 316.25L10.5786 315.111L11.0341 314.959L11.186 314.58L11.8692 314.124L12.097 313.517L11.8692 313.137V311.998L12.021 311.01L12.5525 310.859L13.0839 311.086L13.5394 311.314L13.8431 311.694L14.9818 312.529L15.6651 313.517L15.9687 313.896L16.3483 313.972L16.9557 313.744L17.4871 312.681L18.3222 311.846L18.5499 311.542L18.474 310.707L18.5499 309.036L18.6258 308.808L19.6887 307.973L20.5238 307.745L20.9793 307.289L20.7515 306.454L20.8274 306.15L21.5866 305.011L21.8903 304.479L22.4976 304.176L22.7253 303.34L23.4845 303.036L24.0919 301.973L24.2437 301.594L24.1678 301.062L23.7123 300.834L22.8772 299.923L22.9531 299.619L23.5604 299.087L23.7123 298.784L23.7882 297.796L24.3196 297.037L24.2437 296.05L24.7751 294.835L24.9269 294.683L25.9139 294.531L26.2175 293.999V293.468L25.762 291.493L25.3824 290.354L25.3065 289.974L23.1809 288.455L22.6494 288.076L21.7384 287.468L21.1311 286.937L21.5107 286.177L21.6625 285.266L21.5866 284.81L21.4348 284.431L21.0552 284.127L20.3719 284.355L19.7646 284.279H19.0054L18.3222 284.127L17.8667 283.519H17.3352L16.5761 283.899L16.1206 283.823L15.5891 283.899L15.1336 283.064L14.7541 282.684L14.2226 281.773L14.2986 281.089L15.3614 280.178L15.2096 279.57L14.83 278.963L14.3745 278.431L14.1467 277.596L13.7671 276.988L13.4635 276.229L13.3116 275.545L13.0839 275.393L13.008 274.938L13.1598 274.482L13.008 273.874L13.3116 272.811L12.9321 271.9L12.8561 271.444L12.2488 270.457L12.1729 269.622L11.7933 269.394L11.8692 268.938L11.7174 268.786L11.4137 268.027L11.186 268.103L11.3378 267.647H11.0341L10.199 267.267L9.66762 267.116L9.28804 267.192L8.6807 266.964L8.37703 266.508L8.30111 265.976L7.99745 265.673L7.61786 265.597L6.93461 266.356L6.4791 266.28L6.09952 266.356L5.79585 266.204L5.5681 265.901H5.34035L5.5681 265.293L5.94769 264.609L6.55502 264.078L7.39011 262.939L6.63094 262.635L6.09952 262.331H5.79585L4.96076 262.863L3.82201 262.331L3.67017 261.952L3.29059 261.876L2.4555 261.192L2.22775 260.736L2 259.597L2.15183 258.61L2.75917 257.623L2.98692 257.547L3.21467 257.167L3.74609 256.787L3.82201 256.408H5.41627L6.25135 256.028L6.40319 255.724L6.25135 255.345L6.32727 254.965L6.25135 254.661L5.5681 254.205L5.64402 253.446L5.49218 253.066L5.18852 252.914L4.58118 252.383L3.89793 251.395L4.12568 251.168L3.67017 250.94V251.395L3.21467 250.408L2.911 249.953L2.75917 249.193L2.911 248.737L2.83509 248.51L3.29059 248.662L3.89793 248.282L4.88485 247.902L5.03668 247.75L6.17544 247.598L7.01052 247.75H7.61786L7.76969 247.522L8.14928 247.75L9.21212 247.371L9.74354 247.598L10.1231 247.446L10.8064 246.839H11.7933L13.0839 246.307L14.4504 245.928L15.8169 246.004L16.4242 246.231H16.7279L17.563 245.548L18.0944 245.472L18.6258 244.637L19.1572 244.181L19.6887 243.877L20.6756 243.194L21.5107 242.434L21.9662 241.751L22.9531 241.903L23.4845 241.675L23.94 240.991L24.7751 240.915L25.4584 240.612Z" fill="url(#paint0_radial_19_280)" stroke="white" stroke-width="3"/>
<path fill-rule="evenodd" clip-rule="evenodd" d="M172.182 81.5879L172.561 82.4232L173.093 83.2586V83.6383L173.624 84.094L173.928 84.2458L173.852 84.4737L174.232 84.9293L174.308 85.5369L174.156 85.9925L174.383 86.7519L174.839 86.1444L175.37 86.0685L175.598 85.6888L175.902 85.7647L176.433 85.385L176.889 85.309L176.813 86.2204L177.42 86.2963L178.103 86.676L179.394 86.7519L179.622 86.9798L180.76 87.1317L181.899 86.8279L182.203 86.676L184.101 86.5241L184.708 86.3722L185.543 85.9925L186.302 85.2331L186.834 84.8534L187.062 84.4737L187.441 84.5496L187.593 84.2458L187.897 84.3218L189.187 83.5624L189.795 83.2586L190.25 82.8029L190.022 82.4992L190.25 82.3473L190.098 82.1954L190.706 81.6638L190.554 81.2081L191.161 80.9803L191.768 82.1954L192.3 82.8789L192.528 83.0308V83.4105L193.059 83.1067L193.666 82.9548L195.109 82.727L195.64 82.4992L196.096 82.5751L196.551 82.3473L196.323 82.1195L196.02 81.436L195.261 80.6765L195.033 80.1449L195.488 79.5374L195.185 78.778L194.881 78.4742H194.577L194.35 78.1704V77.411L194.046 76.9554L194.122 76.4997L193.97 76.2719L193.135 75.3606L192.755 74.6011L193.211 74.4492L192.907 73.7658L192.224 73.1582L192.528 72.7026L192.3 72.3229L193.287 71.6394L193.515 71.7153L194.122 71.2597L193.97 70.8799L194.046 70.0446L194.501 69.3611L195.261 68.4498L195.488 67.5385L196.323 66.779L196.551 66.2474L196.399 65.9437L195.944 65.4121L195.716 63.7413L196.323 63.2857L195.792 62.7541L196.399 62.4503H196.779L196.931 61.9947H197.386L198.221 60.9315L198.07 60.5518L198.373 60.0961L198.449 59.4886H198.753L199.056 59.0329V58.4254L199.436 58.1216L199.74 57.3622L199.588 56.6787L199.056 55.9952L198.753 54.932L198.829 54.3245L198.981 53.8688L199.36 53.4132V53.1094L199.816 53.0334L199.664 52.35L199.967 52.5018L200.271 53.3372L200.727 53.2613L201.106 52.5018L201.865 52.1221L202.625 52.0462L202.776 51.5905L203.232 51.2108L203.612 50.1476L203.839 50.2236L203.763 49.4641L204.219 49.0844L204.371 48.5528L204.902 48.0972L205.509 47.7934L206.345 48.0212L206.572 48.1731L206.876 48.0212L207.028 47.6415L207.863 47.1859L207.787 46.6543L207.407 46.2745L207.939 45.8948L208.167 45.3632L208.546 45.2114L208.318 44.4519L208.622 43.6925L209.002 43.3887L209.078 43.085L209.533 43.3128L209.913 42.8571L210.672 42.4774L210.596 42.2496L210.975 42.0218L210.52 41.718L210.14 41.2623L210.368 40.8067L210.672 40.8826V40.6548L211.127 40.427L211.507 40.8826L212.114 40.8067V40.5029L213.329 40.1232L213.481 40.2751L213.708 39.8194L214.392 39.6675L214.771 39.8954L214.999 40.427L215.606 40.1991L216.214 40.351L216.593 40.6548L216.669 41.0345L217.201 41.2623L217.732 41.1864V40.8826L217.884 40.6548L218.188 41.0345L218.339 40.8826L218.643 41.3383L218.491 41.4142L218.643 41.718H219.099L219.023 42.1736L219.63 42.5534L220.237 43.6166L221.452 43.2368H222.059L222.211 42.9331L223.122 42.6293L223.502 43.009L223.881 42.9331L224.261 43.3887L224.641 43.4647L225.931 42.8571L226.083 42.6293L227.07 43.009L227.601 42.7052L227.829 43.009L228.285 43.5406L228.588 43.3128H229.423L229.651 43.009H229.955V43.6925L230.107 43.9203L231.018 44.6798L231.777 45.0595L232.232 45.667L233.902 47.2618L234.358 47.4137L234.737 47.7175H235.269L235.573 47.4137H236.56L236.939 47.5656L237.546 48.2491L237.622 48.9325L237.85 49.692L238.154 49.9957L238.306 50.5273L239.065 51.3627L240.052 52.1981L240.659 52.5778L241.19 53.1853V53.4891L241.418 54.0966V54.6282L241.798 55.3117L241.57 55.8433L240.659 56.1471L240.583 58.2735L240.052 58.957V59.8683L240.659 60.8555V61.0834L240.204 60.9315L239.9 61.0074L239.672 61.6909V62.7541L238.913 63.4376L237.85 63.2857L237.319 63.7413L236.332 63.5895V64.2729L235.876 64.7286V65.3361L235.724 65.7159L235.269 65.8677L234.662 65.6399H233.675V65.8677L234.054 67.0069L234.13 67.6144L235.421 69.2852L236.028 69.7408L236.939 70.3484L237.319 71.0318L237.926 71.9431L238.154 73.0823L238.761 73.9176L238.837 75.1327L239.065 75.8162L239.293 76.8794L240.355 77.9426L240.735 78.9299L241.798 80.1449L242.557 81.36L243.088 82.8789L243.848 83.4864L245.29 84.6256L245.821 85.385L246.505 85.5369L246.884 85.9166L247.112 86.676V87.0557L246.96 87.5873L246.884 89.1062L246.96 89.4859L247.264 89.9415L247.795 90.4731V91.0047L247.643 91.4604L248.023 92.2198L248.175 91.7642L248.554 92.2958L249.389 92.7514L249.465 93.5108L249.693 93.9665L249.845 94.4221L250.452 94.7259L250.832 94.65L251.136 94.8778L251.515 94.9538L252.047 95.6372L252.198 96.1688L252.502 96.3207L253.261 96.3967L253.793 96.8523L254.248 96.7004L254.856 96.8523L255.691 97.308L255.842 97.6117L256.45 97.7636L256.526 98.0674L257.209 98.599L257.589 98.0674L257.892 97.8396L258.196 97.9155V97.6877L258.651 97.8396L258.727 97.6117H259.486L259.79 97.7636V98.5231L260.094 99.4344L260.701 99.0546L260.777 98.3712L261.157 97.9155L260.777 97.4599L260.929 96.7764L261.46 95.2575L261.612 95.0297L261.005 93.6627L260.322 92.5995L261.233 91.7642L261.157 91.2326L261.46 90.3972L262.371 90.4731L262.979 90.3213L264.269 91.0047L265.408 90.9288L265.56 91.8401L265.788 91.6882L266.015 92.3717L266.623 92.2958V92.0679L266.926 92.4476L267.078 92.2958L267.23 92.5236L267.837 92.5995L267.989 92.9792L268.217 92.5236L268.369 92.8274L268.672 92.9033L268.9 93.2071L268.672 93.4349L268.9 93.9665L268.824 94.1184L269.052 94.4221L268.596 95.1816L269.128 95.7891L269.052 95.941L268.065 96.7004L267.61 97.4599L268.141 98.5231L269.204 99.7381L269.583 100.573L270.343 101.257L270.494 101.561L271.254 100.877L271.633 101.105L272.316 100.346L273.455 100.725L273.379 101.029L273.987 101.409V102.32L274.29 102.472L274.214 103.763L274.063 104.295L274.746 104.523L275.809 105.13L276.188 105.206L276.492 104.75L277.327 104.978L278.769 104.902L279.149 104.826H279.756L280.591 105.13L281.123 105.662L281.502 105.586L281.73 106.725V107.484L281.502 108.472V109.307L281.351 109.914L280.667 111.281L280.364 111.737L279.453 112.8L279.377 113.18H279.604V113.712L280.136 114.623H280.591L281.199 114.851L281.654 115.154L282.945 115.306L283.856 115.154L284.387 115.686L285.07 115.914V116.142L285.45 116.37L285.678 116.218L286.209 117.357L286.817 117.205L287.348 117.737L287.576 118.116L287.348 118.724L287.652 119.103L287.955 119.179L287.879 119.635H288.487L288.866 120.015L289.398 120.243L289.55 120.167L289.626 120.47L290.005 120.926L289.55 121.761L289.853 122.217L290.385 122.293L290.764 122.901L291.827 122.597L292.434 122.825L292.662 122.673L293.497 122.521L293.953 122.141L294.636 121.837L294.788 121.686L295.547 121.837L296.003 121.306L296.989 120.698L298.204 120.47L298.432 120.622L298.963 120.47L299.571 120.167L300.102 119.711L300.709 119.559L301.165 119.255L301.848 119.179L302.531 119.407L302.835 119.179L303.063 119.407L303.139 119.787L303.594 121.458L303.518 122.141L303.67 123.128L303.974 123.508L304.202 123.28L304.429 123.584L304.885 123.66L305.264 124.04L305.492 124.495H305.72L306.403 124.799L307.086 124.951L307.466 125.407L307.542 125.711L308.225 126.09L308.453 126.47L308.529 126.85L308.377 127.153L308.453 127.989L308.073 128.52L307.997 128.9L307.694 129.508V130.571L307.618 131.482L307.162 132.014L306.707 132.849L306.631 133.533L305.948 134.596L305.644 135.279L305.568 135.887L305.796 136.57L305.948 137.482L306.1 137.709L306.175 138.393L305.948 138.621L306.024 139.456L305.568 139.684L305.113 139.532L304.809 139.304H304.277L303.518 139.228L303.139 139.304L302.607 139.228L302.152 139.38L301.772 139.152L301.469 139.228L301.393 139.532L301.089 139.988L300.709 140.443L300.406 140.367L299.191 140.975L298.811 141.051L298.052 141.582H297.521L297.217 142.19V142.418L296.838 142.798L296.686 143.557L296.458 143.937H296.154L295.699 144.24L294.712 143.937L294.408 144.165L293.801 143.709H292.966L292.738 143.405L292.434 144.24L291.599 144.696L291.296 145.228L291.523 146.671L291.979 146.974L292.207 150.24L292.359 150.468L292.283 151.759L292.814 151.835L293.421 153.126L293.194 153.505L292.814 153.809L292.359 154.417L292.055 154.645L291.675 155.708V156.239L290.916 156.695L290.309 157.53L289.701 158.062L289.626 159.049L288.79 159.657L289.094 160.948L288.866 161.555V162.163L289.094 162.998L289.17 164.062L289.094 164.821L289.398 165.884L289.55 167.327L289.398 168.466L288.942 168.542L288.563 169.453L288.259 169.681L287.728 169.909L287.044 169.757L286.209 169.302L285.602 169.377L285.07 168.998H284.691L284.159 168.466L283.78 167.099L282.793 166.188L282.186 164.973L281.654 164.365L280.819 164.213L280.591 165.504L280.288 165.656L279.832 165.277L279.225 165.428L278.466 166.036L278.39 166.644L278.086 167.479L277.631 168.086L277.555 168.466L277.251 168.77L276.112 169.302L275.201 169.529L275.277 168.922L275.581 168.39L276.34 167.859L276.947 167.251L277.099 166.795L276.568 165.96L276.188 165.201L275.733 164.745L275.429 164.821L274.974 165.353L274.442 165.504H273.835L273.531 165.428H272.696L272.241 165.732L271.937 166.644L271.481 166.72L270.57 166.492H270.343L269.659 167.099L269.204 167.023L268.672 166.644L268.293 166.188L268.141 165.353L267.685 164.821L267.002 164.517L266.926 164.897L266.471 165.428L266.395 166.188L266.471 166.568V167.251L266.547 167.403L266.395 168.314L265.939 169.529L266.395 169.909L267.078 171.732L267.458 173.099L267.534 174.693L268.141 175.757L267.306 176.44L266.699 177.2L266.167 177.883L265.56 178.415L265.332 179.25L264.877 179.782L264.421 181.604L264.497 182.136L263.966 183.579L262.979 184.186L262.144 184.794L261.764 185.629L261.992 186.465L261.612 187.3L260.322 187.528L259.714 187.376L258.727 187.832L257.285 188.743L256.298 189.502L255.159 189.882L254.172 190.414L253.413 189.806L253.185 188.667L252.73 188.135L251.971 187.528L249.693 187.907L248.099 187.832L247.188 187.983L244.91 188.591L242.557 188.971L243.012 187.832L242.329 186.009L241.039 184.718L241.19 185.705L240.963 185.933L238.989 185.629L238.382 185.477L237.319 185.553L236.332 186.237L236.104 187.072H234.965L233.143 187.452L231.929 186.996L230.182 186.541H230.031L226.007 188.287L225.476 189.199L225.172 190.414L224.868 193.679L223.578 196.793L223.502 196.869H222.059L221.983 196.945L220.997 199.982L220.845 200.058L218.719 200.818L215.075 204.083L212.722 199.83L212.57 198.995L212.418 198.843L211.431 198.767L210.672 198.16L209.913 197.856L209.381 196.945L208.926 195.578V194.439L208.242 193.983L207.407 193.223L206.8 193.072L204.902 193.527L203.536 194.211L202.093 195.426L201.334 195.806L199.816 194.59L198.981 193.527L198.145 192.844L197.766 192.084L195.716 190.793L195.185 189.806L194.046 188.591L192.604 188.287L190.933 187.68L190.554 187.148L190.402 185.249L189.871 183.427L188.049 181.604L187.213 180.161L186.986 179.098L185.543 177.579L184.632 175.301L183.114 173.251L182.203 170.669L182.051 168.77L181.596 168.238L180.685 168.086L180.229 167.935L179.849 167.479L179.166 167.403L178.863 167.555L178.331 167.175L177.876 166.188V165.504L177.724 164.441L177.8 164.062L177.648 163.682L177.724 162.922L177.876 162.543L177.8 161.328L177.344 160.34L177.572 159.733L177.8 158.594L178.027 157.986V157.379L178.559 156.391L178.787 155.708L178.635 154.493L178.483 154.265L178.635 153.354L178.863 152.822L179.014 151.759L178.787 150.696L178.559 150.24L178.103 149.86L177.724 149.708L177.041 149.025L176.357 149.177L175.75 148.721L175.37 148.341L174.535 147.962L174.004 147.81L173.397 147.582L172.941 147.506L172.789 147.278L173.093 146.898L172.789 146.671L171.575 146.291L170.891 145.759L169.904 145.304L169.525 145H169.145L168.69 144.696L167.779 143.937L167.475 143.861L166.792 142.798H166.488L165.729 142.038H165.273L164.59 141.203L164.135 140.823L164.894 139.988L165.729 139.304L166.412 138.925V138.545L166.033 137.861L165.729 136.722L165.425 136.039L165.501 135.735L165.881 135.355L166.26 134.596L165.425 133.912L165.501 133.609L165.805 133.457L165.881 133.077L166.26 133.153L166.412 132.925L166.184 132.697L166.033 132.318L165.653 131.938L165.805 131.71L166.64 131.254L166.033 131.178L165.501 130.647L165.653 130.115V129.735L166.26 128.748L166.64 127.761L166.716 127.229L166.488 126.774L166.564 126.014H166.792L166.944 125.635L166.564 125.179L166.412 124.571L166.64 124.116L166.488 123.812L166.564 122.825V121.913L166.944 121.458L167.551 121.23L167.779 121.306L168.158 121.002L167.855 120.926L167.551 121.154L166.64 121.078H165.805L165.197 120.319L164.514 120.015L164.135 119.559L163.755 119.711L163.3 119.559L163.375 119.407L163.072 118.724L162.161 117.964L161.705 116.977L161.174 116.294L160.263 115.762L159.58 115.079L159.504 113.939L158.669 112.117L158.289 111.585L158.137 111.13L159.731 109.611L160.035 109.383L161.098 108.851L162.009 107.94L162.389 107.332L163.072 106.725L163.603 105.889L164.362 104.447L163.831 103.763L163.451 103.611L162.996 103.08L162.844 102.32L162.54 101.713L162.692 101.105L162.389 100.953L161.857 100.27L162.161 99.966H162.768L163.072 99.2825L163.755 98.599L164.818 97.9155L165.122 97.5358L165.881 96.9283L167.171 96.3207L167.855 95.1816L168.614 94.574L168.234 94.4981L167.703 93.8906L168.158 92.6755L167.931 91.916H167.475L167.019 91.5363L167.171 90.8529L167.095 90.2453L166.716 90.1694L166.564 89.7897L166.488 89.334L166.26 88.4986V87.5114L166.033 87.3595L165.349 87.0557L165.501 86.8279L164.742 87.2836L164.438 87.7392L163.831 88.4227L163.679 89.1062L163.755 89.5618L162.92 89.7137L162.692 90.0934L162.085 90.3213L161.629 90.5491L161.553 90.8529L161.022 91.0807L160.415 91.1566L160.187 91.6882L160.035 91.7642L159.959 90.1694L160.187 89.4859L160.946 88.8024V88.2708L160.794 87.7392L160.87 87.1317L160.718 86.8279V85.7647L159.883 85.385L159.352 85.5369L159.124 85.385L159.731 84.7015L160.187 84.6256L160.87 84.9293L161.25 84.8534L161.705 84.4737L162.389 84.7015L163.224 84.094L164.059 84.018L164.438 83.7902H165.349V84.2458L166.184 84.094L166.944 84.018L167.703 84.094L168.614 83.2586L169.069 83.1067L170.891 82.8029L171.575 82.1195L172.106 81.8157L172.182 81.5879Z" fill="#E52A30"/>
<path d="M280.819 164.213L281.654 164.365L282.186 164.973L282.793 166.188L283.78 167.099L284.159 168.466L284.691 168.998H285.07L285.602 169.377L286.209 169.302L287.044 169.757L287.728 169.909L288.259 169.681L288.563 169.453L288.942 168.542L289.398 168.466L289.55 167.327L289.398 165.884L289.094 164.821L289.17 164.062L289.094 162.998L288.866 162.163V161.555L289.094 160.948L288.79 159.657L289.626 159.049L289.701 158.062L290.309 157.53L290.916 156.695L291.675 156.239V155.708L292.055 154.645L292.359 154.417L292.814 153.809L293.194 153.505L293.421 153.126L292.814 151.835L292.283 151.759L292.359 150.468L292.207 150.24L291.979 146.974L291.523 146.671L291.296 145.228L291.599 144.696L292.434 144.24L292.738 143.405L292.966 143.709H293.801L294.408 144.165L294.712 143.937L295.699 144.24L296.154 143.937H296.458L296.686 143.557L296.838 142.798L297.217 142.418V142.19L297.521 141.583H298.052L298.811 141.051L299.191 140.975L300.406 140.367L300.709 140.443L301.089 139.988L301.393 139.532L301.469 139.228L301.772 139.152L302.152 139.38L302.607 139.228L303.139 139.304L303.518 139.228L304.278 139.304H304.809L305.113 139.532L305.568 139.684L306.024 139.456L305.948 138.621L306.175 138.393L306.1 137.709L305.948 137.482L305.796 136.57L305.568 135.887L305.644 135.279L305.948 134.596L306.631 133.533L306.707 132.849L307.162 132.014L307.618 131.482L307.694 130.571V129.508L307.997 128.9L308.073 128.52L308.453 127.989L308.377 127.153L308.529 126.85L308.453 126.47L308.225 126.09L307.542 125.711L307.466 125.407L307.086 124.951L306.403 124.799L305.72 124.495H305.492L305.264 124.04L304.885 123.66L304.429 123.584L304.202 123.28L303.974 123.508L303.67 123.128L303.518 122.141L303.594 121.458L303.139 119.787L303.063 119.407L302.835 119.179L302.531 119.407L301.848 119.179L301.165 119.255L300.709 119.559L300.102 119.711L299.571 120.167L298.963 120.47L298.432 120.622L298.204 120.47L296.989 120.698L296.003 121.306L295.547 121.837L294.788 121.686L294.636 121.837L293.953 122.141L293.497 122.521L292.662 122.673L292.434 122.825L291.827 122.597L290.764 122.901L290.385 122.293L289.853 122.217L289.55 121.761L290.005 120.926L289.626 120.47L289.55 120.167L289.398 120.243L288.866 120.015L288.487 119.635H287.879L287.955 119.179L287.652 119.103L287.348 118.724L287.576 118.116L287.348 117.737L286.817 117.205L286.209 117.357L285.678 116.218L285.45 116.37L285.07 116.142V115.914L284.387 115.686L283.856 115.154L282.945 115.306L281.654 115.154L281.199 114.851L280.591 114.623H280.136L279.604 113.712V113.18H279.377L279.453 112.8L280.364 111.737L280.667 111.281L281.351 109.914L281.502 109.307V108.472L281.73 107.484V106.725L281.502 105.586L281.123 105.662L280.591 105.13L279.756 104.826H279.149L278.769 104.902L277.327 104.978L276.492 104.75L276.188 105.206L275.809 105.13L274.746 104.523L274.063 104.295L274.214 103.763L274.29 102.472L273.987 102.32V101.409L273.379 101.029L273.455 100.725L272.316 100.346L271.633 101.105L271.254 100.877L270.494 101.561L270.343 101.257L269.583 100.573L269.204 99.7381L268.141 98.5231L267.61 97.4599L268.065 96.7004L269.052 95.941L269.128 95.7891L268.596 95.1816L269.052 94.4222L268.824 94.1184L268.9 93.9665L268.672 93.4349L268.9 93.2071L268.672 92.9033L268.369 92.8274L268.217 92.5236L267.989 92.9792L267.837 92.5995L267.23 92.5236L267.078 92.2958L266.926 92.4476L266.623 92.0679V92.2958L266.015 92.3717L265.788 91.6882L265.56 91.8401L265.408 90.9288L264.269 91.0047L262.979 90.3212L262.371 90.4731L261.46 90.3972L261.157 91.2326L261.233 91.7642L260.322 92.5995L261.005 93.6627L261.612 95.0297L261.46 95.2575L260.929 96.7764L260.777 97.4599L261.157 97.9155L260.777 98.3712L260.701 99.0546L260.094 99.4344L259.79 98.5231V97.7636L259.486 97.6117H258.727L258.651 97.8396L258.196 97.6877V97.9155L257.892 97.8396L257.589 98.0674L257.209 98.599L256.526 98.0674L256.45 97.7636L255.842 97.6117L255.691 97.308L254.856 96.8523L254.248 96.7004L253.793 96.8523L253.261 96.3967L252.502 96.3207L252.198 96.1688L252.047 95.6372L251.515 94.9538L251.136 94.8778L250.832 94.65L250.452 94.7259L249.845 94.4222L249.693 93.9665L249.465 93.5108L249.389 92.7514L248.554 92.2958L248.175 91.7642L248.023 92.2198L247.643 91.4604L247.795 91.0047V90.4731L247.264 89.9415L246.96 89.4859L246.884 89.1062L246.96 87.5873L247.112 87.0557V86.676L246.884 85.9166L246.505 85.5369L245.821 85.385L245.29 84.6256L243.848 83.4864L243.088 82.8789L242.557 81.36L241.798 80.1449L240.735 78.9299L240.355 77.9426L239.293 76.8794L239.065 75.8162L238.837 75.1327L238.761 73.9177L238.154 73.0823L237.926 71.9431L237.319 71.0318L236.939 70.3484L236.028 69.7408L235.421 69.2852L234.13 67.6144L234.054 67.0069L233.675 65.8677V65.6399H234.662L235.269 65.8677L235.724 65.7159L235.876 65.3361V64.7286L236.332 64.2729V63.5895L237.319 63.7413L237.85 63.2857L238.913 63.4376L239.672 62.7541V61.6909L239.9 61.0074L240.204 60.9315L240.659 61.0834V60.8555L240.052 59.8683V58.957L240.583 58.2735L240.659 56.1471L241.57 55.8433L241.798 55.3117L241.418 54.6282V54.0966L241.19 53.4891V53.1853L240.659 52.5778L240.052 52.1981L239.065 51.3627L238.306 50.5273L238.154 49.9957L237.85 49.692L237.622 48.9325L237.546 48.2491L236.939 47.5656L236.56 47.4137H235.573L235.269 47.7175H234.737L234.358 47.4137L233.902 47.2618L232.232 45.667L231.777 45.0595L231.018 44.6798L230.107 43.9203L229.955 43.6925V43.009H229.651L229.423 43.3128H228.588L228.285 43.5406L227.829 43.009L227.601 42.7052L227.07 43.009L226.083 42.6293L225.931 42.8571L224.641 43.4647L224.261 43.3887L223.881 42.9331L223.502 43.009L223.122 42.6293L222.211 42.9331L222.059 43.2368H221.452L220.237 43.6166L219.63 42.5534L219.023 42.1736L219.099 41.718H218.643L218.491 41.4142L218.643 41.3383L218.339 40.8826L218.188 41.0345L217.884 40.6548L217.732 40.8826V41.1864L217.201 41.2623L216.669 41.0345L216.593 40.6548L216.214 40.351L215.606 40.1991L214.999 40.427L214.771 39.8954L214.392 39.6675L213.708 39.8194L213.481 40.2751L213.329 40.1232L212.114 40.5029V40.8067L211.507 40.8826L211.127 40.427L210.672 40.6548V40.8826L210.368 40.8067L210.14 41.2623L210.52 41.718L210.975 42.0218L210.596 42.2496L210.672 42.4774L209.913 42.8571L209.533 43.3128L209.078 43.085L209.002 43.3887L208.622 43.6925L208.318 44.4519L208.546 45.2114L208.167 45.3632L207.939 45.8948L207.407 46.2745L207.787 46.6543L207.863 47.1859L207.028 47.6415L206.876 48.0212L206.572 48.1731L206.345 48.0212L205.509 47.7934L204.902 48.0972L204.371 48.5528L204.219 49.0844L203.763 49.4641L203.839 50.2236L203.612 50.1476L203.232 51.2108L202.776 51.5905L202.625 52.0462L201.865 52.1221L201.106 52.5018L200.727 53.2613L200.271 53.3372L199.967 52.5018L199.664 52.35L199.816 53.0334L199.36 53.1094V53.4132L198.981 53.8688L198.829 54.3245L198.753 54.932L199.056 55.9952L199.588 56.6787L199.74 57.3622L199.436 58.1216L199.056 58.4254V59.0329L198.753 59.4886H198.449L198.373 60.0961L198.07 60.5518L198.221 60.9315L197.386 61.9947H196.931L196.779 62.4503H196.399L195.792 62.7541L196.323 63.2857L195.716 63.7413L195.944 65.4121L196.399 65.9437L196.551 66.2474L196.323 66.779L195.488 67.5385L195.261 68.4498L194.501 69.3611L194.046 70.0446L193.97 70.8799L194.122 71.2597L193.515 71.7153L193.287 71.6394L192.3 72.3229L192.528 72.7026L192.224 73.1582L192.907 73.7658L193.211 74.4492L192.755 74.6011L193.135 75.3606L193.97 76.2719L194.122 76.4997L194.046 76.9554L194.35 77.411V78.1704L194.577 78.4742H194.881L195.185 78.778L195.488 79.5374L195.033 80.1449L195.261 80.6765L196.02 81.436L196.323 82.1195L196.551 82.3473L196.096 82.5751L195.64 82.4992L195.109 82.727L193.666 82.9548L193.059 83.1067L192.528 83.4105V83.0308L192.3 82.8789L191.768 82.1954L191.161 80.9803L190.554 81.2081L190.706 81.6638L190.098 82.1954L190.25 82.3473L190.022 82.4992L190.25 82.8029L189.795 83.2586L189.187 83.5624L187.897 84.3218L187.593 84.2458L187.441 84.5496L187.062 84.4737L186.834 84.8534L186.302 85.2331L185.543 85.9925L184.708 86.3722L184.101 86.5241L182.203 86.676L181.899 86.8279L180.76 87.1317L179.622 86.9798L179.394 86.7519L178.103 86.676L177.42 86.2963L176.813 86.2204L176.889 85.309L176.433 85.385L175.902 85.7647L175.598 85.6888L175.37 86.0685L174.839 86.1444L174.383 86.7519L174.156 85.9925L174.308 85.5369L174.232 84.9293L173.852 84.4737L173.928 84.2458L173.624 84.094L173.093 83.6383V83.2586L172.561 82.4232L172.182 81.5879L172.106 81.8157L171.575 82.1195L170.891 82.8029L169.069 83.1067L168.614 83.2586L167.703 84.094L166.944 84.018L166.184 84.094L165.349 84.2458V83.7902H164.438L164.059 84.018L163.224 84.094L162.389 84.7015L161.705 84.4737L161.25 84.8534L160.87 84.9293L160.187 84.6256L159.731 84.7015L159.124 85.385L159.352 85.5369L159.883 85.385L160.718 85.7647V86.8279L160.87 87.1317L160.794 87.7392L160.946 88.2708V88.8024L160.187 89.4859L159.959 90.1694L160.035 91.7642L160.187 91.6882L160.415 91.1566L161.022 91.0807L161.553 90.8529L161.629 90.5491L162.085 90.3212L162.692 90.0934L162.92 89.7137L163.755 89.5618L163.679 89.1062L163.831 88.4227L164.438 87.7392L164.742 87.2835L165.501 86.8279L165.349 87.0557L166.033 87.3595L166.26 87.5114V88.4986L166.488 89.334L166.564 89.7897L166.716 90.1694L167.095 90.2453L167.171 90.8529L167.02 91.5363L167.475 91.916H167.931L168.158 92.6755L167.703 93.8906L168.234 94.4981L168.614 94.574L167.855 95.1816L167.171 96.3207L165.881 96.9283L165.122 97.5358L164.818 97.9155L163.755 98.599L163.072 99.2825L162.768 99.966H162.161L161.857 100.27L162.389 100.953L162.692 101.105L162.54 101.713L162.844 102.32L162.996 103.08L163.451 103.611L163.831 103.763L164.362 104.447L163.603 105.889L163.072 106.725L162.389 107.332L162.009 107.94L161.098 108.851L160.035 109.383L159.731 109.611L158.137 111.13L158.289 111.585L158.669 112.117L159.504 113.939L159.58 115.079L160.263 115.762L161.174 116.294L161.705 116.977L162.161 117.964L163.072 118.724L163.375 119.407L163.3 119.559L163.755 119.711L164.135 119.559L164.514 120.015L165.197 120.319L165.805 121.078H166.64L167.551 121.154L167.855 120.926L168.158 121.002L167.779 121.306L167.551 121.23L166.944 121.458L166.564 121.913V122.825L166.488 123.812L166.64 124.116L166.412 124.571L166.564 125.179L166.944 125.635L166.792 126.014H166.564L166.488 126.774L166.716 127.229L166.64 127.761L166.26 128.748L165.653 129.735V130.115L165.501 130.647L166.033 131.178L166.64 131.254L165.805 131.71L165.653 131.938L166.033 132.318L166.184 132.697L166.412 132.925L166.26 133.153L165.881 133.077L165.805 133.457L165.501 133.609L165.425 133.912L166.26 134.596L165.881 135.355L165.501 135.735L165.425 136.039L165.729 136.722L166.033 137.861L166.412 138.545V138.925L165.729 139.304L164.894 139.988L164.135 140.823L164.59 141.203L165.273 142.038H165.729L166.488 142.798H166.792L167.475 143.861L167.779 143.937L168.69 144.696L169.145 145H169.525L169.904 145.304L170.891 145.759L171.575 146.291L172.789 146.671L173.093 146.898L172.789 147.278L172.941 147.506L173.397 147.582L174.004 147.81L174.535 147.962L175.37 148.341L175.75 148.721L176.357 149.177L177.041 149.025L177.724 149.708L178.103 149.86L178.559 150.24L178.787 150.696L179.014 151.759L178.863 152.822L178.635 153.354L178.483 154.265L178.635 154.493L178.787 155.708L178.559 156.391L178.027 157.379V157.986L177.8 158.594L177.572 159.733L177.344 160.34L177.8 161.328L177.876 162.543L177.724 162.922L177.648 163.682L177.8 164.062L177.724 164.441L177.876 165.504V166.188L178.331 167.175L178.863 167.555L179.166 167.403L179.849 167.479L180.229 167.935L180.685 168.086L181.596 168.238L182.051 168.77L182.203 170.669L183.114 173.251L184.632 175.301L185.543 177.579L186.986 179.098L187.213 180.161L188.049 181.604L189.871 183.427L190.402 185.249L190.554 187.148L190.933 187.68L192.604 188.287L194.046 188.591L195.185 189.806L195.716 190.793L197.766 192.084L198.145 192.844L198.981 193.527L199.816 194.59L201.334 195.806L202.093 195.426L203.536 194.211L204.902 193.527L206.8 193.072L207.407 193.223L208.242 193.983L208.926 194.439V195.578L209.381 196.945L209.913 197.856L210.672 198.16L211.431 198.767L212.418 198.843L212.57 198.995L212.722 199.83L215.075 204.083L218.719 200.818L220.845 200.058L220.997 199.982L221.983 196.945L222.059 196.869H223.502L223.578 196.793L224.868 193.679L225.172 190.414L225.476 189.199L226.007 188.287L230.031 186.541H230.182L231.929 186.996L233.143 187.452L234.965 187.072H236.104L236.332 186.237L237.319 185.553L238.382 185.477L238.989 185.629L240.963 185.933L241.19 185.705L241.039 184.718L242.329 186.009L243.012 187.832L242.557 188.971L244.91 188.591L247.188 187.983L248.099 187.832L249.693 187.907L251.971 187.528L252.73 188.135L253.185 188.667L253.413 189.806L254.172 190.414L255.159 189.882L256.298 189.502L257.285 188.743L258.727 187.832L259.714 187.376L260.322 187.528L261.612 187.3L261.992 186.465L261.764 185.629L262.144 184.794L262.979 184.186L263.966 183.579L264.497 182.136L264.421 181.604L264.877 179.782L265.332 179.25L265.56 178.415L266.167 177.883L266.699 177.2L267.306 176.44L268.141 175.757L267.534 174.693L267.458 173.099L267.078 171.732L266.395 169.909L265.939 169.529L266.395 168.314L266.547 167.403L266.471 167.251V166.568L266.395 166.188L266.471 165.428L266.926 164.897L267.002 164.517L267.685 164.821L268.141 165.353L268.293 166.188L268.672 166.644L269.204 167.023L269.659 167.099L270.343 166.492H270.57L271.481 166.72L271.937 166.644L272.241 165.732L272.696 165.428H273.531L273.835 165.504H274.442L274.974 165.353L275.429 164.821L275.733 164.745L276.188 165.201L276.568 165.96L277.099 166.795L276.947 167.251L276.34 167.859L275.581 168.39L275.277 168.922L275.201 169.529L276.112 169.302L277.251 168.77L277.555 168.466L277.631 168.086L278.086 167.479L278.39 166.644L278.466 166.036L279.225 165.428L279.832 165.277L280.288 165.656L280.591 165.504L280.819 164.213ZM280.819 164.213V164.213Z" stroke="white" stroke-width="2"/>
<path d="M215.419 130.5C215.899 130.5 216.274 130.369 216.45 130.3C216.657 130.219 216.834 130.125 216.966 130.049C217.229 129.896 217.487 129.711 217.719 129.532C218.191 129.169 218.757 128.674 219.382 128.09C220.644 126.913 222.293 125.24 224.184 123.195C227.973 119.101 232.814 113.43 237.59 107.08C242.36 100.736 247.105 93.6616 250.669 86.7657C254.199 79.9355 256.722 72.9951 256.722 66.9999C256.722 44.0921 238.242 25.5 215.419 25.5C192.596 25.5 174.116 44.0921 174.116 66.9999C174.116 72.9951 176.639 79.9355 180.169 86.7657C183.733 93.6616 188.478 100.736 193.248 107.08C198.024 113.43 202.865 119.101 206.653 123.195C208.545 125.24 210.194 126.913 211.456 128.09C212.081 128.674 212.647 129.169 213.119 129.532C213.35 129.711 213.609 129.896 213.872 130.049C214.004 130.125 214.181 130.219 214.388 130.3C214.564 130.369 214.939 130.5 215.419 130.5ZM232.592 66.7332C232.592 76.2848 224.891 84.0064 215.419 84.0064C205.947 84.0064 198.246 76.2849 198.246 66.7332C198.246 57.1816 205.947 49.4602 215.419 49.4602C224.891 49.4602 232.592 57.1817 232.592 66.7332Z" fill="#B30D13" stroke="white" stroke-width="5"/>
<path fill-rule="evenodd" clip-rule="evenodd" d="M176.616 66.9999C176.616 88.539 212.74 128 214.761 128V86.5064C204.08 86.5059 195.422 77.6535 195.422 66.7332C195.422 55.813 204.08 46.9603 214.761 46.9602V28C193.694 28 176.616 45.4609 176.616 66.9999Z" fill="#E52A30"/>
<path d="M199.479 152.363V155H192.291V152.363H199.479ZM193.512 140.781V155H190.084V140.781H193.512ZM208.385 150.186H211.803C211.757 151.175 211.49 152.048 211.002 152.803C210.514 153.558 209.837 154.147 208.971 154.57C208.111 154.987 207.096 155.195 205.924 155.195C204.973 155.195 204.124 155.036 203.375 154.717C202.633 154.398 202.001 153.939 201.48 153.34C200.966 152.741 200.572 152.015 200.299 151.162C200.032 150.309 199.898 149.349 199.898 148.281V147.51C199.898 146.442 200.038 145.482 200.318 144.629C200.605 143.77 201.008 143.04 201.529 142.441C202.057 141.836 202.688 141.374 203.424 141.055C204.16 140.736 204.977 140.576 205.875 140.576C207.112 140.576 208.157 140.798 209.01 141.24C209.863 141.683 210.523 142.292 210.992 143.066C211.461 143.835 211.738 144.71 211.822 145.693H208.404C208.391 145.16 208.3 144.714 208.131 144.355C207.962 143.991 207.695 143.717 207.33 143.535C206.965 143.353 206.48 143.262 205.875 143.262C205.452 143.262 205.084 143.34 204.771 143.496C204.459 143.652 204.199 143.9 203.99 144.238C203.782 144.577 203.626 145.016 203.521 145.557C203.424 146.09 203.375 146.735 203.375 147.49V148.281C203.375 149.036 203.421 149.681 203.512 150.215C203.603 150.749 203.749 151.185 203.951 151.523C204.153 151.862 204.413 152.113 204.732 152.275C205.058 152.432 205.455 152.51 205.924 152.51C206.445 152.51 206.884 152.428 207.242 152.266C207.6 152.096 207.877 151.842 208.072 151.504C208.268 151.159 208.372 150.719 208.385 150.186ZM225.729 151.221C225.729 150.999 225.696 150.801 225.631 150.625C225.566 150.443 225.445 150.273 225.27 150.117C225.094 149.961 224.84 149.805 224.508 149.648C224.182 149.486 223.753 149.316 223.219 149.141C222.594 148.932 221.992 148.698 221.412 148.438C220.833 148.171 220.315 147.861 219.859 147.51C219.404 147.152 219.042 146.735 218.775 146.26C218.508 145.778 218.375 145.218 218.375 144.58C218.375 143.968 218.512 143.418 218.785 142.93C219.059 142.435 219.439 142.015 219.928 141.67C220.423 141.318 221.002 141.051 221.666 140.869C222.33 140.68 223.056 140.586 223.844 140.586C224.885 140.586 225.803 140.768 226.598 141.133C227.398 141.491 228.023 142.002 228.473 142.666C228.928 143.324 229.156 144.102 229.156 145H225.748C225.748 144.642 225.673 144.326 225.523 144.053C225.38 143.779 225.162 143.564 224.869 143.408C224.576 143.252 224.208 143.174 223.766 143.174C223.336 143.174 222.975 143.239 222.682 143.369C222.389 143.499 222.167 143.675 222.018 143.896C221.868 144.111 221.793 144.349 221.793 144.609C221.793 144.824 221.852 145.02 221.969 145.195C222.092 145.365 222.265 145.524 222.486 145.674C222.714 145.824 222.988 145.967 223.307 146.104C223.632 146.24 223.997 146.374 224.4 146.504C225.156 146.745 225.826 147.015 226.412 147.314C227.005 147.607 227.503 147.943 227.906 148.32C228.316 148.691 228.626 149.115 228.834 149.59C229.049 150.065 229.156 150.602 229.156 151.201C229.156 151.839 229.033 152.406 228.785 152.9C228.538 153.395 228.183 153.815 227.721 154.16C227.258 154.499 226.705 154.756 226.061 154.932C225.416 155.107 224.697 155.195 223.902 155.195C223.173 155.195 222.454 155.104 221.744 154.922C221.041 154.733 220.403 154.447 219.83 154.062C219.257 153.672 218.798 153.174 218.453 152.568C218.115 151.956 217.945 151.23 217.945 150.391H221.383C221.383 150.807 221.438 151.159 221.549 151.445C221.66 151.732 221.822 151.963 222.037 152.139C222.252 152.308 222.516 152.432 222.828 152.51C223.141 152.581 223.499 152.617 223.902 152.617C224.339 152.617 224.69 152.555 224.957 152.432C225.224 152.301 225.419 152.132 225.543 151.924C225.667 151.709 225.729 151.475 225.729 151.221ZM234.088 139.99V155H230.797V139.99H234.088ZM240.846 144.434L236.256 149.814L233.854 152.217L232.418 150.127L234.42 147.52L236.9 144.434H240.846ZM237.32 155L234.498 150.186L236.93 148.457L241.09 155H237.32ZM241.295 149.824V149.619C241.295 148.844 241.406 148.132 241.627 147.48C241.848 146.823 242.174 146.253 242.604 145.771C243.033 145.29 243.564 144.915 244.195 144.648C244.827 144.375 245.556 144.238 246.383 144.238C247.216 144.238 247.949 144.375 248.58 144.648C249.218 144.915 249.752 145.29 250.182 145.771C250.611 146.253 250.937 146.823 251.158 147.48C251.38 148.132 251.49 148.844 251.49 149.619V149.824C251.49 150.592 251.38 151.305 251.158 151.963C250.937 152.614 250.611 153.184 250.182 153.672C249.752 154.154 249.221 154.528 248.59 154.795C247.958 155.062 247.229 155.195 246.402 155.195C245.576 155.195 244.843 155.062 244.205 154.795C243.567 154.528 243.033 154.154 242.604 153.672C242.174 153.184 241.848 152.614 241.627 151.963C241.406 151.305 241.295 150.592 241.295 149.824ZM244.586 149.619V149.824C244.586 150.221 244.615 150.592 244.674 150.938C244.732 151.283 244.83 151.585 244.967 151.846C245.104 152.1 245.289 152.298 245.523 152.441C245.758 152.585 246.051 152.656 246.402 152.656C246.747 152.656 247.034 152.585 247.262 152.441C247.496 152.298 247.682 152.1 247.818 151.846C247.955 151.585 248.053 151.283 248.111 150.938C248.17 150.592 248.199 150.221 248.199 149.824V149.619C248.199 149.235 248.17 148.874 248.111 148.535C248.053 148.19 247.955 147.887 247.818 147.627C247.682 147.36 247.496 147.152 247.262 147.002C247.027 146.852 246.734 146.777 246.383 146.777C246.038 146.777 245.748 146.852 245.514 147.002C245.286 147.152 245.104 147.36 244.967 147.627C244.83 147.887 244.732 148.19 244.674 148.535C244.615 148.874 244.586 149.235 244.586 149.619ZM256.275 146.465V159.062H252.984V144.434H256.051L256.275 146.465ZM262.76 149.59V149.795C262.76 150.563 262.672 151.276 262.496 151.934C262.32 152.591 262.06 153.164 261.715 153.652C261.37 154.141 260.94 154.521 260.426 154.795C259.918 155.062 259.329 155.195 258.658 155.195C258.027 155.195 257.483 155.055 257.027 154.775C256.572 154.495 256.191 154.108 255.885 153.613C255.579 153.118 255.331 152.552 255.143 151.914C254.954 151.276 254.804 150.602 254.693 149.893V149.629C254.804 148.867 254.954 148.161 255.143 147.51C255.331 146.852 255.579 146.279 255.885 145.791C256.191 145.303 256.568 144.922 257.018 144.648C257.473 144.375 258.017 144.238 258.648 144.238C259.319 144.238 259.908 144.365 260.416 144.619C260.93 144.873 261.36 145.238 261.705 145.713C262.057 146.182 262.32 146.745 262.496 147.402C262.672 148.06 262.76 148.789 262.76 149.59ZM259.469 149.795V149.59C259.469 149.18 259.439 148.805 259.381 148.467C259.322 148.122 259.228 147.822 259.098 147.568C258.974 147.314 258.808 147.119 258.6 146.982C258.391 146.846 258.134 146.777 257.828 146.777C257.477 146.777 257.18 146.833 256.939 146.943C256.705 147.048 256.516 147.21 256.373 147.432C256.236 147.646 256.139 147.917 256.08 148.242C256.028 148.561 256.005 148.936 256.012 149.365V150.166C255.999 150.661 256.048 151.097 256.158 151.475C256.269 151.846 256.461 152.135 256.734 152.344C257.008 152.552 257.379 152.656 257.848 152.656C258.16 152.656 258.421 152.585 258.629 152.441C258.837 152.292 259.003 152.087 259.127 151.826C259.251 151.559 259.339 151.253 259.391 150.908C259.443 150.563 259.469 150.192 259.469 149.795ZM264.469 144.434H267.77V155.342C267.77 156.188 267.607 156.901 267.281 157.48C266.956 158.066 266.49 158.509 265.885 158.809C265.279 159.115 264.557 159.268 263.717 159.268C263.437 159.268 263.18 159.255 262.945 159.229C262.704 159.209 262.441 159.167 262.154 159.102V156.611C262.324 156.637 262.48 156.657 262.623 156.67C262.766 156.689 262.923 156.699 263.092 156.699C263.391 156.699 263.642 156.65 263.844 156.553C264.046 156.455 264.199 156.305 264.303 156.104C264.413 155.902 264.469 155.648 264.469 155.342V144.434ZM264.225 141.709C264.225 141.24 264.394 140.856 264.732 140.557C265.071 140.257 265.51 140.107 266.051 140.107C266.591 140.107 267.031 140.257 267.369 140.557C267.708 140.856 267.877 141.24 267.877 141.709C267.877 142.178 267.708 142.562 267.369 142.861C267.031 143.161 266.591 143.311 266.051 143.311C265.51 143.311 265.071 143.161 264.732 142.861C264.394 142.562 264.225 142.178 264.225 141.709ZM274.752 155.195C273.893 155.195 273.124 155.062 272.447 154.795C271.77 154.521 271.197 154.147 270.729 153.672C270.266 153.197 269.911 152.65 269.664 152.031C269.423 151.413 269.303 150.758 269.303 150.068V149.697C269.303 148.923 269.41 148.206 269.625 147.549C269.84 146.885 270.159 146.305 270.582 145.811C271.005 145.316 271.536 144.932 272.174 144.658C272.812 144.378 273.554 144.238 274.4 144.238C275.149 144.238 275.82 144.359 276.412 144.6C277.005 144.84 277.506 145.186 277.916 145.635C278.333 146.084 278.648 146.628 278.863 147.266C279.085 147.904 279.195 148.62 279.195 149.414V150.752H270.562V148.691H275.982V148.438C275.989 148.086 275.927 147.786 275.797 147.539C275.673 147.292 275.491 147.103 275.25 146.973C275.009 146.842 274.716 146.777 274.371 146.777C274.013 146.777 273.717 146.855 273.482 147.012C273.255 147.168 273.076 147.383 272.945 147.656C272.822 147.923 272.734 148.232 272.682 148.584C272.63 148.936 272.604 149.307 272.604 149.697V150.068C272.604 150.459 272.656 150.814 272.76 151.133C272.87 151.452 273.027 151.725 273.229 151.953C273.437 152.174 273.684 152.347 273.971 152.471C274.264 152.594 274.596 152.656 274.967 152.656C275.416 152.656 275.859 152.572 276.295 152.402C276.731 152.233 277.105 151.953 277.418 151.562L278.912 153.34C278.697 153.646 278.391 153.942 277.994 154.229C277.604 154.515 277.135 154.749 276.588 154.932C276.041 155.107 275.429 155.195 274.752 155.195Z" fill="white"/>
<defs>
<radialGradient id="paint0_radial_19_280" cx="0" cy="0" r="1" gradientUnits="userSpaceOnUse" gradientTransform="translate(227.853 139.076) rotate(49.3375) scale(266.804 338.747)">
<stop offset="0.050627" stop-color="#E52A30"/>
<stop offset="1" stop-color="#B30D13"/>
</radialGradient>
</defs>
</svg>
