<svg width="43" height="68" viewBox="0 0 43 68" fill="none" xmlns="http://www.w3.org/2000/svg">
<path fill-rule="evenodd" clip-rule="evenodd" d="M31.685 43.5392C31.4453 45.4876 29.31 46.0619 26.6995 45.4491C28.0886 35.9247 36.5592 30.6945 37.4175 23.7057C40.0251 2.46239 7.81842 -2.53166 5.03887 20.0971C4.13709 27.4398 11.3699 32.4239 10.2298 43.3844C7.59583 43.3287 5.71236 42.28 5.92924 40.5185C6.5114 35.7749 -0.46957 26.8555 0.410097 19.694C3.98085 -9.38921 45.3723 -2.97043 42.0206 24.3306C41.0439 32.2912 32.0631 40.4593 31.685 43.5392ZM14.3407 22.3865C14.6196 16.8132 18.5506 18.773 18.5506 18.773L17.3456 44.095L13.4852 43.7147C13.4852 43.714 14.0617 27.9599 14.3407 22.3865ZM27.7754 24.0888C26.5204 30.3599 23.407 44.8462 23.407 44.8462L19.5445 44.4802L24.1889 19.3616C24.1889 19.3616 29.0289 17.8184 27.7754 24.0888ZM7.46812 45.9742L29.1559 48.5061C29.1559 48.5061 28.4053 53.4795 28.1435 55.5449C27.764 58.5421 22.4296 61.8017 20.728 61.5863C18.1226 61.2553 14.1038 60.7937 11.972 60.5233C10.9212 60.3899 6.05053 56.4075 6.47716 53.0507C6.77752 50.6793 7.46812 45.9742 7.46812 45.9742ZM20.7495 63.7901C20.071 69.1394 11.153 68.1385 11.8358 62.7549C13.8091 63.0046 17.4291 63.3699 20.7495 63.7901Z" fill="#E52A30"/>
</svg>
