<svg width="308" height="94" viewBox="0 0 308 94" fill="none" xmlns="http://www.w3.org/2000/svg">
<g clip-path="url(#clip0_412_1534)">
<path d="M288.066 51.0652C291.909 51.0652 295.126 52.7595 296.223 55.0783C297.726 55.4436 298.664 55.9107 298.664 56.4212V56.8179C300.224 57.5571 301.17 58.4632 301.17 59.4474V61.1463C303.754 61.9891 305.373 63.0749 305.373 64.2695C305.373 65.1123 304.53 65.8952 303.166 66.5834C303.434 66.9865 303.611 67.3972 303.611 67.8295C303.611 68.1687 303.512 68.5024 303.344 68.8248V69.0837C303.513 69.2556 303.611 69.4361 303.611 69.6176C303.611 69.797 303.51 69.9655 303.344 70.1354C303.343 70.1369 303.346 70.1419 303.344 70.1434V71.1063C303.511 71.3352 303.611 71.5692 303.611 71.8103C303.611 72.0513 303.511 72.2854 303.344 72.5142V87.2234H303.878V88.8579H272.255V87.2234H272.789V72.5142C272.621 72.2854 272.522 72.0513 272.522 71.8103C272.522 71.5692 272.621 71.3352 272.789 71.1063V70.1434V70.1354C272.623 69.965 272.522 69.796 272.522 69.6176C272.522 69.4366 272.62 69.2559 272.789 69.0837V68.8248C272.621 68.5024 272.522 68.1687 272.522 67.8295C272.522 67.3977 272.698 66.9865 272.966 66.5834C271.603 65.8942 270.76 65.1118 270.76 64.2695C270.76 63.0742 272.379 61.9891 274.963 61.1463V59.4474C274.963 58.4651 275.908 57.5563 277.469 56.8179V56.4212C277.469 55.9114 278.407 55.4446 279.91 55.0783C281.007 52.7574 284.224 51.0652 288.066 51.0652Z" stroke="#E52A30" stroke-miterlimit="10"/>
<path d="M288.066 51.0627C291.909 51.0627 295.126 52.757 296.223 55.0758C297.726 55.4414 298.664 55.9082 298.664 56.419V56.8154C300.224 57.5546 301.17 58.4608 301.17 59.4449V61.1441C303.754 61.9869 305.373 63.0728 305.373 64.2671C305.373 65.1101 304.53 65.893 303.166 66.5812C303.426 66.9714 303.592 67.3693 303.603 67.7867C303.171 67.5827 302.693 67.3875 302.132 67.2042V68.6768C302.561 68.7946 302.986 68.9122 303.344 69.0409V69.0812C303.513 69.2532 303.611 69.4339 303.611 69.6151C303.611 69.7945 303.51 69.9631 303.344 70.1329C303.343 70.1348 303.346 70.1397 303.344 70.1412V71.1038C303.511 71.3327 303.611 71.5668 303.611 71.8078C303.611 72.0489 303.511 72.2829 303.344 72.5118V87.2209H303.878V88.8554H272.255V87.2209H272.789V72.5118C272.621 72.2829 272.522 72.0489 272.522 71.8078C272.522 71.567 272.621 71.333 272.789 71.1038V70.1412V70.1329C272.623 69.9626 272.522 69.7935 272.522 69.6151C272.522 69.467 272.624 69.3215 272.74 69.1783C273.101 69.0359 273.545 68.8969 273.993 68.7656V67.2042C273.436 67.3851 272.959 67.5762 272.53 67.7787C272.543 67.3647 272.708 66.9688 272.966 66.5812C271.603 65.892 270.76 65.1093 270.76 64.2671C270.76 63.0717 272.379 61.9869 274.963 61.1441V59.4449C274.963 58.4626 275.908 57.5538 277.469 56.8154V56.419C277.469 55.9093 278.407 55.4422 279.91 55.0758C281.007 52.7552 284.224 51.0627 288.066 51.0627ZM288.066 65.4889C287.148 65.4886 286.263 65.521 285.383 65.5536V65.8288V67.1314V67.3416C286.339 67.3082 287.225 67.2285 288.228 67.2285C289.113 67.2288 289.893 67.2911 290.742 67.3176V67.1638V65.8288V65.5536C289.863 65.521 288.984 65.4889 288.066 65.4889ZM292.65 65.6507V65.8288V67.2365V67.3903C294.263 67.4789 295.718 67.6205 297.112 67.7947V67.6572V66.1038C296.424 66.0033 295.731 65.9057 294.986 65.8288C294.241 65.753 293.444 65.7025 292.65 65.6507ZM283.475 65.6507C282.681 65.7025 281.884 65.7519 281.139 65.8288C280.393 65.9052 279.7 66.0039 279.013 66.1038V67.6329V67.7706C280.362 67.5954 281.912 67.5071 283.475 67.4144V67.2285V65.8288V65.6507ZM298.502 66.3303V67.8354V67.9566C299.412 68.0956 300.31 68.2375 301.073 68.4096V68.3125V66.8966C300.293 66.6882 299.441 66.4986 298.502 66.3303ZM277.622 66.3303C276.685 66.4992 275.838 66.6879 275.06 66.8966V68.3853V68.4826C275.83 68.2996 276.689 68.1375 277.622 67.9889V67.8595V66.3303ZM294.856 71.0958V71.4842V87.1968H296.732V71.4842V71.298C296.102 71.2302 295.533 71.1489 294.856 71.0958ZM281.268 71.1202C280.588 71.1769 280.024 71.2657 279.393 71.3387V71.4842V87.1968H281.268V71.4842V71.1202ZM298.502 71.5005V87.1968H300.28V71.7594C299.738 71.6605 299.113 71.5846 298.502 71.5005ZM277.622 71.5652C277.006 71.6439 276.371 71.7149 275.844 71.8158V87.1968H277.622V71.5652ZM288.066 75.7725C286.56 75.7725 285.218 76.0045 284.17 76.355V79.7126V87.1968H291.954V79.7126V76.355C290.906 76.0042 289.572 75.7725 288.066 75.7725Z" fill="#E52A30"/>
<path d="M22.4883 19.2263C22.4159 19.2491 21.7976 20.155 21.7123 20.2733C21.0915 21.1368 20.4163 21.9917 19.6325 22.7146C18.9936 23.3036 18.3677 23.9014 17.7184 24.4822C17.0717 25.0645 16.319 25.5302 15.6723 26.1102C14.9066 26.7976 13.7892 27.1122 13.2304 28.0284C12.3587 29.4592 14.0711 31.0644 15.3852 31.2759C16.0344 31.3805 16.8803 31.1967 17.4856 30.9792C18.1038 30.7576 18.6936 30.4788 19.3247 30.2802" stroke="#E52A30" stroke-width="0.5" stroke-miterlimit="10" stroke-linecap="round" stroke-linejoin="round"/>
<path d="M30.7771 13.2542C30.8883 13.2542 30.9142 13.7471 30.9142 14.0793C30.9142 14.2271 30.1873 18.6304 30.089 19.0149C30.0968 19.0172 30.1123 19.0118 30.1149 19.0149C30.133 19.0594 30.0243 19.5534 30.0166 19.6298C30.0036 19.7758 29.983 19.9198 29.97 20.0668C29.9648 20.1069 29.9648 20.1476 29.9597 20.188C29.9752 20.1999 29.9881 20.1898 30.0011 20.2043C30.1045 20.3208 30.1175 20.4573 30.1873 20.5846C30.2494 20.6998 30.3606 20.7465 30.4227 20.8596C30.5313 21.059 30.2365 21.0419 30.2287 21.2236C30.2158 21.4774 30.327 21.7018 30.252 21.96C30.2235 22.0539 29.7295 22.4112 29.4837 22.5586C29.6131 23.0075 29.3518 23.624 29.9364 23.8614C30.2002 23.9675 30.6814 23.3493 30.834 23.1818C31.4419 22.5148 31.685 21.2542 32.6861 21.0377C32.8361 21.0046 33.0197 20.9437 33.1931 20.9404C33.2707 20.9391 33.3302 20.9981 33.3974 21.0294C33.4103 21.0313 33.431 21.0181 33.444 21.0214C33.4983 21.0346 33.5371 21.0877 33.5811 21.1185C33.5992 21.1384 33.625 21.1423 33.638 21.1672C33.6405 21.1695 33.638 21.1726 33.638 21.1752C33.7802 21.2884 33.9122 21.4336 34.0363 21.5473C34.5407 22.0149 34.9469 22.6292 35.3763 23.1654C35.6168 23.4645 35.9065 23.7576 35.9919 24.104C36.3256 24.425 35.9634 25.0922 36.0721 25.6007C36.1393 25.9174 36.3695 26.1843 36.4264 26.5069C36.473 26.7583 36.3592 26.9696 36.3307 27.2109C36.2945 27.5167 36.279 27.8331 36.3075 28.1414C36.3126 28.2134 36.323 28.4619 36.235 28.4974C36.1885 28.515 36.1445 28.4544 36.0953 28.4487C35.7487 28.4083 35.4176 28.3612 35.1021 28.1898C34.6908 27.9661 34.101 27.54 33.9613 27.0654C33.9147 26.9049 33.9225 26.6654 34.0441 26.5395C34.0984 26.4823 34.2045 26.4634 34.2277 26.3775C34.2614 26.268 34.2174 26.1597 34.2458 26.0538C34.282 25.9223 34.3959 25.8581 34.4864 25.7708C34.5537 25.709 34.6028 25.6331 34.6571 25.5604C34.52 25.4498 34.37 25.3455 34.2846 25.2124C34.1398 24.9804 34.3209 24.6226 34.2122 24.3549C34.1191 24.1182 33.894 23.9391 33.7285 23.7563C33.5448 23.5554 33.3664 23.3469 33.1853 23.1411C32.8309 23.5222 32.6602 24.0608 32.4015 24.6542C31.9385 25.7198 31.5401 26.887 30.834 27.8258C30.5287 28.231 29.8226 28.93 29.2017 28.9505C29.15 29.1258 29.1009 29.2959 29.0543 29.4763C28.6922 30.9314 28.2162 32.3642 27.8748 33.8294C27.7661 34.2983 27.673 35.8805 27.2203 36.1513C27.2022 36.1619 27.1764 36.1445 27.1557 36.1513C27.2747 36.4343 27.4014 36.7527 27.5281 36.9523C27.6575 37.1561 28.3068 38.018 28.1179 38.2389C28.0145 38.3611 27.7454 38.3282 27.6316 38.2469C27.2462 37.9647 26.8349 37.7314 26.3564 37.624C26.1029 37.5672 25.6373 37.6928 25.4329 37.4865C25.3062 37.3573 25.4355 37.1437 25.4898 37.009C25.5855 36.7781 25.7485 36.3768 25.6761 36.0785C25.4252 36.6088 24.3749 37.1911 24.1396 37.713C23.8343 38.3903 24.2818 38.9708 24.2456 39.6465C24.2249 40.0163 24.018 40.422 23.8576 40.7469C23.7464 40.9716 23.6351 41.2047 23.5265 41.4348C23.7283 42.2931 23.2859 43.2394 23.1954 44.0967C23.1411 44.6028 22.9419 45.1264 22.735 45.5854C22.6858 45.6941 22.6134 45.9719 22.4996 46.0305C22.2332 46.1698 21.8606 46.141 21.5709 46.184C21.5063 46.1938 21.2605 46.3065 21.1985 46.2407C21.1493 46.1894 21.1105 45.1815 21.0847 45.0029C21.0096 44.4884 20.7949 44.0107 20.6889 43.5061C20.6294 43.2203 20.632 42.9285 20.632 42.6403C20.6242 42.6372 20.619 42.6346 20.6087 42.6323C19.9542 42.5023 19.3153 42.32 18.7333 42.0093C18.6454 42.4689 18.4824 42.9137 18.1823 43.2632C18.0349 43.4354 17.753 43.597 17.665 43.8134C17.6521 43.8492 17.8823 44.3066 17.8926 44.4203C17.9599 45.1031 17.8073 46.2518 16.8657 45.9981C16.6846 45.9494 16.5553 45.8239 16.4208 45.6988C16.4156 45.6923 16.4104 45.6809 16.4053 45.6745C16.1466 45.8818 15.8362 46.0082 15.4844 45.9818C15.3266 45.9701 15.2257 45.9036 15.0783 45.8686C14.8119 45.805 14.5222 45.6734 14.4161 45.3992C14.3385 45.1986 14.4963 44.8931 14.5791 44.7116C14.8093 44.1922 15.1249 43.721 15.1611 43.1418C15.2051 42.3951 15.3059 41.5938 15.249 40.8443C15.1662 39.7498 15.1404 38.5674 15.4741 37.5106C15.5749 37.1993 15.3318 36.9531 15.3939 36.6774C15.3965 36.6678 15.4146 36.6554 15.4198 36.645C15.4042 36.6409 15.3706 36.6538 15.3628 36.645C15.1818 36.4425 15.4818 36.1275 15.5646 35.9571C15.6448 35.7893 15.5672 35.5871 15.6526 35.4313C15.8673 35.0416 16.0897 34.6436 16.3173 34.2501C16.5294 33.8788 16.7985 33.4097 16.8657 32.9796C16.9019 32.7471 16.8554 32.5193 16.9382 32.292C17.0158 32.0846 17.2046 32.2438 17.2305 31.9766C17.2486 31.7532 16.9588 31.5005 17.0028 31.1593C17.039 30.8949 17.2227 30.6621 17.246 30.4069C17.3003 29.8057 17.2408 29.2428 17.1658 28.6429C17.1529 28.6541 17.1399 28.6675 17.1322 28.6755C16.6096 29.2451 15.8466 29.7156 15.0628 29.3632C14.7808 29.2363 14.4782 29.0401 14.2376 28.8454C14.1522 28.7755 14.0902 28.6768 13.9893 28.6349C13.6323 28.4907 12.7425 29.1651 12.5562 28.5378C12.4528 28.1808 12.7658 27.4613 13.1072 27.308C13.2236 27.2557 13.3607 27.2342 13.4952 27.2352C13.6297 27.2365 13.7617 27.2629 13.8832 27.2919C14.2893 27.3901 14.6023 27.7813 15.0136 27.8178C15.2645 27.8398 15.5284 27.8266 15.7819 27.7774C15.7974 27.7453 15.8207 27.7116 15.831 27.6803C15.8517 27.6119 15.8233 27.4993 15.8233 27.4294C15.8207 27.2311 15.8465 27.0069 15.8543 26.8065C15.8853 26.1098 16.2553 25.1647 16.8735 24.7999C17.0934 24.6702 17.2951 24.5871 17.5538 24.5814C17.8099 24.5757 18.0711 24.6301 18.3298 24.6946C18.3324 24.6953 18.335 24.694 18.3375 24.6946C18.5522 24.5812 18.8575 24.4219 18.8782 24.3629C18.9636 24.1268 18.8549 23.9564 18.829 23.7319C18.7618 23.0668 18.516 22.3654 18.8782 21.7414C19.1938 21.1975 20.081 21.3684 20.5751 21.248C20.7458 21.2071 20.8803 21.1281 21.0122 21.1025C21.1442 21.0766 21.2709 21.1012 21.4157 21.256C21.7365 21.597 21.6796 22.0508 21.8943 22.4291C21.9486 22.5272 22.0443 22.5676 22.1038 22.6559L22.0805 22.672L22.1038 22.68C22.1167 22.6738 21.9822 22.8434 21.9512 22.8822C21.8348 23.0262 21.7572 23.2237 21.7882 23.4163C21.8555 23.822 21.9977 23.7871 21.6097 24.096C21.4597 24.2171 21.3485 24.3743 21.214 24.5087C21.214 24.5087 21.1648 24.5459 21.1752 24.5571C21.2528 24.6358 21.2761 24.461 21.2942 24.452C21.3537 24.4235 21.5192 24.5226 21.5632 24.5491C21.6149 24.5801 21.8193 24.8484 21.8219 24.8484C21.8477 24.8484 22.0624 24.4672 22.0883 24.4357C22.1736 24.3225 22.4116 24.1584 22.4582 24.0393C22.5358 23.851 22.3935 23.4888 22.3961 23.2869C22.3961 22.7887 22.4168 22.2292 22.3625 21.7334C22.3289 21.438 22.2875 21.1092 22.3392 20.8109C22.3677 20.63 22.4685 20.3444 22.5487 20.0668C22.3366 19.4995 22.2254 18.8748 22.2409 18.5374C22.2564 18.198 22.6005 17.8249 22.5254 17.4858C22.4685 17.2377 22.078 16.9366 22.1116 16.6684C22.1168 16.6373 22.453 16.6474 22.4996 16.6523C22.6186 16.6642 22.722 16.5011 22.8229 16.4581C23.0169 16.3758 23.2523 16.4043 23.4386 16.3126C23.7826 16.1405 23.9145 15.5307 24.3827 15.5924C24.6905 15.6327 24.8069 16.0139 25.0216 16.1832C25.3191 16.4167 25.7252 16.4061 25.9917 16.7171C26.2063 16.9661 25.9684 17.3071 25.9348 17.5665C25.8804 17.9937 25.9451 18.5752 26.1055 18.9745C26.2891 19.434 26.0615 19.8475 25.9114 20.261C25.8675 20.3801 25.839 20.5196 25.839 20.6494C25.839 20.6512 25.839 20.6548 25.839 20.6574C26.0615 20.9018 26.2684 21.161 26.4935 21.4018C26.6202 21.5392 26.8815 21.8981 27.091 21.8872C27.2255 21.8802 27.4557 21.2837 27.6006 21.1752C27.7972 21.0294 28.0791 20.9215 28.3275 20.9163C28.4232 20.9142 28.5887 20.9412 28.6767 20.9C28.9276 20.7804 29.3182 20.1831 29.67 20.0909C29.6803 20.0881 29.6906 20.1013 29.701 20.0989C29.7243 19.9715 29.7424 19.8455 29.7682 19.7188C29.7889 19.6047 29.8355 19.1536 29.8976 19.0472C29.8924 19.0395 29.8795 19.0149 29.8795 19.0149C29.8795 19.0149 30.446 14.449 30.446 14.1036C30.446 13.9537 30.6658 13.2542 30.7771 13.2542Z" fill="#E52A30" stroke="#E52A30" stroke-width="0.5" stroke-miterlimit="10" stroke-linejoin="round"/>
<path d="M29.9186 87.4192L34.3574 70.9275" stroke="#E52A30" stroke-width="0.5" stroke-miterlimit="10" stroke-linejoin="round"/>
<path d="M34.6283 69.9604L34.0179 70.9161L34.6387 71.0947L34.6283 69.9604Z" fill="#E52A30" stroke="#E52A30" stroke-width="0.5" stroke-miterlimit="10" stroke-linejoin="round"/>
<path d="M30.8021 76.3772C31.3608 76.3267 31.0556 76.6666 31.1745 76.7655C31.3349 76.8991 31.4824 76.9123 31.5057 77.1702C31.5082 77.2095 31.3323 77.2088 31.3453 77.2429C31.4281 77.4659 31.6091 77.4762 31.5134 77.7771C31.4643 77.9353 31.172 77.949 31.1979 78.1411C31.2263 78.3482 31.3039 78.5427 31.3608 78.748C31.366 78.7495 31.3711 78.7462 31.3763 78.748C31.5367 78.7977 31.6971 78.9352 31.8704 78.9178C32.0644 78.8981 32.0463 78.3568 32.411 78.5132C32.7214 78.6462 32.6387 79.2396 32.3619 79.3629C32.1213 79.4703 31.754 79.5397 31.441 79.5408C31.4539 79.8766 31.4694 80.2137 31.4824 80.5521C31.4876 80.726 31.5419 80.9081 31.5703 81.0942C31.6764 81.4699 31.516 82.0076 31.3919 82.5749C31.2755 83.1212 31.3142 83.7757 31.3453 84.3225C31.3686 84.7666 32.8481 86.0518 31.9816 86.4909C31.7255 86.6209 31.4591 86.7871 31.159 86.7418C29.7415 86.5266 27.3488 83.5241 27.9903 82.0491C28.0084 82.0063 28.0421 81.9758 28.0628 81.9357C27.9541 81.6827 27.8558 81.4238 27.7782 81.167C27.6463 80.7245 27.5428 80.1829 27.5945 79.7189C27.6592 79.1143 27.279 77.5831 28.4352 77.7284C28.9293 77.7908 29.0302 78.5155 29.4052 78.756C29.501 78.8179 29.6199 78.8337 29.7364 78.8611C29.7907 78.5781 29.8786 78.3109 30.0105 78.0844C30.1192 77.8951 30.4555 77.8289 30.4787 77.7931C30.5072 77.7494 30.2925 77.4607 30.2692 77.3967C30.0881 76.9115 30.2278 76.4295 30.8021 76.3772Z" fill="#E52A30" stroke="#E52A30" stroke-width="0.5" stroke-miterlimit="10" stroke-linecap="round" stroke-linejoin="round"/>
<path d="M19.4389 75.029C20.414 74.8602 21.7488 75.5976 22.2765 76.073C23.7121 77.3649 24.5968 79.6156 24.4752 81.5504C24.3122 84.1519 22.8688 86.7599 20.2252 87.4406C19.3949 87.6542 16.6116 88.1627 16.3762 86.7446C16.2857 86.2015 16.7435 85.9646 17.2583 85.79C16.9246 85.2507 17.1522 84.1853 17.0384 83.5083C16.9065 82.7199 16.2701 82.5785 15.8511 82.0196C15.2329 81.1955 14.9173 80.4024 15.0673 79.3497C15.1475 78.7752 15.5795 78.4464 16.0865 78.3221C16.0968 78.277 16.1098 78.2294 16.1175 78.1846C16.146 78.0443 15.9339 77.97 15.9727 77.7799C15.996 77.659 16.0942 77.592 16.1511 77.497C16.3348 77.1865 16.49 76.6863 16.8444 76.6715C16.9634 76.6666 17.1031 76.7135 17.2738 76.8414C17.4833 76.9985 17.654 77.1741 17.654 77.4402C17.654 77.5265 17.4988 77.827 17.5635 77.8933C17.7135 78.0427 17.936 77.985 18.1559 77.9337C18.1326 77.6981 18.1326 77.4545 18.1455 77.1813C18.1584 76.9493 18.0265 76.757 18.099 76.5177C18.1584 76.3163 18.3214 76.3186 18.4792 76.3155C18.4611 76.0439 18.4766 75.7729 18.6318 75.5388C18.831 75.2393 19.1155 75.0855 19.4389 75.029Z" fill="#E52A30" stroke="#E52A30" stroke-width="0.5" stroke-miterlimit="10" stroke-linecap="round" stroke-linejoin="round"/>
<path d="M17.2969 79.9014L7.05346 75.8557" stroke="#E52A30" stroke-width="0.5" stroke-miterlimit="10" stroke-linejoin="round"/>
<path d="M6.04202 75.3938L6.95255 76.3272L7.3457 75.4117L6.04202 75.3938Z" fill="#E52A30" stroke="#E52A30" stroke-width="0.5" stroke-miterlimit="10" stroke-linejoin="round"/>
<path d="M23.5989 43.9753C32.179 43.9753 39.127 45.7491 39.127 47.94V51.9127C39.127 53.5739 35.1253 54.987 29.4526 55.5778V84.7615C31.9359 84.8464 33.7854 84.9653 33.7854 85.1178V85.5789C33.7854 85.5924 33.6405 85.6061 33.6147 85.6193V88.8556H29.4526H17.7478H13.5832V85.6193C13.5599 85.6061 13.415 85.5924 13.415 85.5789V85.1178C13.415 84.9653 15.2619 84.8464 17.7478 84.7615V55.5778C12.0725 54.987 8.06309 53.5739 8.06309 51.9127V47.94C8.06309 45.7491 15.0214 43.9753 23.5989 43.9753Z" fill="#E52A30" stroke="#E52A30" stroke-width="0.5" stroke-miterlimit="10" stroke-linejoin="round"/>
<path d="M105.638 57.6406L107.966 60.1976L107.957 60.2217C107.957 60.2279 107.966 60.2217 107.966 60.2217V66.1442H110.569V67.2609L158.067 71.3711L170.281 72.431V72.6573V88.8555H161.81V88.5481V85.3198H162.885V83.038H164.089C164.089 79.0829 161.323 75.8776 157.913 75.8776C154.504 75.8776 151.738 79.0829 151.738 83.038H152.934V85.3198H154.009V88.5481V88.8555H141.148V88.5318V85.1013H142.296V82.666H143.573C143.573 78.4587 140.628 75.0522 137.002 75.0522C133.375 75.0525 130.438 78.4587 130.438 82.666H131.707V85.1013H132.847V88.5238V88.8555H120.447V88.5155V84.9071H121.651V82.3504H122.993C122.993 77.9292 119.901 74.3485 116.09 74.3485C112.278 74.3485 109.186 77.9292 109.186 82.3504H110.52V84.9071H111.725V88.5075V88.8555H99.5426V88.5155V84.9071H100.747V82.3504H102.089C102.089 77.9292 98.9971 74.3485 95.1856 74.3485C91.3743 74.3485 88.2824 77.9292 88.2824 82.3504H89.6161V84.9071H90.8205V88.5075V88.8555H78.4206V88.5318V85.1013H79.5683V82.666H80.8373C80.8373 78.4587 77.9006 75.0522 74.2738 75.0522C70.6467 75.0525 67.7017 78.4587 67.7017 82.666H68.971V85.1013H70.1188V88.5238V88.8555H57.2579V88.5481V85.3198H58.3412V83.038H59.5376C59.5376 79.0829 56.7713 75.8776 53.3618 75.8776C49.952 75.8776 47.1862 79.0829 47.1862 83.038H48.3813V85.3198H49.4574V88.5481V88.8555H40.9937V72.6573V72.431L53.2081 71.3711L100.715 67.2609V66.1442H103.318V60.2217H103.326L103.318 60.1976L105.638 57.6406Z" fill="#E52A30" stroke="#E52A30" stroke-width="0.5" stroke-miterlimit="10" stroke-linecap="round" stroke-linejoin="round"/>
<path d="M257.389 52.4788C257.399 52.4788 257.405 52.485 257.405 52.4951C257.418 54.0472 257.447 55.6028 257.445 57.1554C257.445 57.1875 257.421 57.2119 257.389 57.2119C257.357 57.2119 257.324 57.1875 257.324 57.1554C257.323 55.603 257.352 54.0472 257.365 52.4951C257.365 52.485 257.379 52.4788 257.389 52.4788Z" fill="#E52A30"/>
<path d="M184.718 52.4788C184.729 52.4788 184.743 52.485 184.743 52.4951C184.756 54.0472 184.785 55.6028 184.783 57.1554C184.783 57.1875 184.751 57.2119 184.718 57.2119C184.686 57.2119 184.662 57.1875 184.662 57.1554C184.661 55.603 184.69 54.0472 184.702 52.4951C184.702 52.485 184.709 52.4788 184.718 52.4788Z" fill="#E52A30"/>
<path d="M221.053 50.2537L239.75 58.1263L238.942 62.6005C239.276 62.6031 239.687 62.5984 240.017 62.6005C244.271 62.6362 247.783 62.6898 251.318 62.746C251.294 62.6626 251.255 62.5526 251.237 62.4791C250.928 62.2637 250.743 62.0309 250.744 61.7831C250.744 61.4613 251.114 61.1739 251.625 60.9096C251.909 59.5115 253.555 57.7778 255.076 56.8478C255.291 56.7168 255.512 56.5433 255.715 56.4514C255.741 56.4382 255.761 56.4144 255.788 56.4027C255.797 56.3991 255.804 56.3973 255.812 56.3947C256.293 56.1697 256.819 56.0387 257.38 56.0387C257.938 56.0387 258.47 56.1656 258.949 56.3867C259.011 56.4159 259.065 56.4602 259.126 56.4918C259.295 56.571 259.476 56.7178 259.652 56.8235C261.189 57.7462 262.887 59.5034 263.168 60.9176C263.666 61.1794 264.025 61.4655 264.025 61.7831C264.025 62.0255 263.846 62.2575 263.548 62.4711C263.51 62.6217 263.43 62.8423 263.37 63.0373C267.066 63.1727 269.714 63.3169 269.756 63.4824C269.757 63.4842 269.78 63.4886 269.78 63.4904C269.781 63.4922 269.805 63.4878 269.805 63.4904C269.805 64.2091 267.928 65.2717 267.501 65.6994C267.485 66.3448 267.217 66.792 267.032 66.9856C267.072 67.9703 267.12 68.9119 266.895 69.0973C266.895 69.1589 266.9 69.2705 266.903 69.3806C267.132 69.6962 267.282 70.0182 267.283 70.3434C267.283 70.8242 266.99 71.2944 266.498 71.7511V88.8635H175.608V71.7511C175.116 71.2944 174.815 70.8237 174.816 70.3434C174.816 70.0175 174.975 69.6962 175.204 69.3806C175.205 69.3158 175.211 69.2356 175.212 69.1947C174.986 69.009 175.034 68.0601 175.074 67.0747C174.889 66.881 174.621 66.4425 174.605 65.7962C174.178 65.3688 172.302 64.2982 172.302 63.5794C172.302 63.5559 172.535 63.5605 172.617 63.5471C172.558 63.5277 172.326 63.5101 172.326 63.4904C172.326 63.3236 175.002 63.175 178.744 63.0373C178.685 62.8462 178.613 62.6292 178.574 62.4791C178.266 62.2637 178.081 62.0304 178.081 61.7831C178.081 61.4613 178.452 61.1739 178.962 60.9096C179.247 59.5115 180.892 57.7778 182.414 56.8478C182.628 56.7168 182.85 56.5433 183.053 56.4514C183.079 56.4382 183.099 56.4147 183.125 56.4027C183.134 56.3991 183.141 56.3976 183.15 56.3947C183.631 56.1697 184.157 56.0387 184.718 56.0387C185.275 56.0387 185.808 56.1651 186.286 56.3867C186.349 56.4159 186.403 56.46 186.464 56.4918C186.632 56.571 186.814 56.7178 186.989 56.8235C188.527 57.7462 190.224 59.5034 190.506 60.9176C191.004 61.1794 191.363 61.4655 191.363 61.7831C191.363 62.0255 191.184 62.258 190.886 62.4711C190.867 62.5443 190.82 62.6601 190.797 62.746C194.604 62.6847 198.533 62.6378 203.164 62.6005L202.356 58.1263L221.053 50.2537ZM238.093 70.1493V71.5813V77.6009V87.2129H239.928V77.4715V71.5569V70.1736C239.259 70.1676 238.781 70.1547 238.093 70.1493ZM204.013 70.1493C203.325 70.1542 202.847 70.1674 202.178 70.1736V71.5329V71.5569V77.4715V77.4958V87.2372H204.013V77.6252V77.6009V71.6056V71.5813V71.5652V71.5409V70.1493ZM242.127 70.1977V71.5329V77.2693V87.2129H243.962V77.0994V71.5085V70.222C243.339 70.2155 242.771 70.2044 242.127 70.1977ZM199.979 70.1977C199.335 70.2041 198.767 70.2148 198.144 70.222V70.2463V71.5005V71.5085V77.0994V77.1235V87.2372H199.979V77.2936V77.2693V71.5329V71.5166V70.222V70.1977ZM246.161 70.2463V71.4842V76.8972V87.2129H247.995V76.6787V71.4601V70.2707C247.424 70.2627 246.756 70.2544 246.161 70.2463ZM195.946 70.2463C195.602 70.251 195.223 70.2577 194.887 70.2624C194.624 70.266 194.353 70.2668 194.111 70.2707V71.4601V76.6787V76.703V87.2372H195.946V76.9213V76.8972V71.5085V71.4842V70.2463ZM250.299 70.295C250.264 70.2942 250.229 70.2953 250.194 70.295V71.4358V76.3711V87.2129H252.029V76.1205V71.4034V70.3271C251.481 70.3168 250.881 70.3049 250.299 70.295ZM191.912 70.295C191.297 70.3054 190.658 70.3163 190.077 70.3271V71.3871V71.4034V76.1205V76.1446V87.2372H191.912V76.3954V76.3711V71.4601V71.4358V71.4275V70.295ZM254.228 70.3838V71.3467V75.7805V87.2129H256.063V75.4002V71.298V70.4325C255.445 70.4159 254.912 70.3994 254.228 70.3838ZM187.879 70.3838C187.195 70.3996 186.661 70.4159 186.044 70.4325V71.298V71.3224V75.4002V75.4245V87.2372H187.879V75.8049V75.7805V71.371V71.3467V70.3838ZM258.261 70.4972V71.2333V74.9471V87.2129H260.096V74.5183V71.1849V70.5456C259.636 70.5275 258.796 70.5146 258.261 70.4972ZM183.845 70.4972C183.311 70.5146 182.47 70.5275 182.01 70.5456V71.1686V71.1849V71.2092V74.5264V74.5427V87.2372H183.845V74.9714V74.9554V71.2576V71.2333V70.4972ZM262.311 70.6508C262.302 70.65 262.305 70.6515 262.295 70.6508V71.0798V73.863V87.2129H264.13V73.1671V70.8613C264.13 70.7869 263.372 70.7186 262.311 70.6508ZM179.811 70.6751C179.802 70.6756 179.804 70.6743 179.795 70.6751C178.734 70.7427 177.976 70.8115 177.976 70.8856V73.1914V87.2372H179.811V73.8871V71.1039V70.6751ZM221.053 73.766C220.356 73.766 219.91 73.7776 219.267 73.782V74.146V78.135V87.2049H222.84V78.135V74.146V73.782C222.195 73.7776 221.751 73.766 221.053 73.766ZM225.006 73.8063V74.122V78.1027V87.2049H228.902V78.0297V73.9682C228.902 73.897 227.199 73.8421 225.006 73.8063ZM217.1 73.8063C214.905 73.8421 213.204 73.8967 213.204 73.9682V78.0297V87.2049H217.1V78.1027V74.122V73.8063Z" fill="#E52A30" stroke="#E52A30" stroke-width="0.5" stroke-miterlimit="10" stroke-linecap="round" stroke-linejoin="round"/>
</g>
<defs>
<clipPath id="clip0_412_1534">
<rect width="308" height="218" fill="white" transform="matrix(-1 0 0 1 308 -124)"/>
</clipPath>
</defs>
</svg>
