<svg width="115" height="98" viewBox="0 0 115 98" fill="none" xmlns="http://www.w3.org/2000/svg">
<path fill-rule="evenodd" clip-rule="evenodd" d="M87.9321 10.187L82.1209 35.2763L43.5339 26.1003L48.1643 0L65.9144 4.55327L66.879 0.277826L72.0497 1.92935L71.0464 5.86523L87.9321 10.187ZM77.9612 16.1062L78.8102 16.0599L78.9182 14.9332L79.3967 14.8329C79.3967 14.8329 79.6205 13.0193 77.9998 12.6565C77.5311 12.5505 77.0444 12.5524 76.5764 12.662C76.1085 12.7716 75.6716 12.9862 75.2987 13.2894L73.0298 9.94774L71.4863 11.6456L74.0022 14.6862C72.3121 17.1558 71.7333 21.0608 72.698 22.203L68.6849 28.1145L71.2625 28.7551L74.4421 24.1246L73.6704 29.4033L75.8698 29.9513L77.0197 20.5669L78.4397 20.0653L79.2732 21.0762L80.0912 20.3045L77.776 16.878L77.9612 16.1062ZM56.4297 14.7634C53.7517 14.4084 50.0551 17.0786 51.2513 20.3431L48.311 23.0133L50.6262 23.5998L52.7253 21.547L52.3317 24.0243L55.1177 24.7189L56.1364 17.7732C56.7333 17.8168 57.3264 17.9019 57.9114 18.0279C58.2278 16.8008 58.7449 15.0798 56.4297 14.7634ZM68.7235 13.9917C65.3664 10.7118 58.7603 18.8768 60.8595 21.2383L57.348 25.2977L59.779 25.9073L63.1284 22.6815L62.9586 26.6868L65.4899 27.3196V23.9085L66.8405 23.8622L67.5427 17.3487L69.2714 17.5957C69.2714 17.5957 69.858 15.0798 68.7235 13.9685V13.9917ZM48.3881 39.7755H40.5472C41.4347 41.7666 42.3917 44.1436 43.2638 46.7752C46.3485 46.9526 49.3955 47.5418 52.324 48.5271L49.8853 60.9366L46.0266 61.6158C46.1501 66.7633 45.2549 71.9494 42.5152 76.5335C40.6005 79.7172 37.8694 82.331 34.6049 84.1043L35.3766 91.05L42.9088 90.7953L43.9275 96.1975H15.4425L16.2143 91.7908L20.3276 91.6365L20.2582 88.1637C18.6221 88.3103 16.9088 88.3952 15.1184 88.4029C12.0314 93.3806 7.25436 97.5094 0 97.5094C7.96436 82.584 7.60164 73.4234 7.60164 55.7583C7.60164 37.8616 16.4767 22.6506 30.4452 22.6506C32.3977 22.6506 38.7723 22.8975 38.7723 22.8975L41.6354 31.3867C41.6354 31.3867 48.3881 32.5289 48.3881 39.7755ZM29.8664 91.2892L29.2953 86.4195C28.2534 86.7514 27.173 87.0524 26.0385 87.2993L25.9691 91.4358L29.8664 91.2892ZM29.0946 26.463C25.2359 26.463 25.1279 32.4748 28.8245 32.4748C33.2157 32.444 32.8916 26.4321 29.0869 26.4321L29.0946 26.463ZM36.2332 27.5126C35.966 27.4992 35.6988 27.5408 35.4482 27.6346C35.1976 27.7285 34.9689 27.8726 34.7761 28.0582C34.5834 28.2438 34.4306 28.4669 34.3273 28.7137C34.224 28.9606 34.1724 29.226 34.1756 29.4935C34.1787 29.7611 34.2366 30.0252 34.3457 30.2695C34.4548 30.5139 34.6128 30.7333 34.8099 30.9143C35.007 31.0952 35.2391 31.2339 35.4919 31.3218C35.7446 31.4097 36.0127 31.4449 36.2795 31.4253C38.8031 31.433 38.8186 27.5126 36.2332 27.5126ZM35.4152 39.4514L29.002 38.9498L26.6173 43.0477C31.4793 53.0803 34.0569 65.3356 27.3351 77.5985L20.7598 71.224C20.245 75.5619 19.1415 79.8096 17.4799 83.8496C28.0296 83.3789 35.1605 80.153 38.6719 74.2415C44.7378 64.0236 41.0334 50.4873 35.4152 39.4514ZM53.3041 60.3347V60.2884L59.4086 33.316L63.7921 34.3193L59.3468 51.7992C62.3798 53.69 64.6564 55.9126 65.5208 58.1738L57.3558 59.617L55.4881 66.9485L52.0385 65.9453L53.3041 60.3347Z" fill="#E52A30"/>
<path fill-rule="evenodd" clip-rule="evenodd" d="M110.695 72.3012L105.391 56.3892L104.536 61.7794L109.104 97.1969C109.104 97.1969 104.112 98.8743 103.23 94.4587C102.474 90.6597 98.7679 73.7532 98.7679 73.7532L96.8319 73.6405C96.8319 73.6405 93.3843 89.0287 92.3368 94.0808C91.329 99.0334 86.1908 97.0112 86.1908 97.0112L91.3489 60.0291L90.6329 56.2036L85.4615 72.6791C85.4615 72.6791 80.8205 72.6791 82.1465 67.3221C83.5122 61.7993 86.9201 47.7238 86.9201 47.7238C92.2241 42.4198 103.846 42.4198 109.091 47.7238C109.091 47.7238 112.943 63.4502 113.951 67.6138C114.958 71.7775 110.695 72.3012 110.695 72.3012ZM92.602 34.9279C92.602 26.5609 104.675 28.0394 103.74 35.4915C102.845 42.6651 92.602 43.4077 92.602 34.9279Z" fill="#E52A30"/>
</svg>
