<svg width="100" height="111" viewBox="0 0 100 111" fill="none" xmlns="http://www.w3.org/2000/svg">
<path fill-rule="evenodd" clip-rule="evenodd" d="M100 11.585L93.3913 40.1176L49.5085 29.6823L54.7744 0L74.9605 5.17816L76.0576 0.315955L81.9379 2.19414L80.7969 6.67018L100 11.585ZM88.6607 18.3167L89.6261 18.264L89.749 16.9826L90.2931 16.8685C90.2931 16.8685 90.5477 14.806 88.7046 14.3935C88.1715 14.2729 87.618 14.2751 87.0858 14.3997C86.5537 14.5244 86.0568 14.7684 85.6328 15.1132L83.0525 11.313L81.2972 13.2438L84.1583 16.7018C82.2363 19.5103 81.578 23.9512 82.6751 25.2501L78.1113 31.973L81.0426 32.7014L84.6586 27.4355L83.7809 33.4387L86.2822 34.0618L87.59 23.3895L89.2048 22.819L90.1527 23.9688L91.083 23.0911L88.4501 19.1943L88.6607 18.3167ZM64.1741 16.7895C61.1287 16.3858 56.9247 19.4225 58.2851 23.135L54.9412 26.1717L57.5742 26.8387L59.9614 24.5041L59.5138 27.3214L62.6821 28.1113L63.8406 20.2124C64.5194 20.262 65.1939 20.3588 65.8592 20.502C66.2191 19.1065 66.8071 17.1494 64.1741 16.7895ZM78.1552 15.9119C74.3374 12.1819 66.8246 21.4674 69.2119 24.1531L65.2185 28.7695L67.9832 29.4629L71.7922 25.7943L71.5991 30.3493L74.4778 31.069V27.1898L76.0137 27.1371L76.8124 19.7297L78.7783 20.0105C78.7783 20.0105 79.4453 17.1494 78.1552 15.8856V15.9119ZM55.029 45.2343H46.112C47.1213 47.4987 48.2096 50.2019 49.2013 53.1947C52.7094 53.3964 56.1746 54.0664 59.505 55.187L56.7316 69.2996L52.3433 70.072C52.4838 75.9259 51.4657 81.8238 48.35 87.037C46.1725 90.6576 43.0666 93.6302 39.354 95.6468L40.2317 103.546L48.7976 103.256L49.9561 109.4H17.5619L18.4395 104.388L23.1174 104.213L23.0384 100.263C21.1778 100.43 19.2294 100.527 17.1933 100.535C13.6826 106.196 8.24996 110.892 0 110.892C9.0574 93.9179 8.6449 83.5001 8.6449 63.4106C8.6449 43.0578 18.7379 25.7592 34.6235 25.7592C36.844 25.7592 44.0934 26.04 44.0934 26.04L47.3495 35.6942C47.3495 35.6942 55.029 36.9932 55.029 45.2343ZM33.9652 103.818L33.3158 98.2798C32.1309 98.6572 30.9022 98.9995 29.6121 99.2803L29.5331 103.985L33.9652 103.818ZM33.0876 30.0948C28.6993 30.0948 28.5764 36.9317 32.7804 36.9317C37.7743 36.8966 37.4057 30.0597 33.0788 30.0597L33.0876 30.0948ZM41.2059 31.2884C40.902 31.2733 40.5981 31.3205 40.3132 31.4272C40.0282 31.5339 39.7681 31.6979 39.5488 31.9089C39.3296 32.12 39.1559 32.3737 39.0384 32.6544C38.921 32.9352 38.8622 33.237 38.8658 33.5413C38.8694 33.8456 38.9353 34.1459 39.0594 34.4238C39.1835 34.7016 39.3631 34.9512 39.5873 35.157C39.8114 35.3628 40.0753 35.5205 40.3628 35.6205C40.6502 35.7204 40.9551 35.7604 41.2586 35.7381C44.1285 35.7469 44.146 31.2884 41.2059 31.2884ZM40.2756 44.8657L32.9823 44.2952L30.2703 48.9556C35.7995 60.3651 38.7309 74.3023 31.0865 88.2482L23.6089 80.9988C23.0234 85.9321 21.7685 90.7627 19.8789 95.3572C31.8764 94.8218 39.986 91.1533 43.9793 84.4304C50.8777 72.8103 46.6649 57.4162 40.2756 44.8657ZM60.6196 68.6151V68.5624L67.5619 37.8884L72.547 39.0293L67.4917 58.9082C70.9408 61.0585 73.5299 63.5861 74.5129 66.1576L65.2273 67.7988L63.1034 76.1366L59.1803 74.9956L60.6196 68.6151Z" fill="#E52A30"/>
</svg>
