<svg width="308" height="94" viewBox="0 0 308 94" fill="none" xmlns="http://www.w3.org/2000/svg">
<g clip-path="url(#clip0_925_1204)">
<path d="M288.066 51.0653C291.909 51.0653 295.126 52.7596 296.223 55.0784C297.726 55.4437 298.664 55.9108 298.664 56.4214V56.818C300.224 57.5572 301.17 58.4634 301.17 59.4475V61.1464C303.754 61.9892 305.373 63.0751 305.373 64.2697C305.373 65.1124 304.53 65.8954 303.166 66.5835C303.434 66.9867 303.611 67.3973 303.611 67.8297C303.611 68.1688 303.512 68.5026 303.344 68.8249V69.0838C303.513 69.2557 303.611 69.4362 303.611 69.6177C303.611 69.7971 303.51 69.9657 303.344 70.1355C303.343 70.1371 303.346 70.142 303.344 70.1435V71.1064C303.511 71.3353 303.611 71.5693 303.611 71.8104C303.611 72.0514 303.511 72.2855 303.344 72.5144V87.2235H303.878V88.858H272.255V87.2235H272.789V72.5144C272.621 72.2855 272.522 72.0514 272.522 71.8104C272.522 71.5693 272.621 71.3353 272.789 71.1064V70.1435V70.1355C272.623 69.9651 272.522 69.7961 272.522 69.6177C272.522 69.4367 272.62 69.256 272.789 69.0838V68.8249C272.621 68.5026 272.522 68.1688 272.522 67.8297C272.522 67.3978 272.698 66.9867 272.966 66.5835C271.603 65.8943 270.76 65.1119 270.76 64.2697C270.76 63.0743 272.379 61.9892 274.963 61.1464V59.4475C274.963 58.4652 275.908 57.5564 277.469 56.818V56.4214C277.469 55.9116 278.407 55.4448 279.91 55.0784C281.007 52.7575 284.224 51.0653 288.066 51.0653Z" stroke="#E52A30" stroke-miterlimit="10"/>
<path d="M288.066 51.0628C291.909 51.0628 295.126 52.7571 296.223 55.0759C297.726 55.4415 298.664 55.9083 298.664 56.4191V56.8155C300.224 57.5547 301.17 58.4609 301.17 59.445V61.1442C303.754 61.9869 305.373 63.0728 305.373 64.2672C305.373 65.1102 304.53 65.8931 303.166 66.5813C303.426 66.9715 303.592 67.3694 303.603 67.7868C303.171 67.5827 302.693 67.3875 302.132 67.2042V68.6769C302.561 68.7947 302.986 68.9122 303.344 69.0409V69.0813C303.513 69.2532 303.611 69.4339 303.611 69.6152C303.611 69.7946 303.51 69.9632 303.344 70.133C303.343 70.1348 303.346 70.1397 303.344 70.1413V71.1039C303.511 71.3328 303.611 71.5668 303.611 71.8079C303.611 72.0489 303.511 72.283 303.344 72.5119V87.221H303.878V88.8555H272.255V87.221H272.789V72.5119C272.621 72.283 272.522 72.0489 272.522 71.8079C272.522 71.5671 272.621 71.333 272.789 71.1039V70.1413V70.133C272.623 69.9626 272.522 69.7936 272.522 69.6152C272.522 69.4671 272.624 69.3216 272.74 69.1784C273.101 69.036 273.545 68.897 273.993 68.7657V67.2042C273.436 67.3852 272.959 67.5763 272.53 67.7787C272.543 67.3647 272.708 66.9689 272.966 66.5813C271.603 65.8921 270.76 65.1094 270.76 64.2672C270.76 63.0718 272.379 61.9869 274.963 61.1442V59.445C274.963 58.4627 275.908 57.5539 277.469 56.8155V56.4191C277.469 55.9093 278.407 55.4422 279.91 55.0759C281.007 52.7553 284.224 51.0628 288.066 51.0628ZM288.066 65.4889C287.148 65.4887 286.263 65.5211 285.383 65.5537V65.8289V67.1315V67.3417C286.339 67.3083 287.225 67.2286 288.228 67.2286C289.113 67.2288 289.893 67.2912 290.742 67.3176V67.1638V65.8289V65.5537C289.863 65.5211 288.984 65.4889 288.066 65.4889ZM292.65 65.6508V65.8289V67.2366V67.3904C294.263 67.4789 295.718 67.6205 297.112 67.7948V67.6573V66.1039C296.424 66.0034 295.731 65.9058 294.986 65.8289C294.241 65.753 293.444 65.7025 292.65 65.6508ZM283.475 65.6508C282.681 65.7025 281.884 65.752 281.139 65.8289C280.393 65.9053 279.7 66.0039 279.013 66.1039V67.633V67.7707C280.362 67.5954 281.912 67.5071 283.475 67.4145V67.2286V65.8289V65.6508ZM298.502 66.3304V67.8354V67.9566C299.412 68.0956 300.31 68.2375 301.073 68.4097V68.3126V66.8966C300.293 66.6882 299.441 66.4987 298.502 66.3304ZM277.622 66.3304C276.685 66.4992 275.838 66.688 275.06 66.8966V68.3854V68.4827C275.83 68.2997 276.689 68.1376 277.622 67.989V67.8595V66.3304ZM294.856 71.0959V71.4842V87.1969H296.732V71.4842V71.2981C296.102 71.2303 295.533 71.149 294.856 71.0959ZM281.268 71.1202C280.588 71.1769 280.024 71.2657 279.393 71.3387V71.4842V87.1969H281.268V71.4842V71.1202ZM298.502 71.5006V87.1969H300.28V71.7595C299.738 71.6606 299.113 71.5847 298.502 71.5006ZM277.622 71.5653C277.006 71.644 276.371 71.7149 275.844 71.8159V87.1969H277.622V71.5653ZM288.066 75.7725C286.56 75.7725 285.218 76.0045 284.17 76.3551V79.7126V87.1969H291.954V79.7126V76.3551C290.906 76.0043 289.572 75.7725 288.066 75.7725Z" fill="#E52A30"/>
<path d="M22.4883 19.2263C22.4159 19.2491 21.7976 20.155 21.7123 20.2733C21.0915 21.1368 20.4163 21.9917 19.6325 22.7146C18.9936 23.3036 18.3677 23.9014 17.7184 24.4822C17.0717 25.0645 16.319 25.5302 15.6723 26.1102C14.9066 26.7976 13.7892 27.1122 13.2304 28.0284C12.3587 29.4592 14.0711 31.0644 15.3852 31.2759C16.0344 31.3805 16.8803 31.1967 17.4856 30.9792C18.1038 30.7576 18.6936 30.4788 19.3247 30.2802" stroke="#E52A30" stroke-width="0.5" stroke-miterlimit="10" stroke-linecap="round" stroke-linejoin="round"/>
<path d="M30.7771 13.2541C30.8883 13.2541 30.9142 13.7471 30.9142 14.0792C30.9142 14.2271 30.1873 18.6303 30.089 19.0148C30.0968 19.0171 30.1123 19.0117 30.1149 19.0148C30.133 19.0593 30.0243 19.5533 30.0166 19.6297C30.0036 19.7757 29.983 19.9197 29.97 20.0668C29.9648 20.1069 29.9648 20.1475 29.9597 20.1879C29.9752 20.1998 29.9881 20.1897 30.0011 20.2042C30.1045 20.3207 30.1175 20.4572 30.1873 20.5846C30.2494 20.6998 30.3606 20.7464 30.4227 20.8595C30.5313 21.0589 30.2365 21.0418 30.2287 21.2236C30.2158 21.4773 30.327 21.7018 30.252 21.9599C30.2235 22.0539 29.7295 22.4112 29.4837 22.5585C29.6131 23.0074 29.3518 23.6239 29.9364 23.8613C30.2002 23.9675 30.6814 23.3492 30.834 23.1817C31.4419 22.5147 31.685 21.2541 32.6861 21.0377C32.8361 21.0045 33.0197 20.9437 33.1931 20.9403C33.2707 20.939 33.3302 20.9981 33.3974 21.0294C33.4103 21.0312 33.431 21.018 33.444 21.0214C33.4983 21.0346 33.5371 21.0876 33.5811 21.1184C33.5992 21.1384 33.625 21.1423 33.638 21.1671C33.6405 21.1694 33.638 21.1726 33.638 21.1751C33.7802 21.2883 33.9122 21.4335 34.0363 21.5472C34.5407 22.0148 34.9469 22.6292 35.3763 23.1654C35.6168 23.4644 35.9065 23.7575 35.9919 24.1039C36.3256 24.425 35.9634 25.0922 36.0721 25.6007C36.1393 25.9173 36.3695 26.1843 36.4264 26.5069C36.473 26.7583 36.3592 26.9695 36.3307 27.2108C36.2945 27.5166 36.279 27.833 36.3075 28.1414C36.3126 28.2133 36.323 28.4619 36.235 28.4974C36.1885 28.515 36.1445 28.4544 36.0953 28.4487C35.7487 28.4083 35.4176 28.3612 35.1021 28.1898C34.6908 27.9661 34.101 27.5399 33.9613 27.0653C33.9147 26.9048 33.9225 26.6653 34.0441 26.5395C34.0984 26.4823 34.2045 26.4634 34.2277 26.3774C34.2614 26.2679 34.2174 26.1597 34.2458 26.0538C34.282 25.9222 34.3959 25.858 34.4864 25.7708C34.5537 25.7089 34.6028 25.633 34.6571 25.5603C34.52 25.4497 34.37 25.3454 34.2846 25.2123C34.1398 24.9803 34.3209 24.6225 34.2122 24.3548C34.1191 24.1182 33.894 23.939 33.7285 23.7562C33.5448 23.5553 33.3664 23.3469 33.1853 23.141C32.8309 23.5222 32.6602 24.0607 32.4015 24.6541C31.9385 25.7198 31.5401 26.8869 30.834 27.8257C30.5287 28.2309 29.8226 28.93 29.2017 28.9504C29.15 29.1257 29.1009 29.2958 29.0543 29.4763C28.6922 30.9314 28.2162 32.3642 27.8748 33.8293C27.7661 34.2982 27.673 35.8804 27.2203 36.1512C27.2022 36.1618 27.1764 36.1445 27.1557 36.1512C27.2747 36.4342 27.4014 36.7527 27.5281 36.9523C27.6575 37.156 28.3068 38.0179 28.1179 38.2388C28.0145 38.361 27.7454 38.3281 27.6316 38.2468C27.2462 37.9646 26.8349 37.7313 26.3564 37.6239C26.1029 37.5672 25.6373 37.6928 25.4329 37.4864C25.3062 37.3572 25.4355 37.1436 25.4898 37.009C25.5855 36.778 25.7485 36.3767 25.6761 36.0785C25.4252 36.6087 24.3749 37.191 24.1396 37.713C23.8343 38.3903 24.2818 38.9707 24.2456 39.6465C24.2249 40.0162 24.018 40.4219 23.8576 40.7469C23.7464 40.9716 23.6351 41.2046 23.5265 41.4348C23.7283 42.2931 23.2859 43.2394 23.1954 44.0966C23.1411 44.6028 22.9419 45.1263 22.735 45.5853C22.6858 45.6941 22.6134 45.9719 22.4996 46.0304C22.2332 46.1697 21.8606 46.141 21.5709 46.1839C21.5063 46.1938 21.2605 46.3064 21.1985 46.2406C21.1493 46.1894 21.1105 45.1814 21.0847 45.0028C21.0096 44.4883 20.7949 44.0107 20.6889 43.506C20.6294 43.2202 20.632 42.9284 20.632 42.6402C20.6242 42.6371 20.619 42.6346 20.6087 42.6322C19.9542 42.5022 19.3153 42.32 18.7333 42.0093C18.6454 42.4688 18.4824 42.9137 18.1823 43.2632C18.0349 43.4354 17.753 43.5969 17.665 43.8134C17.6521 43.8491 17.8823 44.3066 17.8926 44.4202C17.9599 45.103 17.8073 46.2518 16.8657 45.998C16.6846 45.9494 16.5553 45.8238 16.4208 45.6987C16.4156 45.6923 16.4104 45.6809 16.4053 45.6744C16.1466 45.8818 15.8362 46.0081 15.4844 45.9817C15.3266 45.9701 15.2257 45.9035 15.0783 45.8686C14.8119 45.8049 14.5222 45.6734 14.4161 45.3992C14.3385 45.1985 14.4963 44.893 14.5791 44.7115C14.8093 44.1921 15.1249 43.7209 15.1611 43.1418C15.2051 42.3951 15.3059 41.5937 15.249 40.8442C15.1662 39.7498 15.1404 38.5674 15.4741 37.5105C15.5749 37.1993 15.3318 36.9531 15.3939 36.6773C15.3965 36.6677 15.4146 36.6553 15.4198 36.645C15.4042 36.6408 15.3706 36.6538 15.3628 36.645C15.1818 36.4425 15.4818 36.1274 15.5646 35.957C15.6448 35.7893 15.5672 35.5871 15.6526 35.4312C15.8673 35.0415 16.0897 34.6436 16.3173 34.25C16.5294 33.8788 16.7985 33.4096 16.8657 32.9796C16.9019 32.7471 16.8554 32.5192 16.9382 32.2919C17.0158 32.0845 17.2046 32.2438 17.2305 31.9766C17.2486 31.7531 16.9588 31.5004 17.0028 31.1592C17.039 30.8948 17.2227 30.6621 17.246 30.4068C17.3003 29.8056 17.2408 29.2428 17.1658 28.6429C17.1529 28.654 17.1399 28.6675 17.1322 28.6755C16.6096 29.2451 15.8466 29.7155 15.0628 29.3631C14.7808 29.2363 14.4782 29.04 14.2376 28.8453C14.1522 28.7754 14.0902 28.6768 13.9893 28.6348C13.6323 28.4906 12.7425 29.1651 12.5562 28.5377C12.4528 28.1807 12.7658 27.4612 13.1072 27.3079C13.2236 27.2556 13.3607 27.2341 13.4952 27.2352C13.6297 27.2365 13.7617 27.2629 13.8832 27.2919C14.2893 27.39 14.6023 27.7812 15.0136 27.8177C15.2645 27.8397 15.5284 27.8265 15.7819 27.7773C15.7974 27.7452 15.8207 27.7116 15.831 27.6802C15.8517 27.6119 15.8233 27.4993 15.8233 27.4294C15.8207 27.231 15.8465 27.0068 15.8543 26.8064C15.8853 26.1097 16.2553 25.1647 16.8735 24.7999C17.0934 24.6702 17.2951 24.587 17.5538 24.5814C17.8099 24.5757 18.0711 24.63 18.3298 24.6945C18.3324 24.6953 18.335 24.694 18.3375 24.6945C18.5522 24.5811 18.8575 24.4219 18.8782 24.3628C18.9636 24.1267 18.8549 23.9563 18.829 23.7319C18.7618 23.0667 18.516 22.3654 18.8782 21.7414C19.1938 21.1974 20.081 21.3683 20.5751 21.2479C20.7458 21.207 20.8803 21.128 21.0122 21.1024C21.1442 21.0765 21.2709 21.1011 21.4157 21.2559C21.7365 21.5969 21.6796 22.0508 21.8943 22.429C21.9486 22.5272 22.0443 22.5676 22.1038 22.6558L22.0805 22.6719L22.1038 22.6799C22.1167 22.6737 21.9822 22.8433 21.9512 22.8821C21.8348 23.0261 21.7572 23.2236 21.7882 23.4163C21.8555 23.822 21.9977 23.787 21.6097 24.0959C21.4597 24.2171 21.3485 24.3742 21.214 24.5086C21.214 24.5086 21.1648 24.5459 21.1752 24.557C21.2528 24.6357 21.2761 24.461 21.2942 24.4519C21.3537 24.4234 21.5192 24.5226 21.5632 24.549C21.6149 24.5801 21.8193 24.8483 21.8219 24.8483C21.8477 24.8483 22.0624 24.4672 22.0883 24.4356C22.1736 24.3224 22.4116 24.1583 22.4582 24.0392C22.5358 23.851 22.3935 23.4888 22.3961 23.2868C22.3961 22.7887 22.4168 22.2292 22.3625 21.7334C22.3289 21.4379 22.2875 21.1091 22.3392 20.8109C22.3677 20.6299 22.4685 20.3443 22.5487 20.0668C22.3366 19.4995 22.2254 18.8747 22.2409 18.5374C22.2564 18.198 22.6005 17.8249 22.5254 17.4857C22.4685 17.2377 22.078 16.9366 22.1116 16.6683C22.1168 16.6373 22.453 16.6473 22.4996 16.6523C22.6186 16.6642 22.722 16.5011 22.8229 16.4581C23.0169 16.3758 23.2523 16.4042 23.4386 16.3126C23.7826 16.1404 23.9145 15.5307 24.3827 15.5923C24.6905 15.6327 24.8069 16.0138 25.0216 16.1831C25.3191 16.4167 25.7252 16.406 25.9917 16.717C26.2063 16.9661 25.9684 17.3071 25.9348 17.5665C25.8804 17.9937 25.9451 18.5752 26.1055 18.9744C26.2891 19.434 26.0615 19.8475 25.9114 20.2609C25.8675 20.38 25.839 20.5196 25.839 20.6493C25.839 20.6511 25.839 20.6547 25.839 20.6573C26.0615 20.9017 26.2684 21.1609 26.4935 21.4017C26.6202 21.5392 26.8815 21.898 27.091 21.8871C27.2255 21.8802 27.4557 21.2836 27.6006 21.1751C27.7972 21.0294 28.0791 20.9214 28.3275 20.9162C28.4232 20.9142 28.5887 20.9411 28.6767 20.8999C28.9276 20.7803 29.3182 20.183 29.67 20.0908C29.6803 20.088 29.6906 20.1012 29.701 20.0989C29.7243 19.9715 29.7424 19.8454 29.7682 19.7188C29.7889 19.6046 29.8355 19.1536 29.8976 19.0472C29.8924 19.0394 29.8795 19.0148 29.8795 19.0148C29.8795 19.0148 30.446 14.449 30.446 14.1036C30.446 13.9537 30.6658 13.2541 30.7771 13.2541Z" fill="#E52A30" stroke="#E52A30" stroke-width="0.5" stroke-miterlimit="10" stroke-linejoin="round"/>
<path d="M29.9186 87.4191L34.3574 70.9274" stroke="#E52A30" stroke-width="0.5" stroke-miterlimit="10" stroke-linejoin="round"/>
<path d="M34.6283 69.9603L34.0179 70.916L34.6387 71.0946L34.6283 69.9603Z" fill="#E52A30" stroke="#E52A30" stroke-width="0.5" stroke-miterlimit="10" stroke-linejoin="round"/>
<path d="M30.8021 76.3771C31.3608 76.3266 31.0556 76.6666 31.1745 76.7655C31.3349 76.8991 31.4824 76.9123 31.5057 77.1701C31.5082 77.2095 31.3323 77.2087 31.3453 77.2429C31.4281 77.4658 31.6091 77.4762 31.5134 77.777C31.4643 77.9352 31.172 77.9489 31.1979 78.141C31.2263 78.3482 31.3039 78.5426 31.3608 78.7479C31.366 78.7495 31.3711 78.7461 31.3763 78.7479C31.5367 78.7976 31.6971 78.9351 31.8704 78.9178C32.0644 78.8981 32.0463 78.3567 32.411 78.5131C32.7214 78.6462 32.6387 79.2396 32.3619 79.3628C32.1213 79.4703 31.754 79.5397 31.441 79.5407C31.4539 79.8765 31.4694 80.2136 31.4824 80.552C31.4876 80.726 31.5419 80.908 31.5703 81.0942C31.6764 81.4698 31.516 82.0076 31.3919 82.5749C31.2755 83.1211 31.3142 83.7757 31.3453 84.3225C31.3686 84.7665 32.8481 86.0517 31.9816 86.4908C31.7255 86.6208 31.4591 86.787 31.159 86.7417C29.7415 86.5266 27.3488 83.524 27.9903 82.049C28.0084 82.0063 28.0421 81.9757 28.0628 81.9356C27.9541 81.6827 27.8558 81.4237 27.7782 81.1669C27.6463 80.7244 27.5428 80.1828 27.5945 79.7188C27.6592 79.1143 27.279 77.5831 28.4352 77.7283C28.9293 77.7907 29.0302 78.5154 29.4052 78.7559C29.501 78.8178 29.6199 78.8336 29.7364 78.8611C29.7907 78.5781 29.8786 78.3109 30.0105 78.0843C30.1192 77.8951 30.4555 77.8288 30.4787 77.7931C30.5072 77.7493 30.2925 77.4606 30.2692 77.3967C30.0881 76.9115 30.2278 76.4294 30.8021 76.3771Z" fill="#E52A30" stroke="#E52A30" stroke-width="0.5" stroke-miterlimit="10" stroke-linecap="round" stroke-linejoin="round"/>
<path d="M19.4389 75.029C20.414 74.8602 21.7488 75.5976 22.2765 76.073C23.7121 77.3649 24.5968 79.6156 24.4752 81.5504C24.3122 84.1519 22.8688 86.7599 20.2252 87.4406C19.3949 87.6542 16.6116 88.1627 16.3762 86.7446C16.2857 86.2015 16.7435 85.9646 17.2583 85.79C16.9246 85.2507 17.1522 84.1853 17.0384 83.5083C16.9065 82.7199 16.2701 82.5785 15.8511 82.0196C15.2329 81.1955 14.9173 80.4024 15.0673 79.3497C15.1475 78.7752 15.5795 78.4464 16.0865 78.3221C16.0968 78.277 16.1098 78.2294 16.1175 78.1846C16.146 78.0443 15.9339 77.97 15.9727 77.7799C15.996 77.659 16.0942 77.592 16.1511 77.497C16.3348 77.1865 16.49 76.6863 16.8444 76.6715C16.9634 76.6666 17.1031 76.7135 17.2738 76.8414C17.4833 76.9985 17.654 77.1741 17.654 77.4402C17.654 77.5265 17.4988 77.827 17.5635 77.8933C17.7135 78.0427 17.936 77.985 18.1559 77.9337C18.1326 77.6981 18.1326 77.4545 18.1455 77.1813C18.1584 76.9493 18.0265 76.757 18.099 76.5177C18.1584 76.3163 18.3214 76.3186 18.4792 76.3155C18.4611 76.0439 18.4766 75.7729 18.6318 75.5388C18.831 75.2393 19.1155 75.0855 19.4389 75.029Z" fill="#E52A30" stroke="#E52A30" stroke-width="0.5" stroke-miterlimit="10" stroke-linecap="round" stroke-linejoin="round"/>
<path d="M17.2969 79.9014L7.05346 75.8557" stroke="#E52A30" stroke-width="0.5" stroke-miterlimit="10" stroke-linejoin="round"/>
<path d="M6.04202 75.3938L6.95255 76.3272L7.3457 75.4117L6.04202 75.3938Z" fill="#E52A30" stroke="#E52A30" stroke-width="0.5" stroke-miterlimit="10" stroke-linejoin="round"/>
<path d="M23.5989 43.9752C32.179 43.9752 39.127 45.749 39.127 47.9399V51.9126C39.127 53.5737 35.1253 54.9869 29.4526 55.5777V84.7614C31.9359 84.8463 33.7854 84.9652 33.7854 85.1177V85.5788C33.7854 85.5922 33.6405 85.606 33.6147 85.6192V88.8555H29.4526H17.7478H13.5832V85.6192C13.5599 85.606 13.415 85.5922 13.415 85.5788V85.1177C13.415 84.9652 15.2619 84.8463 17.7478 84.7614V55.5777C12.0725 54.9869 8.06309 53.5737 8.06309 51.9126V47.9399C8.06309 45.749 15.0214 43.9752 23.5989 43.9752Z" fill="#E52A30" stroke="#E52A30" stroke-width="0.5" stroke-miterlimit="10" stroke-linejoin="round"/>
<path d="M105.638 57.6406L107.966 60.1976L107.957 60.2217C107.957 60.2279 107.966 60.2217 107.966 60.2217V66.1442H110.569V67.2609L158.067 71.3711L170.281 72.431V72.6573V88.8555H161.81V88.5481V85.3198H162.885V83.038H164.089C164.089 79.0829 161.323 75.8776 157.913 75.8776C154.504 75.8776 151.738 79.0829 151.738 83.038H152.934V85.3198H154.009V88.5481V88.8555H141.148V88.5318V85.1013H142.296V82.666H143.573C143.573 78.4587 140.628 75.0522 137.002 75.0522C133.375 75.0525 130.438 78.4587 130.438 82.666H131.707V85.1013H132.847V88.5238V88.8555H120.447V88.5155V84.9071H121.651V82.3504H122.993C122.993 77.9292 119.901 74.3485 116.09 74.3485C112.278 74.3485 109.186 77.9292 109.186 82.3504H110.52V84.9071H111.725V88.5075V88.8555H99.5426V88.5155V84.9071H100.747V82.3504H102.089C102.089 77.9292 98.9971 74.3485 95.1856 74.3485C91.3743 74.3485 88.2824 77.9292 88.2824 82.3504H89.6161V84.9071H90.8205V88.5075V88.8555H78.4206V88.5318V85.1013H79.5683V82.666H80.8373C80.8373 78.4587 77.9006 75.0522 74.2738 75.0522C70.6467 75.0525 67.7017 78.4587 67.7017 82.666H68.971V85.1013H70.1188V88.5238V88.8555H57.2579V88.5481V85.3198H58.3412V83.038H59.5376C59.5376 79.0829 56.7713 75.8776 53.3618 75.8776C49.952 75.8776 47.1862 79.0829 47.1862 83.038H48.3813V85.3198H49.4574V88.5481V88.8555H40.9937V72.6573V72.431L53.2081 71.3711L100.715 67.2609V66.1442H103.318V60.2217H103.326L103.318 60.1976L105.638 57.6406Z" fill="#E52A30" stroke="#E52A30" stroke-width="0.5" stroke-miterlimit="10" stroke-linecap="round" stroke-linejoin="round"/>
<path d="M257.389 52.4788C257.399 52.4788 257.405 52.485 257.405 52.4951C257.418 54.0472 257.447 55.6028 257.445 57.1554C257.445 57.1875 257.421 57.2119 257.389 57.2119C257.357 57.2119 257.324 57.1875 257.324 57.1554C257.323 55.603 257.352 54.0472 257.365 52.4951C257.365 52.485 257.379 52.4788 257.389 52.4788Z" fill="#E52A30"/>
<path d="M184.718 52.4788C184.729 52.4788 184.743 52.485 184.743 52.4951C184.756 54.0472 184.785 55.6028 184.783 57.1554C184.783 57.1875 184.751 57.2119 184.718 57.2119C184.686 57.2119 184.662 57.1875 184.662 57.1554C184.661 55.603 184.69 54.0472 184.702 52.4951C184.702 52.485 184.709 52.4788 184.718 52.4788Z" fill="#E52A30"/>
<path d="M221.053 50.2537L239.75 58.1264L238.942 62.6006C239.276 62.6032 239.687 62.5985 240.017 62.6006C244.271 62.6363 247.783 62.6899 251.318 62.7461C251.294 62.6627 251.255 62.5527 251.237 62.4791C250.928 62.2637 250.743 62.031 250.744 61.7832C250.744 61.4614 251.114 61.174 251.625 60.9096C251.909 59.5115 253.555 57.7779 255.076 56.8479C255.291 56.7169 255.512 56.5434 255.715 56.4515C255.741 56.4383 255.761 56.4145 255.788 56.4028C255.797 56.3992 255.804 56.3974 255.812 56.3948C256.293 56.1698 256.819 56.0388 257.38 56.0388C257.938 56.0388 258.47 56.1656 258.949 56.3868C259.011 56.416 259.065 56.4603 259.126 56.4919C259.295 56.5711 259.476 56.7179 259.652 56.8235C261.189 57.7463 262.887 59.5035 263.168 60.9177C263.666 61.1794 264.025 61.4655 264.025 61.7832C264.025 62.0255 263.846 62.2575 263.548 62.4711C263.51 62.6218 263.43 62.8424 263.37 63.0373C267.066 63.1728 269.714 63.317 269.756 63.4824C269.757 63.4842 269.78 63.4886 269.78 63.4904C269.781 63.4923 269.805 63.4879 269.805 63.4904C269.805 64.2092 267.928 65.2717 267.501 65.6994C267.485 66.3449 267.217 66.792 267.032 66.9857C267.072 67.9703 267.12 68.912 266.895 69.0974C266.895 69.159 266.9 69.2706 266.903 69.3806C267.132 69.6962 267.282 70.0183 267.283 70.3435C267.283 70.8243 266.99 71.2945 266.498 71.7512V88.8635H175.608V71.7512C175.116 71.2945 174.815 70.8238 174.816 70.3435C174.816 70.0175 174.975 69.6962 175.204 69.3806C175.205 69.3159 175.211 69.2356 175.212 69.1947C174.986 69.0091 175.034 68.0602 175.074 67.0748C174.889 66.8811 174.621 66.4425 174.605 65.7963C174.178 65.3688 172.302 64.2982 172.302 63.5795C172.302 63.5559 172.535 63.5606 172.617 63.5471C172.558 63.5277 172.326 63.5101 172.326 63.4904C172.326 63.3237 175.002 63.1751 178.744 63.0373C178.685 62.8463 178.613 62.6293 178.574 62.4791C178.266 62.2637 178.081 62.0305 178.081 61.7832C178.081 61.4614 178.452 61.174 178.962 60.9096C179.247 59.5115 180.892 57.7779 182.414 56.8479C182.628 56.7169 182.85 56.5434 183.053 56.4515C183.079 56.4383 183.099 56.4147 183.125 56.4028C183.134 56.3992 183.141 56.3976 183.15 56.3948C183.631 56.1698 184.157 56.0388 184.718 56.0388C185.275 56.0388 185.808 56.1651 186.286 56.3868C186.349 56.416 186.403 56.46 186.464 56.4919C186.632 56.5711 186.814 56.7179 186.989 56.8235C188.527 57.7463 190.224 59.5035 190.506 60.9177C191.004 61.1794 191.363 61.4655 191.363 61.7832C191.363 62.0255 191.184 62.258 190.886 62.4711C190.867 62.5444 190.82 62.6601 190.797 62.7461C194.604 62.6847 198.533 62.6379 203.164 62.6006L202.356 58.1264L221.053 50.2537ZM238.093 70.1493V71.5813V77.601V87.213H239.928V77.4715V71.557V70.1737C239.259 70.1677 238.781 70.1548 238.093 70.1493ZM204.013 70.1493C203.325 70.1542 202.847 70.1674 202.178 70.1737V71.5329V71.557V77.4715V77.4959V87.2373H204.013V77.6253V77.601V71.6057V71.5813V71.5653V71.541V70.1493ZM242.127 70.1977V71.5329V77.2693V87.213H243.962V77.0995V71.5086V70.2221C243.339 70.2156 242.771 70.2045 242.127 70.1977ZM199.979 70.1977C199.335 70.2042 198.767 70.2148 198.144 70.2221V70.2464V71.5006V71.5086V77.0995V77.1235V87.2373H199.979V77.2936V77.2693V71.5329V71.5166V70.2221V70.1977ZM246.161 70.2464V71.4843V76.8973V87.213H247.995V76.6787V71.4602V70.2707C247.424 70.2627 246.756 70.2544 246.161 70.2464ZM195.946 70.2464C195.602 70.2511 195.223 70.2578 194.887 70.2625C194.624 70.2661 194.353 70.2669 194.111 70.2707V71.4602V76.6787V76.7031V87.2373H195.946V76.9213V76.8973V71.5086V71.4843V70.2464ZM250.299 70.2951C250.264 70.2943 250.229 70.2953 250.194 70.2951V71.4358V76.3712V87.213H252.029V76.1205V71.4035V70.3272C251.481 70.3168 250.881 70.3049 250.299 70.2951ZM191.912 70.2951C191.297 70.3054 190.658 70.3163 190.077 70.3272V71.3872V71.4035V76.1205V76.1446V87.2373H191.912V76.3955V76.3712V71.4602V71.4358V71.4276V70.2951ZM254.228 70.3839V71.3468V75.7806V87.213H256.063V75.4002V71.2981V70.4326C255.445 70.416 254.912 70.3994 254.228 70.3839ZM187.879 70.3839C187.195 70.3997 186.661 70.416 186.044 70.4326V71.2981V71.3224V75.4002V75.4246V87.2373H187.879V75.8049V75.7806V71.3711V71.3468V70.3839ZM258.261 70.4973V71.2334V74.9472V87.213H260.096V74.5184V71.185V70.5457C259.636 70.5276 258.796 70.5146 258.261 70.4973ZM183.845 70.4973C183.311 70.5146 182.47 70.5276 182.01 70.5457V71.1686V71.185V71.2093V74.5264V74.5427V87.2373H183.845V74.9715V74.9554V71.2577V71.2334V70.4973ZM262.311 70.6508C262.302 70.65 262.305 70.6516 262.295 70.6508V71.0798V73.8631V87.213H264.13V73.1672V70.8613C264.13 70.787 263.372 70.7187 262.311 70.6508ZM179.811 70.6752C179.802 70.6757 179.804 70.6744 179.795 70.6752C178.734 70.7427 177.976 70.8116 177.976 70.8857V73.1915V87.2373H179.811V73.8872V71.1039V70.6752ZM221.053 73.766C220.356 73.766 219.91 73.7777 219.267 73.7821V74.1461V78.1351V87.2049H222.84V78.1351V74.1461V73.7821C222.195 73.7777 221.751 73.766 221.053 73.766ZM225.006 73.8064V74.122V78.1027V87.2049H228.902V78.0297V73.9682C228.902 73.897 227.199 73.8421 225.006 73.8064ZM217.1 73.8064C214.905 73.8421 213.204 73.8968 213.204 73.9682V78.0297V87.2049H217.1V78.1027V74.122V73.8064Z" fill="#E52A30" stroke="#E52A30" stroke-width="0.5" stroke-miterlimit="10" stroke-linecap="round" stroke-linejoin="round"/>
</g>
<defs>
<clipPath id="clip0_925_1204">
<rect width="308" height="218" fill="white" transform="matrix(-1 0 0 1 308 -124)"/>
</clipPath>
</defs>
</svg>
