<svg width="100" height="100" viewBox="0 0 100 100" fill="none" xmlns="http://www.w3.org/2000/svg">
<circle cx="50" cy="50" r="50" fill="white"/>
<path fill-rule="evenodd" clip-rule="evenodd" d="M61.8352 59.5393C61.5689 61.4877 59.1963 62.062 56.2958 61.4491C57.8392 51.9248 67.251 46.6946 68.2046 39.7057C71.102 18.4625 35.3168 13.4684 32.2284 36.0972C31.2264 43.4399 39.2629 48.4239 37.9961 59.3844C35.0695 59.3288 32.9767 58.28 33.2177 56.5186C33.8645 51.7749 26.1079 42.8556 27.0853 35.6941C31.0528 6.61085 77.0433 13.0296 73.3192 40.3307C72.2339 48.2912 62.2553 56.4594 61.8352 59.5393ZM42.5637 38.3866C42.8737 32.8132 47.2415 34.773 47.2415 34.773L45.9026 60.095L41.6133 59.7148C41.6133 59.7141 42.2538 43.96 42.5637 38.3866ZM57.4912 40.0888C56.0968 46.36 52.6374 60.8463 52.6374 60.8463L48.3457 60.4803L53.5062 35.3616C53.5062 35.3616 58.884 33.8185 57.4912 40.0888ZM34.9276 61.9742L59.0251 64.5062C59.0251 64.5062 58.1911 69.4796 57.9002 71.545C57.4785 74.5421 51.5514 77.8018 49.6608 77.5863C46.7659 77.2553 42.3005 76.7937 39.9319 76.5233C38.7643 76.3899 33.3525 72.4075 33.8265 69.0508C34.1602 66.6793 34.9276 61.9742 34.9276 61.9742ZM49.6846 79.7901C48.9307 85.1395 39.0219 84.1385 39.7805 78.755C41.9731 79.0047 45.9953 79.3699 49.6846 79.7901Z" fill="#E52A30"/>
</svg>
