<svg width="133" height="102" viewBox="0 0 133 102" fill="none" xmlns="http://www.w3.org/2000/svg">
<path fill-rule="evenodd" clip-rule="evenodd" d="M41.4276 58.5057C36.8767 58.5057 37.0993 52.0009 41.3534 52.0009C45.6075 52.0009 45.558 58.5057 41.4276 58.5057ZM31.0954 37.3467H11.9274C2.6526 37.3467 3.37604 29.3085 3.37604 29.3085L0 27.7132C0 22.8717 6.4491 21.6722 7.25292 27.7132L7.56208 30.4647H36.0049L36.6232 27.7132C37.8599 21.53 43.6412 22.8717 43.6412 27.7132L40.5496 29.2899C40.5496 29.2899 41.6069 37.3467 31.0954 37.3467ZM10.023 27.942L7.1849 7.88361C7.1849 2.07138 12.7931 0 21.7835 0C30.7739 0 36.0667 1.92917 36.0667 8.31644L33.7975 27.336L10.023 27.942ZM4.08093 52.0009C8.33498 52.0009 8.31025 58.5057 4.15513 58.5057C-0.395726 58.5057 -0.191681 52.0009 4.08093 52.0009ZM18.7166 43.1218L19.1494 38.6513L24.2197 39.0594L24.838 43.0909C36.8149 43.9009 40.9144 49.6142 40.9144 49.6142L37.5507 50.4242C37.5507 50.4242 34.7621 47.8025 24.8009 47.4253L23.9105 49.5895L20.5716 49.4411L19.6936 47.4439C9.97972 47.8891 7.5559 50.6962 7.5559 50.6962L4.00055 49.5895C4.00055 49.5895 7.16017 44.0184 18.7166 43.1218ZM22.7048 52.0009C26.9589 52.0009 26.9341 58.5057 22.779 58.5057C18.2281 58.5057 18.4322 52.0009 22.7048 52.0009Z" fill="#E52A30"/>
<path fill-rule="evenodd" clip-rule="evenodd" d="M17.3144 71.7C14.152 78.1898 17.9773 85.3197 24.7795 82.6254C24.0364 80.9709 23.3157 79.369 23.047 78.7788C22.4105 77.3795 23.5754 76.8376 23.5754 76.8376L39.752 82.8194L29.7651 98.1046C29.7651 98.1046 28.4122 98.4328 28.1249 96.3847C28.0104 95.5674 27.7854 93.9496 27.5569 92.2997C16.3481 96.9196 4.98945 83.0701 16.2489 71.4415L17.3144 71.7Z" fill="#E52A30"/>
<path fill-rule="evenodd" clip-rule="evenodd" d="M63.7194 28.6211L60.5584 10.0188L70.9297 21.872L63.7194 28.6211ZM116.515 22.4279L126.333 13.1456L122.694 28.8385L116.515 22.4279ZM129.634 30.6694L127.947 35.165L130.713 42.932L128.75 44.5191L126.329 40.9083L112.166 64.9049C111.663 66.0869 111.364 66.7901 111.364 66.7901L106.456 66.8839L111.788 50.4098L109.936 45.4223L105.324 48.8043L101.234 66.9847L96.7405 67.0715L95.4971 42.0947L91.9924 37.6517L88.7647 42.569L91.2935 67.1759L87.0689 67.2574L83.4703 52.8246L79.1115 49.9065L77.15 54.9308L81.5509 67.3635L76.3179 67.4644L75.7295 66.0132L60.9196 39.9157L57.4517 41.6843L55.7936 39.5851L60.2182 35.0931L54.6169 27.0647C54.4187 24.1053 56.8257 22.7988 59.6833 23.3723L63.3503 33.5253L69.4987 32.5327L70.2466 35.1606L67.3969 36.6135L70.0344 41.2897C72.579 41.1187 74.5984 39.6342 76.0057 36.6267L73.4427 29.2954L70.3712 30.1827C68.9743 25.8958 73.434 22.8584 73.434 22.8584L71.7899 16.5382L70.0651 16.5083C68.6482 11.5138 75.805 9.48219 77.2 14.3978L75.8067 15.3693L77.6761 21.6247C77.6761 21.6247 82.7154 21.6475 84.2376 26.1755L81.6807 26.9147L82.9933 31.3954C85.3424 31.7707 87.8151 31.1166 89.8476 29.5154L89.9125 23.552L86.1403 23.5661L85.6352 20.4918L91.5724 18.8022L92.0178 12.3881C89.2119 10.8124 89.9406 5.92922 93.6549 5.80909C97.6682 5.68107 98.417 11.121 95.583 12.5424L96.1328 18.4786L101.932 20.5041L101.386 23.5117L97.8032 23.5248L97.7892 28.5378C100.032 30.4879 102.755 31.2411 105.575 30.8702L106.745 27.4601L103.486 24.4841L105.295 22.1473L109.76 23.0891C109.76 23.0891 111.136 17.0581 111.648 15.1571C112.61 11.5814 118.261 13.5376 116.885 16.5636C115.892 18.7504 113.588 24.2132 113.588 24.2132L117.948 27.0848L117.721 29.7785L113.51 29.9337L111.342 35.6104C112.403 39.1949 114.533 41.1135 117.679 41.3274L119.869 37.614L116.132 37.4491L116.531 34.6836L123.822 33.1982L126.283 29.2366C124.388 26.7183 127.423 22.1806 130.969 24.0352C134.244 25.7476 132.81 30.4247 129.634 30.6694ZM98.0891 15.5701L107.207 0.155203L107.144 20.2814L98.0891 15.5701ZM81.0248 0L88.9567 15.4763L80.29 18.1928L81.0248 0ZM64.4726 63.3643L70.0239 62.9565L74.2205 70.0712L74.1153 75.9487H77.5446L79.8139 71.0226L107.582 71.6232L109.575 75.9496H113.004L112.915 70.9744L117.555 63.3643H123.718L123.311 78.282L129.133 97.306L60.511 97.5094L64.8804 77.8734L64.4726 63.3643Z" fill="#E52A30"/>
</svg>
