<svg width="200" height="200" viewBox="0 0 200 200" fill="none" xmlns="http://www.w3.org/2000/svg">
<circle cx="100" cy="100" r="100" fill="#E52A30"/>
<path d="M168.742 134.686C166.92 130.702 161.842 128.808 157.416 130.467L152.621 132.264L144.223 112.365C154.617 105.53 158.284 92.7779 151.709 82.5256L132.919 53.1356C131.183 50.4211 127.472 49.2885 124.239 50.4797L99.4386 59.7361L74.6377 50.4797C71.4047 49.269 67.6943 50.4211 65.9584 53.1356L47.1679 82.5256C40.6151 92.7779 44.2604 105.53 54.6538 112.345L46.2566 132.245L41.4613 130.448C37.0349 128.788 31.9793 130.682 30.1349 134.666C29.7661 135.467 30.1783 136.385 31.068 136.716L66.2839 149.879C67.1735 150.211 68.1717 149.839 68.5405 149.039C70.3632 145.055 68.2801 140.485 63.8537 138.826L59.0585 137.029L67.6075 116.798C68.5622 116.895 69.5169 117.052 70.4499 117.052C81.6678 117.052 92.0178 110.588 95.0555 100.394L99.4386 85.6696L103.822 100.394C106.859 110.588 117.209 117.052 128.427 117.052C129.36 117.052 130.315 116.895 131.27 116.798L139.797 137.029L135.002 138.826C130.575 140.485 128.471 145.055 130.315 149.039C130.684 149.839 131.704 150.211 132.572 149.879L167.809 136.716C168.677 136.385 169.111 135.486 168.742 134.686ZM89.8697 81.6663L65.5462 72.5857L73.466 60.2048L93.9706 67.8599L89.8697 81.6663ZM109.007 81.6663L104.906 67.8599L125.411 60.2048L133.331 72.5857L109.007 81.6663Z" fill="white"/>
</svg>
