<svg width="200" height="200" viewBox="0 0 200 200" fill="none" xmlns="http://www.w3.org/2000/svg">
<circle cx="100" cy="100" r="100" fill="#E52A30"/>
<path d="M154.289 50C148.856 54.681 142.322 58.3621 135.081 60.7071C127.526 61.9069 106.621 53.1812 96.32 62.0887C94.6031 63.6339 92.4823 65.1791 90.2605 66.7242C85.4129 64.8155 77.9395 61.9069 72.486 59.0893C67.0324 56.2716 53.2975 50 53.2975 50L23 81.8124C23 81.8124 30.4734 90.9017 35.119 96.9006C38.1488 100.9 41.8855 106.99 44.3093 111.08L40.8755 114.716C40.2898 115.761 39.9363 116.988 39.9363 118.288C39.9363 120.424 40.8654 122.369 42.3904 123.805C43.7841 124.741 45.5313 125.304 47.44 125.304C49.3487 125.304 51.0959 124.741 52.5098 123.787C51.5605 124.777 51.005 126.05 51.005 127.44C51.005 129.195 51.8937 130.758 53.2874 131.794C54.7417 132.567 56.4889 133.021 58.3471 133.021C60.2054 133.021 61.9525 132.567 63.4472 131.776C62.3161 133.039 61.6596 134.621 61.6596 136.348C61.6596 138.075 62.3161 139.656 63.4169 140.911C64.4167 141.229 65.5781 141.42 66.79 141.42C68.8806 141.42 70.8196 140.847 72.4254 139.875C71.9911 140.738 71.7689 141.72 71.7689 142.756C71.7689 144.883 72.7384 146.801 74.3139 148.164C75.6268 148.7 77.172 149.009 78.7878 149.009C81.0703 149.009 83.2012 148.391 84.9584 147.328L90.1696 143.083C94.9364 147.355 101.511 150 108.772 150C108.974 150 109.186 150 109.388 149.991C114.377 149.609 118.558 146.755 120.437 142.801C121.911 143.31 123.588 143.656 125.365 143.656C127.749 143.656 129.96 143.038 131.829 141.974C137.737 138.457 136.323 135.73 136.323 135.73C137.585 136.23 139.05 136.521 140.595 136.521C143.837 136.521 146.755 135.23 148.735 133.194C150.512 131.549 151.593 129.313 151.593 126.859C151.593 125.132 151.058 123.523 150.128 122.151C150.209 122.196 150.28 122.196 150.34 122.196C154.592 122.196 158.289 120.087 160.217 116.979C160.904 115.424 161.278 113.679 161.278 111.861C161.278 108.753 160.167 105.872 158.289 103.527L158.319 103.572C166.6 102.118 166.297 98.3912 170.337 92.9376C174.215 88.4476 178.941 84.7391 184.344 81.9578L154.289 50ZM153.784 114.17C149.341 118.169 145.907 116.442 138.333 111.262C130.758 106.081 115.71 96.3552 115.71 96.3552C116.326 99.1274 117.75 101.536 119.76 103.454C122.982 106.717 132.576 114.17 137.121 117.988C139.948 120.351 147.22 125.077 142.978 128.713C138.737 132.349 135.404 128.713 128.435 123.623C121.467 118.533 105.914 105.99 105.914 105.99C105.904 106.153 105.894 106.335 105.894 106.526C105.894 108.871 106.944 110.989 108.641 112.534C110.358 114.352 119.952 122.714 123.992 126.532C128.031 130.349 131.566 132.621 128.132 135.621C124.699 138.62 117.73 133.894 113.893 130.349C107.934 125.168 96.118 115.534 96.118 115.534C96.1079 115.679 96.1079 115.843 96.1079 116.015C96.1079 118.597 97.0976 120.96 98.764 122.832C101.673 126.268 107.328 130.722 110.762 134.176C114.196 137.63 116.215 140.538 110.762 143.265C105.308 145.992 97.2289 139.266 93.6942 135.993C93.6942 135.984 93.6942 135.984 93.6942 135.975C93.6942 135.039 93.3105 134.185 92.6843 133.53C91.0785 132.194 88.9072 131.367 86.5339 131.367C85.4836 131.367 84.4737 131.531 83.5345 131.821C84.8271 130.785 85.5947 129.331 85.5947 127.713C85.5947 126.095 84.8271 124.641 83.595 123.623C82.3226 122.759 80.7269 122.241 78.9999 122.241C77.273 122.241 75.6672 122.759 74.3846 123.632C75.5662 122.605 76.2933 121.196 76.2933 119.624C76.2933 117.688 75.1925 115.988 73.5262 114.997C71.981 114.116 70.1329 113.607 68.1534 113.607C65.6892 113.607 63.427 114.406 61.6697 115.724C62.6292 114.688 63.1947 113.361 63.1947 111.907C63.1947 110.135 62.3363 108.544 60.983 107.444C59.1853 105.944 56.7716 105.026 54.1257 105.026C52.2573 105.026 50.5102 105.481 49.0054 106.281L42.2894 96.0734C37.6438 89.4383 32.1902 82.5304 32.1902 82.5304L55.2164 57.3532C55.2164 57.3532 63.3967 61.8978 70.1631 65.3518C73.4959 67.0787 79.2524 69.351 83.595 71.1689C76.7276 75.8044 70.9711 80.2581 72.6879 83.3485C75.6874 85.2936 79.4342 86.4661 83.484 86.4661C87.2812 86.4661 90.816 85.439 93.7649 83.6757C97.5319 81.3943 102.248 80.0127 107.328 80.0127C110.833 80.0127 114.165 80.6672 117.185 81.8578C122.78 85.2572 133.081 93.6193 142.473 98.8911C154.289 106.617 156.612 111.616 153.784 114.161V114.17Z" fill="white"/>
</svg>
