<svg width="301" height="77" viewBox="0 0 301 77" fill="none" xmlns="http://www.w3.org/2000/svg">
<path d="M283.066 38.0653C286.909 38.0653 290.126 39.7596 291.223 42.0784C292.726 42.4437 293.664 42.9108 293.664 43.4214V43.818C295.224 44.5572 296.17 45.4634 296.17 46.4475V48.1464C298.754 48.9892 300.373 50.0751 300.373 51.2697C300.373 52.1124 299.53 52.8954 298.166 53.5835C298.434 53.9867 298.611 54.3973 298.611 54.8297C298.611 55.1688 298.512 55.5026 298.344 55.8249V56.0838C298.513 56.2557 298.611 56.4362 298.611 56.6177C298.611 56.7971 298.51 56.9657 298.344 57.1355C298.343 57.1371 298.346 57.142 298.344 57.1435V58.1064C298.511 58.3353 298.611 58.5693 298.611 58.8104C298.611 59.0514 298.511 59.2855 298.344 59.5144V74.2235H298.878V75.858H267.255V74.2235H267.789V59.5144C267.621 59.2855 267.522 59.0514 267.522 58.8104C267.522 58.5693 267.621 58.3353 267.789 58.1064V57.1435V57.1355C267.623 56.9651 267.522 56.7961 267.522 56.6177C267.522 56.4367 267.62 56.256 267.789 56.0838V55.8249C267.621 55.5026 267.522 55.1688 267.522 54.8297C267.522 54.3978 267.698 53.9867 267.966 53.5835C266.603 52.8943 265.76 52.1119 265.76 51.2697C265.76 50.0743 267.379 48.9892 269.963 48.1464V46.4475C269.963 45.4652 270.908 44.5564 272.469 43.818V43.4214C272.469 42.9116 273.407 42.4448 274.91 42.0784C276.007 39.7575 279.224 38.0653 283.066 38.0653Z" stroke="#E52A30" stroke-miterlimit="10"/>
<path d="M283.066 38.0628C286.909 38.0628 290.126 39.7571 291.223 42.0759C292.726 42.4415 293.664 42.9083 293.664 43.4191V43.8155C295.224 44.5547 296.17 45.4609 296.17 46.445V48.1442C298.754 48.9869 300.373 50.0728 300.373 51.2672C300.373 52.1102 299.53 52.8931 298.166 53.5813C298.426 53.9715 298.592 54.3694 298.603 54.7868C298.171 54.5827 297.693 54.3875 297.132 54.2042V55.6769C297.561 55.7947 297.986 55.9122 298.344 56.0409V56.0813C298.513 56.2532 298.611 56.4339 298.611 56.6152C298.611 56.7946 298.51 56.9632 298.344 57.133C298.343 57.1348 298.346 57.1397 298.344 57.1413V58.1039C298.511 58.3328 298.611 58.5668 298.611 58.8079C298.611 59.0489 298.511 59.283 298.344 59.5119V74.221H298.878V75.8555H267.255V74.221H267.789V59.5119C267.621 59.283 267.522 59.0489 267.522 58.8079C267.522 58.5671 267.621 58.333 267.789 58.1039V57.1413V57.133C267.623 56.9626 267.522 56.7936 267.522 56.6152C267.522 56.4671 267.624 56.3216 267.74 56.1784C268.101 56.036 268.545 55.897 268.993 55.7657V54.2042C268.436 54.3852 267.959 54.5763 267.53 54.7787C267.543 54.3647 267.708 53.9689 267.966 53.5813C266.603 52.8921 265.76 52.1094 265.76 51.2672C265.76 50.0718 267.379 48.9869 269.963 48.1442V46.445C269.963 45.4627 270.908 44.5539 272.469 43.8155V43.4191C272.469 42.9093 273.407 42.4422 274.91 42.0759C276.007 39.7553 279.224 38.0628 283.066 38.0628ZM283.066 52.4889C282.148 52.4887 281.263 52.5211 280.383 52.5537V52.8289V54.1315V54.3417C281.339 54.3083 282.225 54.2286 283.228 54.2286C284.113 54.2288 284.893 54.2912 285.742 54.3176V54.1638V52.8289V52.5537C284.863 52.5211 283.984 52.4889 283.066 52.4889ZM287.65 52.6508V52.8289V54.2366V54.3904C289.263 54.4789 290.718 54.6205 292.112 54.7948V54.6573V53.1039C291.424 53.0034 290.731 52.9058 289.986 52.8289C289.241 52.753 288.444 52.7025 287.65 52.6508ZM278.475 52.6508C277.681 52.7025 276.884 52.752 276.139 52.8289C275.393 52.9053 274.7 53.0039 274.013 53.1039V54.633V54.7707C275.362 54.5954 276.912 54.5071 278.475 54.4145V54.2286V52.8289V52.6508ZM293.502 53.3304V54.8354V54.9566C294.412 55.0956 295.31 55.2375 296.073 55.4097V55.3126V53.8966C295.293 53.6882 294.441 53.4987 293.502 53.3304ZM272.622 53.3304C271.685 53.4992 270.838 53.688 270.06 53.8966V55.3854V55.4827C270.83 55.2997 271.689 55.1376 272.622 54.989V54.8595V53.3304ZM289.856 58.0959V58.4842V74.1969H291.732V58.4842V58.2981C291.102 58.2303 290.533 58.149 289.856 58.0959ZM276.268 58.1202C275.588 58.1769 275.024 58.2657 274.393 58.3387V58.4842V74.1969H276.268V58.4842V58.1202ZM293.502 58.5006V74.1969H295.28V58.7595C294.738 58.6606 294.113 58.5847 293.502 58.5006ZM272.622 58.5653C272.006 58.644 271.371 58.7149 270.844 58.8159V74.1969H272.622V58.5653ZM283.066 62.7725C281.56 62.7725 280.218 63.0045 279.17 63.3551V66.7126V74.1969H286.954V66.7126V63.3551C285.906 63.0043 284.572 62.7725 283.066 62.7725Z" fill="#E52A30"/>
<path d="M17.4883 6.22632C17.4159 6.2491 16.7976 7.15503 16.7123 7.27335C16.0915 8.13681 15.4163 8.99171 14.6325 9.71459C13.9936 10.3036 13.3677 10.9014 12.7184 11.4822C12.0717 12.0645 11.319 12.5302 10.6723 13.1102C9.90663 13.7976 8.78915 14.1122 8.23042 15.0284C7.3587 16.4592 9.07112 18.0644 10.3852 18.2759C11.0344 18.3805 11.8803 18.1967 12.4856 17.9792C13.1038 17.7576 13.6936 17.4788 14.3247 17.2802" stroke="#E52A30" stroke-width="0.5" stroke-miterlimit="10" stroke-linecap="round" stroke-linejoin="round"/>
<path d="M25.7771 0.254089C25.8883 0.254089 25.9142 0.747055 25.9142 1.07924C25.9142 1.22707 25.1873 5.63033 25.089 6.01481C25.0968 6.01714 25.1123 6.01171 25.1149 6.01481C25.133 6.05934 25.0243 6.55334 25.0166 6.62972C25.0036 6.77575 24.983 6.9197 24.97 7.06676C24.9648 7.10689 24.9648 7.14754 24.9597 7.18793C24.9752 7.19984 24.9881 7.18974 25.0011 7.20424C25.1045 7.32075 25.1175 7.45719 25.1873 7.58457C25.2494 7.69979 25.3606 7.7464 25.4227 7.85954C25.5313 8.0589 25.2365 8.04181 25.2287 8.22357C25.2158 8.4773 25.327 8.70177 25.252 8.9599C25.2235 9.05388 24.7295 9.41118 24.4837 9.5585C24.6131 10.0074 24.3518 10.6239 24.9364 10.8613C25.2002 10.9675 25.6814 10.3492 25.834 10.1817C26.4419 9.51474 26.685 8.25411 27.6861 8.03766C27.8361 8.00452 28.0197 7.94369 28.1931 7.94032C28.2707 7.93903 28.3302 7.99806 28.3974 8.02938C28.4103 8.0312 28.431 8.01799 28.444 8.02136C28.4983 8.03456 28.5371 8.08764 28.5811 8.11845C28.5992 8.13838 28.625 8.14226 28.638 8.16712C28.6405 8.16945 28.638 8.17256 28.638 8.17515C28.7802 8.28829 28.9122 8.43354 29.0363 8.5472C29.5407 9.01479 29.9469 9.62918 30.3763 10.1654C30.6168 10.4644 30.9065 10.7575 30.9919 11.1039C31.3256 11.425 30.9634 12.0922 31.0721 12.6007C31.1393 12.9173 31.3695 13.1843 31.4264 13.5069C31.473 13.7583 31.3592 13.9695 31.3307 14.2108C31.2945 14.5166 31.279 14.833 31.3075 15.1414C31.3126 15.2133 31.323 15.4619 31.235 15.4974C31.1885 15.515 31.1445 15.4544 31.0953 15.4487C30.7487 15.4083 30.4176 15.3612 30.1021 15.1898C29.6908 14.9661 29.101 14.5399 28.9613 14.0653C28.9147 13.9048 28.9225 13.6653 29.0441 13.5395C29.0984 13.4823 29.2045 13.4634 29.2277 13.3774C29.2614 13.2679 29.2174 13.1597 29.2458 13.0538C29.282 12.9222 29.3959 12.858 29.4864 12.7708C29.5537 12.7089 29.6028 12.633 29.6571 12.5603C29.52 12.4497 29.37 12.3454 29.2846 12.2123C29.1398 11.9803 29.3209 11.6225 29.2122 11.3548C29.1191 11.1182 28.894 10.939 28.7285 10.7562C28.5448 10.5553 28.3664 10.3469 28.1853 10.141C27.8309 10.5222 27.6602 11.0607 27.4015 11.6541C26.9385 12.7198 26.5401 13.8869 25.834 14.8257C25.5287 15.2309 24.8226 15.93 24.2017 15.9504C24.15 16.1257 24.1009 16.2958 24.0543 16.4763C23.6922 17.9314 23.2162 19.3642 22.8748 20.8293C22.7661 21.2982 22.673 22.8804 22.2203 23.1512C22.2022 23.1618 22.1764 23.1445 22.1557 23.1512C22.2747 23.4342 22.4014 23.7527 22.5281 23.9523C22.6575 24.156 23.3068 25.0179 23.1179 25.2388C23.0145 25.361 22.7454 25.3281 22.6316 25.2468C22.2462 24.9646 21.8349 24.7313 21.3564 24.6239C21.1029 24.5672 20.6373 24.6928 20.4329 24.4864C20.3062 24.3572 20.4355 24.1436 20.4898 24.009C20.5855 23.778 20.7485 23.3767 20.6761 23.0785C20.4252 23.6087 19.3749 24.191 19.1396 24.713C18.8343 25.3903 19.2818 25.9707 19.2456 26.6465C19.2249 27.0162 19.018 27.4219 18.8576 27.7469C18.7464 27.9716 18.6351 28.2046 18.5265 28.4348C18.7283 29.2931 18.2859 30.2394 18.1954 31.0966C18.1411 31.6028 17.9419 32.1263 17.735 32.5853C17.6858 32.6941 17.6134 32.9719 17.4996 33.0304C17.2332 33.1697 16.8606 33.141 16.5709 33.1839C16.5063 33.1938 16.2605 33.3064 16.1985 33.2406C16.1493 33.1894 16.1105 32.1814 16.0847 32.0028C16.0096 31.4883 15.7949 31.0107 15.6889 30.506C15.6294 30.2202 15.632 29.9284 15.632 29.6402C15.6242 29.6371 15.619 29.6346 15.6087 29.6322C14.9542 29.5022 14.3153 29.32 13.7333 29.0093C13.6454 29.4688 13.4824 29.9137 13.1823 30.2632C13.0349 30.4354 12.753 30.5969 12.665 30.8134C12.6521 30.8491 12.8823 31.3066 12.8926 31.4202C12.9599 32.103 12.8073 33.2518 11.8657 32.998C11.6846 32.9494 11.5553 32.8238 11.4208 32.6987C11.4156 32.6923 11.4104 32.6809 11.4053 32.6744C11.1466 32.8818 10.8362 33.0081 10.4844 32.9817C10.3266 32.9701 10.2257 32.9035 10.0783 32.8686C9.81186 32.8049 9.52216 32.6734 9.41611 32.3992C9.33851 32.1985 9.4963 31.893 9.57907 31.7115C9.80929 31.1921 10.1249 30.7209 10.1611 30.1418C10.2051 29.3951 10.3059 28.5937 10.249 27.8442C10.1662 26.7498 10.1404 25.5674 10.4741 24.5105C10.5749 24.1993 10.3318 23.9531 10.3939 23.6773C10.3965 23.6677 10.4146 23.6553 10.4198 23.645C10.4042 23.6408 10.3706 23.6538 10.3628 23.645C10.1818 23.4425 10.4818 23.1274 10.5646 22.957C10.6448 22.7893 10.5672 22.5871 10.6526 22.4312C10.8673 22.0415 11.0897 21.6436 11.3173 21.25C11.5294 20.8788 11.7985 20.4096 11.8657 19.9796C11.9019 19.7471 11.8554 19.5192 11.9382 19.2919C12.0158 19.0845 12.2046 19.2438 12.2305 18.9766C12.2486 18.7531 11.9588 18.5004 12.0028 18.1592C12.039 17.8948 12.2227 17.6621 12.246 17.4068C12.3003 16.8056 12.2408 16.2428 12.1658 15.6429C12.1529 15.654 12.1399 15.6675 12.1322 15.6755C11.6096 16.2451 10.8466 16.7155 10.0628 16.3631C9.78083 16.2363 9.47817 16.04 9.23761 15.8453C9.15225 15.7754 9.09018 15.6768 8.98929 15.6348C8.63233 15.4906 7.74249 16.1651 7.55624 15.5377C7.45278 15.1807 7.76577 14.4612 8.10722 14.3079C8.22362 14.2556 8.36071 14.2341 8.49522 14.2352C8.62973 14.2365 8.76165 14.2629 8.88323 14.2919C9.28934 14.39 9.60233 14.7812 10.0136 14.8177C10.2645 14.8397 10.5284 14.8265 10.7819 14.7773C10.7974 14.7452 10.8207 14.7116 10.831 14.6802C10.8517 14.6119 10.8233 14.4993 10.8233 14.4294C10.8207 14.231 10.8465 14.0068 10.8543 13.8064C10.8853 13.1097 11.2553 12.1647 11.8735 11.7999C12.0934 11.6702 12.2951 11.587 12.5538 11.5814C12.8099 11.5757 13.0711 11.63 13.3298 11.6945C13.3324 11.6953 13.335 11.694 13.3375 11.6945C13.5522 11.5811 13.8575 11.4219 13.8782 11.3628C13.9636 11.1267 13.8549 10.9563 13.829 10.7319C13.7618 10.0667 13.516 9.36535 13.8782 8.74138C14.1938 8.19742 15.081 8.36829 15.5751 8.2479C15.7458 8.20699 15.8803 8.12802 16.0122 8.10239C16.1442 8.0765 16.2709 8.1011 16.4157 8.25593C16.7365 8.59691 16.6796 9.05078 16.8943 9.42905C16.9486 9.52717 17.0443 9.56756 17.1038 9.65584L17.0805 9.6719L17.1038 9.67993C17.1167 9.67371 16.9822 9.8433 16.9512 9.88214C16.8348 10.0261 16.7572 10.2236 16.7882 10.4163C16.8555 10.822 16.9977 10.787 16.6097 11.0959C16.4597 11.2171 16.3485 11.3742 16.214 11.5086C16.214 11.5086 16.1648 11.5459 16.1752 11.557C16.2528 11.6357 16.2761 11.461 16.2942 11.4519C16.3537 11.4234 16.5192 11.5226 16.5632 11.549C16.6149 11.5801 16.8193 11.8483 16.8219 11.8483C16.8477 11.8483 17.0624 11.4672 17.0883 11.4356C17.1736 11.3224 17.4116 11.1583 17.4582 11.0392C17.5358 10.851 17.3935 10.4888 17.3961 10.2868C17.3961 9.78867 17.4168 9.22917 17.3625 8.73336C17.3289 8.43794 17.2875 8.10913 17.3392 7.81087C17.3677 7.62989 17.4685 7.34431 17.5487 7.06676C17.3366 6.49949 17.2254 5.87474 17.2409 5.53739C17.2564 5.19796 17.6005 4.82487 17.5254 4.48569C17.4685 4.23766 17.078 3.93655 17.1116 3.66832C17.1168 3.63725 17.453 3.64735 17.4996 3.65227C17.6186 3.66418 17.722 3.50107 17.8229 3.45809C18.0169 3.37575 18.2523 3.40423 18.4386 3.31258C18.7826 3.1404 18.9145 2.53068 19.3827 2.5923C19.6905 2.63269 19.8069 3.0138 20.0216 3.18312C20.3191 3.41666 20.7252 3.40605 20.9917 3.717C21.2063 3.96607 20.9684 4.30705 20.9348 4.56648C20.8804 4.99368 20.9451 5.57518 21.1055 5.97442C21.2891 6.43398 21.0615 6.84746 20.9114 7.26094C20.8675 7.38004 20.839 7.51959 20.839 7.6493C20.839 7.65111 20.839 7.65474 20.839 7.65733C21.0615 7.90174 21.2684 8.16091 21.4935 8.40169C21.6202 8.53917 21.8815 8.89802 22.091 8.88715C22.2255 8.88016 22.4557 8.28363 22.6006 8.17515C22.7972 8.02938 23.0791 7.92142 23.3275 7.91624C23.4232 7.91417 23.5887 7.9411 23.6767 7.89993C23.9276 7.78031 24.3182 7.18301 24.67 7.09084C24.6803 7.08799 24.6906 7.1012 24.701 7.09887C24.7243 6.97148 24.7424 6.84539 24.7682 6.71878C24.7889 6.60461 24.8355 6.15359 24.8976 6.04718C24.8924 6.03941 24.8795 6.01481 24.8795 6.01481C24.8795 6.01481 25.446 1.44896 25.446 1.10357C25.446 0.953663 25.6658 0.254089 25.7771 0.254089Z" fill="#E52A30" stroke="#E52A30" stroke-width="0.5" stroke-miterlimit="10" stroke-linejoin="round"/>
<path d="M24.9186 74.4191L29.3574 57.9274" stroke="#E52A30" stroke-width="0.5" stroke-miterlimit="10" stroke-linejoin="round"/>
<path d="M29.6283 56.9603L29.0179 57.916L29.6387 58.0946L29.6283 56.9603Z" fill="#E52A30" stroke="#E52A30" stroke-width="0.5" stroke-miterlimit="10" stroke-linejoin="round"/>
<path d="M25.8021 63.3771C26.3608 63.3266 26.0556 63.6666 26.1745 63.7655C26.3349 63.8991 26.4824 63.9123 26.5057 64.1701C26.5082 64.2095 26.3323 64.2087 26.3453 64.2429C26.4281 64.4658 26.6091 64.4762 26.5134 64.777C26.4643 64.9352 26.172 64.9489 26.1979 65.141C26.2263 65.3482 26.3039 65.5426 26.3608 65.7479C26.366 65.7495 26.3711 65.7461 26.3763 65.7479C26.5367 65.7976 26.6971 65.9351 26.8704 65.9178C27.0644 65.8981 27.0463 65.3567 27.411 65.5131C27.7214 65.6462 27.6387 66.2396 27.3619 66.3628C27.1213 66.4703 26.754 66.5397 26.441 66.5407C26.4539 66.8765 26.4694 67.2136 26.4824 67.552C26.4876 67.726 26.5419 67.908 26.5703 68.0942C26.6764 68.4698 26.516 69.0076 26.3919 69.5749C26.2755 70.1211 26.3142 70.7757 26.3453 71.3225C26.3686 71.7665 27.8481 73.0517 26.9816 73.4908C26.7255 73.6208 26.4591 73.787 26.159 73.7417C24.7415 73.5266 22.3488 70.524 22.9903 69.049C23.0084 69.0063 23.0421 68.9757 23.0628 68.9356C22.9541 68.6827 22.8558 68.4237 22.7782 68.1669C22.6463 67.7244 22.5428 67.1828 22.5945 66.7188C22.6592 66.1143 22.279 64.5831 23.4352 64.7283C23.9293 64.7907 24.0302 65.5154 24.4052 65.7559C24.501 65.8178 24.6199 65.8336 24.7364 65.8611C24.7907 65.5781 24.8786 65.3109 25.0105 65.0843C25.1192 64.8951 25.4555 64.8288 25.4787 64.7931C25.5072 64.7493 25.2925 64.4606 25.2692 64.3967C25.0881 63.9115 25.2278 63.4294 25.8021 63.3771Z" fill="#E52A30" stroke="#E52A30" stroke-width="0.5" stroke-miterlimit="10" stroke-linecap="round" stroke-linejoin="round"/>
<path d="M14.4389 62.029C15.414 61.8602 16.7488 62.5976 17.2765 63.073C18.7121 64.3649 19.5968 66.6156 19.4752 68.5504C19.3122 71.1519 17.8688 73.7599 15.2252 74.4406C14.3949 74.6542 11.6116 75.1627 11.3762 73.7446C11.2857 73.2015 11.7435 72.9646 12.2583 72.79C11.9246 72.2507 12.1522 71.1853 12.0384 70.5083C11.9065 69.7199 11.2701 69.5785 10.8511 69.0196C10.2329 68.1955 9.9173 67.4024 10.0673 66.3497C10.1475 65.7752 10.5795 65.4464 11.0865 65.3221C11.0968 65.277 11.1098 65.2294 11.1175 65.1846C11.146 65.0443 10.9339 64.97 10.9727 64.7799C10.996 64.659 11.0942 64.592 11.1511 64.497C11.3348 64.1865 11.49 63.6863 11.8444 63.6715C11.9634 63.6666 12.1031 63.7135 12.2738 63.8414C12.4833 63.9985 12.654 64.1741 12.654 64.4402C12.654 64.5265 12.4988 64.827 12.5635 64.8933C12.7135 65.0427 12.936 64.985 13.1559 64.9337C13.1326 64.6981 13.1326 64.4545 13.1455 64.1813C13.1584 63.9493 13.0265 63.757 13.099 63.5177C13.1584 63.3163 13.3214 63.3186 13.4792 63.3155C13.4611 63.0439 13.4766 62.7729 13.6318 62.5388C13.831 62.2393 14.1155 62.0855 14.4389 62.029Z" fill="#E52A30" stroke="#E52A30" stroke-width="0.5" stroke-miterlimit="10" stroke-linecap="round" stroke-linejoin="round"/>
<path d="M12.2969 66.9014L2.05346 62.8557" stroke="#E52A30" stroke-width="0.5" stroke-miterlimit="10" stroke-linejoin="round"/>
<path d="M1.04202 62.3938L1.95255 63.3272L2.3457 62.4117L1.04202 62.3938Z" fill="#E52A30" stroke="#E52A30" stroke-width="0.5" stroke-miterlimit="10" stroke-linejoin="round"/>
<path d="M18.5989 30.9752C27.179 30.9752 34.127 32.749 34.127 34.9399V38.9126C34.127 40.5737 30.1253 41.9869 24.4526 42.5777V71.7614C26.9359 71.8463 28.7854 71.9652 28.7854 72.1177V72.5788C28.7854 72.5922 28.6405 72.606 28.6147 72.6192V75.8555H24.4526H12.7478H8.58315V72.6192C8.55988 72.606 8.41501 72.5922 8.41501 72.5788V72.1177C8.41501 71.9652 10.2619 71.8463 12.7478 71.7614V42.5777C7.07251 41.9869 3.06309 40.5737 3.06309 38.9126V34.9399C3.06309 32.749 10.0214 30.9752 18.5989 30.9752Z" fill="#E52A30" stroke="#E52A30" stroke-width="0.5" stroke-miterlimit="10" stroke-linejoin="round"/>
<path d="M100.638 44.6406L102.966 47.1976L102.957 47.2217C102.957 47.2279 102.966 47.2217 102.966 47.2217V53.1442H105.569V54.2609L153.067 58.3711L165.281 59.431V59.6573V75.8555H156.81V75.5481V72.3198H157.885V70.038H159.089C159.089 66.0829 156.323 62.8776 152.913 62.8776C149.504 62.8776 146.738 66.0829 146.738 70.038H147.934V72.3198H149.009V75.5481V75.8555H136.148V75.5318V72.1013H137.296V69.666H138.573C138.573 65.4587 135.628 62.0522 132.002 62.0522C128.375 62.0525 125.438 65.4587 125.438 69.666H126.707V72.1013H127.847V75.5238V75.8555H115.447V75.5155V71.9071H116.651V69.3504H117.993C117.993 64.9292 114.901 61.3485 111.09 61.3485C107.278 61.3485 104.186 64.9292 104.186 69.3504H105.52V71.9071H106.725V75.5075V75.8555H94.5426V75.5155V71.9071H95.747V69.3504H97.089C97.089 64.9292 93.9971 61.3485 90.1856 61.3485C86.3743 61.3485 83.2824 64.9292 83.2824 69.3504H84.6161V71.9071H85.8205V75.5075V75.8555H73.4206V75.5318V72.1013H74.5683V69.666H75.8373C75.8373 65.4587 72.9006 62.0522 69.2738 62.0522C65.6467 62.0525 62.7017 65.4587 62.7017 69.666H63.971V72.1013H65.1188V75.5238V75.8555H52.2579V75.5481V72.3198H53.3412V70.038H54.5376C54.5376 66.0829 51.7713 62.8776 48.3618 62.8776C44.952 62.8776 42.1862 66.0829 42.1862 70.038H43.3813V72.3198H44.4574V75.5481V75.8555H35.9937V59.6573V59.431L48.2081 58.3711L95.7147 54.2609V53.1442H98.3177V47.2217H98.3257L98.3177 47.1976L100.638 44.6406Z" fill="#E52A30" stroke="#E52A30" stroke-width="0.5" stroke-miterlimit="10" stroke-linecap="round" stroke-linejoin="round"/>
<path d="M252.389 39.4788C252.399 39.4788 252.405 39.485 252.405 39.4951C252.418 41.0472 252.447 42.6028 252.445 44.1554C252.445 44.1875 252.421 44.2119 252.389 44.2119C252.357 44.2119 252.324 44.1875 252.324 44.1554C252.323 42.603 252.352 41.0472 252.365 39.4951C252.365 39.485 252.379 39.4788 252.389 39.4788Z" fill="#E52A30"/>
<path d="M179.718 39.4788C179.729 39.4788 179.743 39.485 179.743 39.4951C179.756 41.0472 179.785 42.6028 179.783 44.1554C179.783 44.1875 179.751 44.2119 179.718 44.2119C179.686 44.2119 179.662 44.1875 179.662 44.1554C179.661 42.603 179.69 41.0472 179.702 39.4951C179.702 39.485 179.709 39.4788 179.718 39.4788Z" fill="#E52A30"/>
<path d="M216.053 37.2537L234.75 45.1264L233.942 49.6006C234.276 49.6032 234.687 49.5985 235.017 49.6006C239.271 49.6363 242.783 49.6899 246.318 49.7461C246.294 49.6627 246.255 49.5527 246.237 49.4791C245.928 49.2637 245.743 49.031 245.744 48.7832C245.744 48.4614 246.114 48.174 246.625 47.9096C246.909 46.5115 248.555 44.7779 250.076 43.8479C250.291 43.7169 250.512 43.5434 250.715 43.4515C250.741 43.4383 250.761 43.4145 250.788 43.4028C250.797 43.3992 250.804 43.3974 250.812 43.3948C251.293 43.1698 251.819 43.0388 252.38 43.0388C252.938 43.0388 253.47 43.1656 253.949 43.3868C254.011 43.416 254.065 43.4603 254.126 43.4919C254.295 43.5711 254.476 43.7179 254.652 43.8235C256.189 44.7463 257.887 46.5035 258.168 47.9177C258.666 48.1794 259.025 48.4655 259.025 48.7832C259.025 49.0255 258.846 49.2575 258.548 49.4711C258.51 49.6218 258.43 49.8424 258.37 50.0373C262.066 50.1728 264.714 50.317 264.756 50.4824C264.757 50.4842 264.78 50.4886 264.78 50.4904C264.781 50.4923 264.805 50.4879 264.805 50.4904C264.805 51.2092 262.928 52.2717 262.501 52.6994C262.485 53.3449 262.217 53.792 262.032 53.9857C262.072 54.9703 262.12 55.912 261.895 56.0974C261.895 56.159 261.9 56.2706 261.903 56.3806C262.132 56.6962 262.282 57.0183 262.283 57.3435C262.283 57.8243 261.99 58.2945 261.498 58.7512V75.8635H170.608V58.7512C170.116 58.2945 169.815 57.8238 169.816 57.3435C169.816 57.0175 169.975 56.6962 170.204 56.3806C170.205 56.3159 170.211 56.2356 170.212 56.1947C169.986 56.0091 170.034 55.0602 170.074 54.0748C169.889 53.8811 169.621 53.4425 169.605 52.7963C169.178 52.3688 167.302 51.2982 167.302 50.5795C167.302 50.5559 167.535 50.5606 167.617 50.5471C167.558 50.5277 167.326 50.5101 167.326 50.4904C167.326 50.3237 170.002 50.1751 173.744 50.0373C173.685 49.8463 173.613 49.6293 173.574 49.4791C173.266 49.2637 173.081 49.0305 173.081 48.7832C173.081 48.4614 173.452 48.174 173.962 47.9096C174.247 46.5115 175.892 44.7779 177.414 43.8479C177.628 43.7169 177.85 43.5434 178.053 43.4515C178.079 43.4383 178.099 43.4147 178.125 43.4028C178.134 43.3992 178.141 43.3976 178.15 43.3948C178.631 43.1698 179.157 43.0388 179.718 43.0388C180.275 43.0388 180.808 43.1651 181.286 43.3868C181.349 43.416 181.403 43.46 181.464 43.4919C181.632 43.5711 181.814 43.7179 181.989 43.8235C183.527 44.7463 185.224 46.5035 185.506 47.9177C186.004 48.1794 186.363 48.4655 186.363 48.7832C186.363 49.0255 186.184 49.258 185.886 49.4711C185.867 49.5444 185.82 49.6601 185.797 49.7461C189.604 49.6847 193.533 49.6379 198.164 49.6006L197.356 45.1264L216.053 37.2537ZM233.093 57.1493V58.5813V64.601V74.213H234.928V64.4715V58.557V57.1737C234.259 57.1677 233.781 57.1548 233.093 57.1493ZM199.013 57.1493C198.325 57.1542 197.847 57.1674 197.178 57.1737V58.5329V58.557V64.4715V64.4959V74.2373H199.013V64.6253V64.601V58.6057V58.5813V58.5653V58.541V57.1493ZM237.127 57.1977V58.5329V64.2693V74.213H238.962V64.0995V58.5086V57.2221C238.339 57.2156 237.771 57.2045 237.127 57.1977ZM194.979 57.1977C194.335 57.2042 193.767 57.2148 193.144 57.2221V57.2464V58.5006V58.5086V64.0995V64.1235V74.2373H194.979V64.2936V64.2693V58.5329V58.5166V57.2221V57.1977ZM241.161 57.2464V58.4843V63.8973V74.213H242.995V63.6787V58.4602V57.2707C242.424 57.2627 241.756 57.2544 241.161 57.2464ZM190.946 57.2464C190.602 57.2511 190.223 57.2578 189.887 57.2625C189.624 57.2661 189.353 57.2669 189.111 57.2707V58.4602V63.6787V63.7031V74.2373H190.946V63.9213V63.8973V58.5086V58.4843V57.2464ZM245.299 57.2951C245.264 57.2943 245.229 57.2953 245.194 57.2951V58.4358V63.3712V74.213H247.029V63.1205V58.4035V57.3272C246.481 57.3168 245.881 57.3049 245.299 57.2951ZM186.912 57.2951C186.297 57.3054 185.658 57.3163 185.077 57.3272V58.3872V58.4035V63.1205V63.1446V74.2373H186.912V63.3955V63.3712V58.4602V58.4358V58.4276V57.2951ZM249.228 57.3839V58.3468V62.7806V74.213H251.063V62.4002V58.2981V57.4326C250.445 57.416 249.912 57.3994 249.228 57.3839ZM182.879 57.3839C182.195 57.3997 181.661 57.416 181.044 57.4326V58.2981V58.3224V62.4002V62.4246V74.2373H182.879V62.8049V62.7806V58.3711V58.3468V57.3839ZM253.261 57.4973V58.2334V61.9472V74.213H255.096V61.5184V58.185V57.5457C254.636 57.5276 253.796 57.5146 253.261 57.4973ZM178.845 57.4973C178.311 57.5146 177.47 57.5276 177.01 57.5457V58.1686V58.185V58.2093V61.5264V61.5427V74.2373H178.845V61.9715V61.9554V58.2577V58.2334V57.4973ZM257.311 57.6508C257.302 57.65 257.305 57.6516 257.295 57.6508V58.0798V60.8631V74.213H259.13V60.1672V57.8613C259.13 57.787 258.372 57.7187 257.311 57.6508ZM174.811 57.6752C174.802 57.6757 174.804 57.6744 174.795 57.6752C173.734 57.7427 172.976 57.8116 172.976 57.8857V60.1915V74.2373H174.811V60.8872V58.1039V57.6752ZM216.053 60.766C215.356 60.766 214.91 60.7777 214.267 60.7821V61.1461V65.1351V74.2049H217.84V65.1351V61.1461V60.7821C217.195 60.7777 216.751 60.766 216.053 60.766ZM220.006 60.8064V61.122V65.1027V74.2049H223.902V65.0297V60.9682C223.902 60.897 222.199 60.8421 220.006 60.8064ZM212.1 60.8064C209.905 60.8421 208.204 60.8968 208.204 60.9682V65.0297V74.2049H212.1V65.1027V61.122V60.8064Z" fill="#E52A30" stroke="#E52A30" stroke-width="0.5" stroke-miterlimit="10" stroke-linecap="round" stroke-linejoin="round"/>
</svg>
