<svg width="100" height="110" viewBox="0 0 100 110" fill="none" xmlns="http://www.w3.org/2000/svg">
<path fill-rule="evenodd" clip-rule="evenodd" d="M86.1835 110C81.3605 110 17.5676 109.563 13.8165 109.563C3.23264 109.563 0 105.292 0 98.7108C0 98.2161 0 96.5713 0 94.2038L99.9985 95.6741C99.9985 97.8261 99.9985 99.3238 99.9985 99.8198C100 106.155 96.7003 110 86.1835 110ZM0.00152399 73.2776L100 71.7998C100 76.5983 100 81.9464 100 86.6839L0.00152399 87.0253C0.00152399 82.7538 0.00152399 77.8556 0.00152399 73.2776ZM0.00152399 57.4341C0.00152399 51.5203 3.51931 47.2588 12.0858 46.5087C12.1453 37.9059 12.2078 28.4895 12.2109 26.6877C12.2581 -10.3213 87.5162 -7.15752 87.4674 25.8043C87.4628 28.1008 87.5513 37.3938 87.6367 45.9816C97.574 46.4115 100 51.8717 100 57.94C100 58.644 100 61.09 100 64.4718L0.00152399 64.2849C0.00152399 60.8146 0.00152399 58.2565 0.00152399 57.4341ZM69.88 46.0414C69.8373 37.7539 69.7961 29.6658 69.7992 28.5207C69.8266 10.6884 29.9645 8.97635 29.9385 28.9992C29.937 29.8851 29.9081 38.0019 29.8806 46.3006C41.5684 46.2246 57.7469 46.1162 69.88 46.0414Z" fill="#E52A30"/>
</svg>
