<svg width="62" height="98" viewBox="0 0 62 98" fill="none" xmlns="http://www.w3.org/2000/svg">
<path d="M0.345418 81.0183C4.81956 45.8877 7.55092 32.0984 9.58926 18.3804C11.6276 4.66241 24.8767 -1.79911 38.9107 0.432869C53.179 2.70561 63.1464 10.971 61.5362 26.0853C59.9259 41.1995 60.1287 35.6655 60.1287 35.6655L52.0773 35.7944C52.0773 35.7944 51.5687 38.142 53.0771 26.4828C54.5854 14.8235 45.4028 9.72766 38.0546 8.76964C27.2922 7.353 18.0687 12.7342 17.1209 20.6226C16.1731 28.5109 11.6276 56.9354 7.9484 81.6196C6.46041 91.4444 30.2172 95.888 31.8988 83.3115C32.3065 80.254 36.9946 39.6402 37.759 33.3723C38.1871 29.8154 34.5588 29.0205 33.9371 28.9389C30.5229 28.5313 29.0961 30.4881 28.8413 32.6385C29.0451 30.9263 25.58 73.344 25.58 73.344L17.5693 72.2739C17.5693 72.2739 20.953 29.4689 20.8103 30.6308C21.6052 24.0877 28.0667 20.1537 34.6607 20.9589C42.0191 21.8455 46.4423 27.9504 45.7289 33.8819C44.9849 39.9969 40.2764 80.8757 39.8891 84.0758C37.3717 104.714 -2.10058 99.8118 0.345418 81.0183Z" fill="#E52A30"/>
</svg>
